G04*
G04 #@! TF.GenerationSoftware,Altium Limited,Altium Designer,25.8.1 (18)*
G04*
G04 Layer_Physical_Order=5*
G04 Layer_Color=16737945*
%FSLAX44Y44*%
%MOMM*%
G71*
G04*
G04 #@! TF.SameCoordinates,078DBBB2-0D48-4D9F-B724-92657CB152FA*
G04*
G04*
G04 #@! TF.FilePolarity,Positive*
G04*
G01*
G75*
%ADD19C,0.5000*%
%ADD20C,0.5000*%
D19*
X1072681Y1142540D02*
G03*
X1061229Y1147821I-72681J-142540D01*
G01*
X1025819Y1167749D02*
G03*
X1045419Y1135595I28881J-4445D01*
G01*
X1063764Y1127997D02*
G03*
X1054724Y1132115I-63764J-127997D01*
G01*
D02*
G03*
X1045419Y1135595I-54724J-132115D01*
G01*
X1067257Y1131835D02*
G03*
X1056637Y1136734I-67257J-131835D01*
G01*
X1063764Y1127997D02*
G03*
X1100359Y1136873I13030J26155D01*
G01*
X1056637Y1136734D02*
G03*
X1045663Y1140780I-56637J-136734D01*
G01*
X1067257Y1131835D02*
G03*
X1101458Y1139385I12517J24536D01*
G01*
X1070438Y1138070D02*
G03*
X1059316Y1143201I-70438J-138070D01*
G01*
D02*
G03*
X1047823Y1147438I-59316J-143201D01*
G01*
X1070438Y1138070D02*
G03*
X1096857Y1144957I9336J18300D01*
G01*
X1072681Y1142540D02*
G03*
X1100002Y1149665I9653J18931D01*
G01*
X1063908Y1154288D02*
G03*
X1051559Y1158842I-63908J-154288D01*
G01*
X1026818Y1170301D02*
G03*
X1045663Y1140780I27343J-3321D01*
G01*
X1034012Y1170988D02*
G03*
X1047823Y1147438I20150J-4008D01*
G01*
X1035116Y1176541D02*
G03*
X1049397Y1152184I20842J-4146D01*
G01*
X1042810Y1173647D02*
G03*
X1049231Y1164804I8997J-220D01*
G01*
X1041797Y1170809D02*
G03*
X1051559Y1158842I14161J1587D01*
G01*
X1065821Y1158907D02*
G03*
X1049231Y1164804I-65821J-158907D01*
G01*
X1061229Y1147821D02*
G03*
X1049397Y1152184I-61229J-147821D01*
G01*
X1075860Y1148776D02*
G03*
X1063908Y1154288I-75860J-148776D01*
G01*
X1081722Y1151346D02*
G03*
X1065821Y1158907I-81722J-151346D01*
G01*
X1075860Y1148776D02*
G03*
X1091225Y1150335I6473J12695D01*
G01*
X1081722Y1151346D02*
G03*
X1092516Y1153058I4276J7919D01*
G01*
X1264084Y1326879D02*
G03*
X1197134Y1324866I-31801J-56689D01*
G01*
X1322245Y1201391D02*
G03*
X1323000Y1260775I-51755J30355D01*
G01*
X1324866Y1197134D02*
G03*
X1326879Y1264084I-54676J35150D01*
G01*
X1313153Y1215256D02*
G03*
X1311516Y1256717I-40720J19155D01*
G01*
X1315959Y1211117D02*
G03*
X1315304Y1260158I-43897J23939D01*
G01*
X1303466Y1228710D02*
G03*
X1301838Y1249448I-23478J8589D01*
G01*
X1306449Y1224698D02*
G03*
X1305684Y1252812I-26873J13336D01*
G01*
X1301838Y1249448D02*
G03*
X1292033Y1264600I-117990J-65600D01*
G01*
X1305684Y1252812D02*
G03*
X1297218Y1265989I-121836J-68964D01*
G01*
X1311516Y1256717D02*
G03*
X1304432Y1267922I-127668J-72870D01*
G01*
X1315304Y1260158D02*
G03*
X1309557Y1269295I-131456J-76310D01*
G01*
X1260775Y1323000D02*
G03*
X1201391Y1322245I-29029J-52510D01*
G01*
X1260158Y1315304D02*
G03*
X1211117Y1315958I-25102J-43242D01*
G01*
X1256717Y1311516D02*
G03*
X1215256Y1313153I-22307J-39082D01*
G01*
X1252812Y1305684D02*
G03*
X1224698Y1306449I-14778J-26108D01*
G01*
X1249448Y1301838D02*
G03*
X1228710Y1303466I-12148J-21850D01*
G01*
X1279307Y1279307D02*
G03*
X1249448Y1301838I-95459J-95459D01*
G01*
X1282843Y1282843D02*
G03*
X1252812Y1305684I-98995J-98995D01*
G01*
X1287792Y1287792D02*
G03*
X1256717Y1311516I-103945J-103945D01*
G01*
X1291328Y1291328D02*
G03*
X1260158Y1315304I-107480J-107480D01*
G01*
X1296278Y1296278D02*
G03*
X1260775Y1323000I-112430J-112430D01*
G01*
X1299813Y1299813D02*
G03*
X1264084Y1326879I-115965J-115965D01*
G01*
X1292033Y1264600D02*
G03*
X1279307Y1279307I-108186J-80752D01*
G01*
X1290589Y1284918D02*
G03*
X1287792Y1287792I-106741J-101071D01*
G01*
X1297218Y1265989D02*
G03*
X1282843Y1282843I-113370J-82141D01*
G01*
X1296055Y1286383D02*
G03*
X1291328Y1291328I-112207J-102535D01*
G01*
X1303628Y1288412D02*
G03*
X1296278Y1296278I-119780J-104564D01*
G01*
X1304432Y1267922D02*
G03*
X1290589Y1284918I-120584J-84074D01*
G01*
X1308987Y1289848D02*
G03*
X1299813Y1299813I-125140J-106000D01*
G01*
X1309557Y1269295D02*
G03*
X1296055Y1286383I-125709J-85447D01*
G01*
X1316698Y1271209D02*
G03*
X1303628Y1288412I-132850J-87361D01*
G01*
X1321777Y1272570D02*
G03*
X1308987Y1289848I-137929J-88722D01*
G01*
X1323000Y1260775D02*
G03*
X1316698Y1271209I-139152J-76927D01*
G01*
X1326879Y1264084D02*
G03*
X1321777Y1272570I-143032J-80237D01*
G01*
X1134213Y1087103D02*
G03*
X1126936Y1097402I-134213J-87103D01*
G01*
X1106234Y1132365D02*
G03*
X1107132Y1094720I22789J-18290D01*
G01*
X1119220Y1078966D02*
G03*
X1113449Y1087053I-119220J-78966D01*
G01*
D02*
G03*
X1107132Y1094720I-113449J-87053D01*
G01*
X1124164Y1080544D02*
G03*
X1117416Y1090097I-124164J-80544D01*
G01*
X1119220Y1078966D02*
G03*
X1155350Y1068356I24362J16136D01*
G01*
X1117416Y1090097D02*
G03*
X1109935Y1099087I-117416J-90097D01*
G01*
X1124164Y1080544D02*
G03*
X1157557Y1069982I23108J14990D01*
G01*
X1130037Y1084353D02*
G03*
X1122970Y1094358I-130037J-84353D01*
G01*
D02*
G03*
X1115135Y1103774I-122970J-94358D01*
G01*
X1130037Y1084353D02*
G03*
X1156359Y1077108I17235J11180D01*
G01*
X1134213Y1087103D02*
G03*
X1161437Y1079612I17825J11568D01*
G01*
X1132490Y1101663D02*
G03*
X1124072Y1111782I-132490J-101663D01*
G01*
X1108376Y1134076D02*
G03*
X1109935Y1099087I22019J-16548D01*
G01*
X1114949Y1131074D02*
G03*
X1115135Y1103774I15446J-13546D01*
G01*
X1118682Y1135331D02*
G03*
X1118871Y1107096I15977J-14011D01*
G01*
X1123898Y1128978D02*
G03*
X1125037Y1118109I7682J-4689D01*
G01*
X1121601Y1127026D02*
G03*
X1124072Y1111782I13058J-5706D01*
G01*
X1136457Y1104707D02*
G03*
X1125037Y1118109I-136457J-104707D01*
G01*
X1126936Y1097402D02*
G03*
X1118871Y1107096I-126936J-97402D01*
G01*
X1140085Y1090913D02*
G03*
X1132490Y1101663I-140085J-90913D01*
G01*
X1146446Y1090208D02*
G03*
X1136457Y1104707I-146446J-90208D01*
G01*
X1140085Y1090913D02*
G03*
X1154170Y1084581I11953J7758D01*
G01*
X1146446Y1090208D02*
G03*
X1156650Y1086294I7663J4720D01*
G01*
X1392144Y1151044D02*
G03*
X1333156Y1182776I-55885J-33194D01*
G01*
X1379768Y1013288D02*
G03*
X1410113Y1064338I-29644J52165D01*
G01*
X1379910Y1008290D02*
G03*
X1415128Y1065264I-29776J57779D01*
G01*
X1378827Y1029840D02*
G03*
X1398139Y1066566I-25687J36948D01*
G01*
X1379186Y1024853D02*
G03*
X1403140Y1067651I-26046J42680D01*
G01*
X1377164Y1046336D02*
G03*
X1386123Y1065109I-16038J19178D01*
G01*
X1377741Y1041369D02*
G03*
X1391136Y1066099I-16605J24986D01*
G01*
X1386123Y1065109D02*
G03*
X1385208Y1083133I-134982J2184D01*
G01*
X1391136Y1066099D02*
G03*
X1390393Y1081744I-139995J1194D01*
G01*
X1398139Y1066566D02*
G03*
X1397607Y1079811I-146998J727D01*
G01*
X1403140Y1067651D02*
G03*
X1402732Y1078438I-152000J-358D01*
G01*
X1387337Y1149338D02*
G03*
X1335532Y1178376I-51395J-30961D01*
G01*
X1382955Y1142982D02*
G03*
X1340812Y1168070I-43360J-24898D01*
G01*
X1378081Y1141422D02*
G03*
X1342993Y1163571I-38859J-22692D01*
G01*
X1371783Y1138324D02*
G03*
X1347818Y1153044I-25852J-15221D01*
G01*
X1366947Y1136675D02*
G03*
X1349802Y1148454I-21446J-12849D01*
G01*
X1381541Y1102234D02*
G03*
X1366947Y1136675I-130400J-34941D01*
G01*
X1386370Y1103528D02*
G03*
X1371783Y1138324I-135230J-36235D01*
G01*
X1393132Y1105339D02*
G03*
X1378081Y1141422I-141991J-38046D01*
G01*
X1397961Y1106633D02*
G03*
X1382955Y1142982I-146821J-39341D01*
G01*
X1404723Y1108445D02*
G03*
X1387337Y1149338I-153582J-41152D01*
G01*
X1409553Y1109739D02*
G03*
X1392144Y1151044I-158412J-42446D01*
G01*
X1385208Y1083133D02*
G03*
X1381541Y1102234I-134067J-15841D01*
G01*
X1394117Y1101452D02*
G03*
X1393132Y1105339I-142976J-34159D01*
G01*
X1390393Y1081744D02*
G03*
X1386370Y1103528I-139252J-14451D01*
G01*
X1399583Y1099987D02*
G03*
X1397961Y1106633I-148442J-32694D01*
G01*
X1407156Y1097958D02*
G03*
X1404723Y1108445I-156015J-30665D01*
G01*
X1397607Y1079811D02*
G03*
X1394117Y1101452I-146466J-12518D01*
G01*
X1412515Y1096522D02*
G03*
X1409553Y1109739I-161374J-29229D01*
G01*
X1402732Y1078438D02*
G03*
X1399583Y1099987I-151591J-11145D01*
G01*
X1409872Y1076525D02*
G03*
X1407156Y1097958I-158732J-9232D01*
G01*
X1414952Y1075164D02*
G03*
X1412515Y1096522I-163811J-7871D01*
G01*
X1410113Y1064338D02*
G03*
X1409872Y1076525I-158973J2955D01*
G01*
X1415128Y1065264D02*
G03*
X1414952Y1075164I-163988J2029D01*
G01*
X1159783Y1008327D02*
G03*
X1158631Y1020884I-159783J-8327D01*
G01*
X1158184Y1061514D02*
G03*
X1140139Y1028464I10591J-27234D01*
G01*
X1142730Y1008777D02*
G03*
X1141777Y1018665I-142730J-8777D01*
G01*
D02*
G03*
X1140138Y1028464I-141777J-18665D01*
G01*
X1147801Y1007671D02*
G03*
X1146734Y1019318I-147801J-7671D01*
G01*
X1142730Y1008777D02*
G03*
X1168715Y981523I29166J1794D01*
G01*
X1146734Y1019318D02*
G03*
X1144750Y1030845I-146734J-19318D01*
G01*
X1147801Y1007671D02*
G03*
X1171439Y981827I27507J1428D01*
G01*
X1154792Y1008034D02*
G03*
X1153674Y1020232I-154792J-8034D01*
G01*
D02*
G03*
X1151597Y1032303I-153674J-20232D01*
G01*
X1154792Y1008034D02*
G03*
X1173965Y988598I20517J1065D01*
G01*
X1159783Y1008327D02*
G03*
X1179615Y988228I21221J1106D01*
G01*
X1165571Y1021798D02*
G03*
X1163340Y1034770I-165571J-21798D01*
G01*
X1160894Y1061926D02*
G03*
X1144750Y1030845I10796J-25341D01*
G01*
X1165086Y1056039D02*
G03*
X1151597Y1032303I6604J-19454D01*
G01*
X1170447Y1057859D02*
G03*
X1156494Y1033313I6831J-20122D01*
G01*
X1171787Y1049749D02*
G03*
X1167340Y1039767I4308J-7902D01*
G01*
X1168823Y1049207D02*
G03*
X1163340Y1034770I8455J-11471D01*
G01*
X1170528Y1022451D02*
G03*
X1167340Y1039767I-170529J-22451D01*
G01*
X1158631Y1020884D02*
G03*
X1156494Y1033313I-158631J-20884D01*
G01*
X1166774Y1008691D02*
G03*
X1165571Y1021798I-166774J-8691D01*
G01*
X1171930Y1004900D02*
G03*
X1170528Y1022451I-171930J-4900D01*
G01*
X1166774Y1008691D02*
G03*
X1175806Y996164I14231J742D01*
G01*
X1171930Y1004900D02*
G03*
X1178810Y996408I8996J256D01*
G01*
X1415128Y934736D02*
G03*
X1379910Y991710I-64995J-804D01*
G01*
X1335532Y821624D02*
G03*
X1387337Y850662I410J59999D01*
G01*
X1333156Y817224D02*
G03*
X1392144Y848956I3102J64926D01*
G01*
X1342994Y836429D02*
G03*
X1378081Y858578I-3771J44842D01*
G01*
X1340812Y831930D02*
G03*
X1382955Y857018I-1216J49985D01*
G01*
X1349802Y851546D02*
G03*
X1366947Y863325I-4301J24627D01*
G01*
X1347818Y846956D02*
G03*
X1371783Y861676I-1887J29941D01*
G01*
X1366947Y863325D02*
G03*
X1375167Y879392I-115806J69382D01*
G01*
X1371783Y861676D02*
G03*
X1378962Y875596I-120642J71031D01*
G01*
X1378081Y858578D02*
G03*
X1384243Y870315I-126941J74129D01*
G01*
X1382955Y857018D02*
G03*
X1387995Y866564I-131815J75689D01*
G01*
X1410113Y935662D02*
G03*
X1379768Y986712I-59990J-1115D01*
G01*
X1403140Y932349D02*
G03*
X1379186Y975147I-50000J118D01*
G01*
X1398139Y933434D02*
G03*
X1378826Y970160I-44999J-223D01*
G01*
X1391136Y933901D02*
G03*
X1377741Y958631I-29999J-256D01*
G01*
X1386123Y934891D02*
G03*
X1377164Y953664I-24997J-404D01*
G01*
X1381541Y897766D02*
G03*
X1386123Y934891I-130400J34941D01*
G01*
X1386370Y896472D02*
G03*
X1391136Y933901I-135230J36235D01*
G01*
X1393132Y894661D02*
G03*
X1398139Y933434I-141991J38046D01*
G01*
X1397961Y893367D02*
G03*
X1403140Y932349I-146821J39341D01*
G01*
X1404723Y891555D02*
G03*
X1410113Y935662I-153582J41152D01*
G01*
X1409553Y890261D02*
G03*
X1415128Y934736I-158412J42446D01*
G01*
X1375167Y879392D02*
G03*
X1381541Y897766I-124026J53315D01*
G01*
X1392041Y890802D02*
G03*
X1393132Y894661I-140900J41905D01*
G01*
X1378962Y875596D02*
G03*
X1386370Y896472I-127822J57111D01*
G01*
X1396043Y886800D02*
G03*
X1397961Y893367I-144902J45907D01*
G01*
X1401586Y881256D02*
G03*
X1404723Y891555I-150445J51451D01*
G01*
X1384243Y870315D02*
G03*
X1392041Y890802I-133103J62392D01*
G01*
X1405510Y877333D02*
G03*
X1409553Y890261I-154369J55374D01*
G01*
X1387995Y866564D02*
G03*
X1396043Y886800I-136854J66143D01*
G01*
X1393222Y861336D02*
G03*
X1401586Y881256I-142082J71371D01*
G01*
X1396941Y857618D02*
G03*
X1405510Y877333I-145800J75089D01*
G01*
X1387338Y850662D02*
G03*
X1393222Y861336I-136197J82045D01*
G01*
X1392144Y848956D02*
G03*
X1396941Y857618I-141003J83751D01*
G01*
X1142540Y927319D02*
G03*
X1147821Y938771I-142540J72681D01*
G01*
X1167749Y974181D02*
G03*
X1135595Y954581I-4445J-28881D01*
G01*
X1127997Y936236D02*
G03*
X1132115Y945276I-127997J63764D01*
G01*
D02*
G03*
X1135595Y954581I-132115J54724D01*
G01*
X1131835Y932743D02*
G03*
X1136734Y943363I-131835J67257D01*
G01*
X1127997Y936236D02*
G03*
X1136873Y899641I26155J-13030D01*
G01*
X1136734Y943363D02*
G03*
X1140780Y954337I-136734J56637D01*
G01*
X1131835Y932743D02*
G03*
X1139385Y898542I24536J-12517D01*
G01*
X1138070Y929562D02*
G03*
X1143201Y940684I-138070J70438D01*
G01*
D02*
G03*
X1147438Y952177I-143201J59316D01*
G01*
X1138070Y929562D02*
G03*
X1144957Y903143I18300J-9336D01*
G01*
X1142540Y927319D02*
G03*
X1149665Y899998I18931J-9653D01*
G01*
X1154288Y936092D02*
G03*
X1158842Y948441I-154288J63908D01*
G01*
X1170301Y973182D02*
G03*
X1140780Y954337I-3321J-27343D01*
G01*
X1170988Y965988D02*
G03*
X1147438Y952177I-4008J-20150D01*
G01*
X1176541Y964884D02*
G03*
X1152184Y950603I-4146J-20842D01*
G01*
X1173647Y957190D02*
G03*
X1164804Y950769I-220J-8997D01*
G01*
X1170809Y958203D02*
G03*
X1158842Y948441I1587J-14161D01*
G01*
X1158907Y934179D02*
G03*
X1164804Y950769I-158907J65821D01*
G01*
X1147821Y938771D02*
G03*
X1152184Y950603I-147821J61229D01*
G01*
X1148776Y924140D02*
G03*
X1154288Y936092I-148776J75860D01*
G01*
X1151346Y918278D02*
G03*
X1158907Y934179I-151346J81722D01*
G01*
X1148776Y924140D02*
G03*
X1150335Y908775I12695J-6473D01*
G01*
X1151346Y918278D02*
G03*
X1153058Y907484I7919J-4276D01*
G01*
X1326879Y735916D02*
G03*
X1324866Y802866I-56689J31801D01*
G01*
X1201391Y677755D02*
G03*
X1260775Y677001I30355J51755D01*
G01*
X1197134Y675134D02*
G03*
X1264084Y673120I35150J54676D01*
G01*
X1215256Y686847D02*
G03*
X1256717Y688484I19155J40720D01*
G01*
X1211117Y684042D02*
G03*
X1260158Y684696I23939J43897D01*
G01*
X1228710Y696534D02*
G03*
X1249448Y698162I8589J23478D01*
G01*
X1224698Y693551D02*
G03*
X1252812Y694316I13336J26873D01*
G01*
X1249448Y698162D02*
G03*
X1264600Y707967I-65600J117990D01*
G01*
X1252812Y694316D02*
G03*
X1265989Y702782I-68964J121836D01*
G01*
X1256717Y688485D02*
G03*
X1267922Y695568I-72870J127668D01*
G01*
X1260158Y684696D02*
G03*
X1269295Y690443I-76310J131456D01*
G01*
X1323000Y739225D02*
G03*
X1322245Y798609I-52510J29029D01*
G01*
X1315304Y739842D02*
G03*
X1315958Y788883I-43242J25102D01*
G01*
X1311516Y743283D02*
G03*
X1313153Y784744I-39082J22307D01*
G01*
X1305684Y747188D02*
G03*
X1306449Y775302I-26108J14778D01*
G01*
X1301838Y750552D02*
G03*
X1303466Y771290I-21850J12148D01*
G01*
X1279307Y720693D02*
G03*
X1301838Y750552I-95459J95459D01*
G01*
X1282843Y717157D02*
G03*
X1305684Y747188I-98995J98995D01*
G01*
X1287792Y712208D02*
G03*
X1311516Y743283I-103945J103945D01*
G01*
X1291328Y708672D02*
G03*
X1315304Y739842I-107480J107480D01*
G01*
X1296278Y703722D02*
G03*
X1323000Y739225I-112430J112430D01*
G01*
X1299813Y700187D02*
G03*
X1326879Y735916I-115965J115965D01*
G01*
X1264600Y707967D02*
G03*
X1279307Y720693I-80752J108186D01*
G01*
X1284918Y709411D02*
G03*
X1287792Y712208I-101071J106741D01*
G01*
X1265989Y702782D02*
G03*
X1282843Y717157I-82141J113370D01*
G01*
X1286383Y703945D02*
G03*
X1291328Y708672I-102535J112207D01*
G01*
X1288412Y696372D02*
G03*
X1296278Y703722I-104564J119780D01*
G01*
X1267922Y695568D02*
G03*
X1284918Y709411I-84074J120584D01*
G01*
X1289848Y691013D02*
G03*
X1299813Y700187I-106000J125140D01*
G01*
X1269295Y690443D02*
G03*
X1286383Y703945I-85447J125709D01*
G01*
X1271209Y683302D02*
G03*
X1288412Y696372I-87361J132850D01*
G01*
X1272570Y678223D02*
G03*
X1289848Y691013I-88722J137929D01*
G01*
X1260775Y677001D02*
G03*
X1271209Y683302I-76927J139152D01*
G01*
X1264084Y673120D02*
G03*
X1272570Y678223I-80237J143032D01*
G01*
X1087103Y865787D02*
G03*
X1097402Y873064I-87103J134213D01*
G01*
X1132365Y893766D02*
G03*
X1094720Y892868I-18290J-22789D01*
G01*
X1078966Y880780D02*
G03*
X1087053Y886551I-78966J119220D01*
G01*
D02*
G03*
X1094720Y892868I-87053J113449D01*
G01*
X1080544Y875836D02*
G03*
X1090097Y882584I-80544J124164D01*
G01*
X1078966Y880780D02*
G03*
X1068356Y844650I16136J-24362D01*
G01*
X1090097Y882584D02*
G03*
X1099087Y890065I-90097J117416D01*
G01*
X1080544Y875836D02*
G03*
X1069982Y842443I14990J-23108D01*
G01*
X1084353Y869963D02*
G03*
X1094358Y877030I-84353J130037D01*
G01*
D02*
G03*
X1103774Y884865I-94358J122970D01*
G01*
X1084353Y869963D02*
G03*
X1077108Y843641I11180J-17235D01*
G01*
X1087103Y865787D02*
G03*
X1079612Y838563I11568J-17825D01*
G01*
X1101663Y867510D02*
G03*
X1111782Y875928I-101663J132490D01*
G01*
X1134076Y891624D02*
G03*
X1099087Y890065I-16548J-22019D01*
G01*
X1131074Y885051D02*
G03*
X1103774Y884865I-13546J-15446D01*
G01*
X1135331Y881318D02*
G03*
X1107096Y881129I-14011J-15977D01*
G01*
X1128978Y876102D02*
G03*
X1118109Y874963I-4689J-7682D01*
G01*
X1127026Y878399D02*
G03*
X1111782Y875928I-5706J-13058D01*
G01*
X1104707Y863543D02*
G03*
X1118109Y874963I-104707J136457D01*
G01*
X1097402Y873064D02*
G03*
X1107096Y881129I-97402J126936D01*
G01*
X1090913Y859915D02*
G03*
X1101663Y867510I-90913J140085D01*
G01*
X1090208Y853554D02*
G03*
X1104707Y863543I-90208J146446D01*
G01*
X1090913Y859915D02*
G03*
X1084581Y845830I7758J-11953D01*
G01*
X1090208Y853554D02*
G03*
X1086294Y843350I4720J-7663D01*
G01*
X1151044Y607856D02*
G03*
X1182776Y666844I-33194J55885D01*
G01*
X1013288Y620232D02*
G03*
X1064338Y589887I52165J29644D01*
G01*
X1008290Y620090D02*
G03*
X1065264Y584872I57779J29776D01*
G01*
X1029840Y621173D02*
G03*
X1066566Y601861I36948J25687D01*
G01*
X1024853Y620814D02*
G03*
X1067651Y596860I42680J26046D01*
G01*
X1046336Y622836D02*
G03*
X1065109Y613877I19178J16038D01*
G01*
X1041369Y622259D02*
G03*
X1066099Y608864I24986J16605D01*
G01*
X1065109Y613877D02*
G03*
X1083133Y614792I2184J134982D01*
G01*
X1066099Y608864D02*
G03*
X1081744Y609607I1194J139995D01*
G01*
X1066566Y601861D02*
G03*
X1079811Y602393I727J146998D01*
G01*
X1067651Y596860D02*
G03*
X1078438Y597268I-358J152000D01*
G01*
X1149338Y612663D02*
G03*
X1178376Y664468I-30961J51395D01*
G01*
X1142982Y617045D02*
G03*
X1168070Y659188I-24898J43360D01*
G01*
X1141422Y621919D02*
G03*
X1163571Y657007I-22692J38859D01*
G01*
X1138324Y628217D02*
G03*
X1153044Y652182I-15221J25852D01*
G01*
X1136675Y633053D02*
G03*
X1148454Y650198I-12849J21446D01*
G01*
X1102234Y618459D02*
G03*
X1136675Y633053I-34941J130400D01*
G01*
X1103528Y613630D02*
G03*
X1138324Y628217I-36235J135230D01*
G01*
X1105339Y606868D02*
G03*
X1141422Y621919I-38046J141991D01*
G01*
X1106633Y602039D02*
G03*
X1142982Y617045I-39341J146821D01*
G01*
X1108445Y595277D02*
G03*
X1149338Y612663I-41152J153582D01*
G01*
X1109739Y590448D02*
G03*
X1151044Y607856I-42446J158412D01*
G01*
X1083133Y614792D02*
G03*
X1102234Y618459I-15841J134067D01*
G01*
X1101452Y605883D02*
G03*
X1105339Y606868I-34159J142976D01*
G01*
X1081744Y609607D02*
G03*
X1103528Y613630I-14451J139252D01*
G01*
X1099987Y600417D02*
G03*
X1106633Y602039I-32694J148442D01*
G01*
X1097958Y592844D02*
G03*
X1108445Y595277I-30665J156015D01*
G01*
X1079811Y602393D02*
G03*
X1101452Y605883I-12518J146466D01*
G01*
X1096522Y587485D02*
G03*
X1109739Y590448I-29229J161374D01*
G01*
X1078438Y597268D02*
G03*
X1099987Y600417I-11145J151591D01*
G01*
X1076525Y590127D02*
G03*
X1097958Y592844I-9232J158732D01*
G01*
X1075164Y585048D02*
G03*
X1096522Y587485I-7871J163811D01*
G01*
X1064338Y589887D02*
G03*
X1076525Y590127I2955J158973D01*
G01*
X1065264Y584872D02*
G03*
X1075164Y585048I2029J163988D01*
G01*
X1008327Y840217D02*
G03*
X1020884Y841369I-8327J159783D01*
G01*
X1061514Y841816D02*
G03*
X1028464Y859861I-27234J-10591D01*
G01*
X1008777Y857270D02*
G03*
X1018665Y858223I-8777J142730D01*
G01*
D02*
G03*
X1028464Y859862I-18665J141777D01*
G01*
X1007671Y852199D02*
G03*
X1019318Y853266I-7671J147801D01*
G01*
X1008777Y857270D02*
G03*
X981523Y831285I1794J-29166D01*
G01*
X1019318Y853266D02*
G03*
X1030845Y855250I-19318J146734D01*
G01*
X1007671Y852199D02*
G03*
X981827Y828561I1428J-27507D01*
G01*
X1008034Y845208D02*
G03*
X1020232Y846326I-8034J154792D01*
G01*
D02*
G03*
X1032303Y848404I-20232J153674D01*
G01*
X1008034Y845208D02*
G03*
X988598Y826035I1065J-20517D01*
G01*
X1008327Y840217D02*
G03*
X988228Y820385I1106J-21221D01*
G01*
X1021798Y834429D02*
G03*
X1034770Y836660I-21798J165571D01*
G01*
X1061926Y839106D02*
G03*
X1030845Y855250I-25341J-10796D01*
G01*
X1056039Y834914D02*
G03*
X1032303Y848403I-19454J-6604D01*
G01*
X1057859Y829553D02*
G03*
X1033313Y843506I-20122J-6831D01*
G01*
X1049749Y828213D02*
G03*
X1039767Y832660I-7902J-4308D01*
G01*
X1049207Y831177D02*
G03*
X1034770Y836660I-11471J-8455D01*
G01*
X1022451Y829472D02*
G03*
X1039767Y832660I-22451J170529D01*
G01*
X1020884Y841369D02*
G03*
X1033313Y843506I-20884J158631D01*
G01*
X1008691Y833226D02*
G03*
X1021798Y834429I-8691J166774D01*
G01*
X1004900Y828070D02*
G03*
X1022451Y829472I-4900J171930D01*
G01*
X1008691Y833226D02*
G03*
X996164Y824194I742J-14231D01*
G01*
X1004900Y828070D02*
G03*
X996408Y821190I256J-8996D01*
G01*
X934736Y584872D02*
G03*
X991710Y620090I-804J64995D01*
G01*
X821624Y664468D02*
G03*
X850662Y612663I59999J-410D01*
G01*
X817224Y666844D02*
G03*
X848956Y607856I64926J-3102D01*
G01*
X836429Y657007D02*
G03*
X858578Y621919I44842J3771D01*
G01*
X831930Y659188D02*
G03*
X857018Y617045I49985J1216D01*
G01*
X851546Y650198D02*
G03*
X863325Y633053I24627J4301D01*
G01*
X846956Y652182D02*
G03*
X861676Y628217I29941J1887D01*
G01*
X863325Y633053D02*
G03*
X879392Y624833I69382J115806D01*
G01*
X861676Y628217D02*
G03*
X875596Y621038I71031J120642D01*
G01*
X858578Y621919D02*
G03*
X870315Y615757I74129J126941D01*
G01*
X857018Y617044D02*
G03*
X866564Y612005I75689J131815D01*
G01*
X935662Y589887D02*
G03*
X986712Y620232I-1115J59990D01*
G01*
X932349Y596860D02*
G03*
X975147Y620814I118J50000D01*
G01*
X933434Y601861D02*
G03*
X970160Y621174I-223J44999D01*
G01*
X933901Y608864D02*
G03*
X958631Y622259I-256J29999D01*
G01*
X934891Y613877D02*
G03*
X953664Y622836I-404J24997D01*
G01*
X897766Y618459D02*
G03*
X934891Y613877I34941J130400D01*
G01*
X896472Y613630D02*
G03*
X933901Y608864I36235J135230D01*
G01*
X894661Y606868D02*
G03*
X933434Y601861I38046J141991D01*
G01*
X893367Y602038D02*
G03*
X932349Y596860I39341J146821D01*
G01*
X891555Y595277D02*
G03*
X935662Y589887I41152J153582D01*
G01*
X890261Y590447D02*
G03*
X934736Y584872I42446J158412D01*
G01*
X879392Y624833D02*
G03*
X897766Y618459I53315J124026D01*
G01*
X890802Y607959D02*
G03*
X894661Y606868I41905J140900D01*
G01*
X875596Y621038D02*
G03*
X896472Y613630I57111J127822D01*
G01*
X886800Y603957D02*
G03*
X893367Y602038I45907J144902D01*
G01*
X881256Y598414D02*
G03*
X891555Y595277I51451J150445D01*
G01*
X870315Y615757D02*
G03*
X890802Y607959I62392J133103D01*
G01*
X877333Y594490D02*
G03*
X890261Y590447I55374J154369D01*
G01*
X866564Y612005D02*
G03*
X886800Y603957I66143J136854D01*
G01*
X861336Y606778D02*
G03*
X881256Y598414I71371J142082D01*
G01*
X857618Y603059D02*
G03*
X877333Y594490I75089J145800D01*
G01*
X850662Y612663D02*
G03*
X861336Y606778I82045J136197D01*
G01*
X848956Y607856D02*
G03*
X857618Y603059I83751J141003D01*
G01*
X927319Y857460D02*
G03*
X938771Y852179I72681J142540D01*
G01*
X974181Y832251D02*
G03*
X954581Y864405I-28881J4445D01*
G01*
X936236Y872003D02*
G03*
X945276Y867885I63764J127997D01*
G01*
D02*
G03*
X954581Y864405I54724J132115D01*
G01*
X932743Y868165D02*
G03*
X943363Y863266I67257J131835D01*
G01*
X936236Y872003D02*
G03*
X899641Y863127I-13030J-26155D01*
G01*
X943363Y863266D02*
G03*
X954337Y859220I56637J136734D01*
G01*
X932743Y868165D02*
G03*
X898542Y860615I-12517J-24536D01*
G01*
X929562Y861930D02*
G03*
X940684Y856799I70438J138070D01*
G01*
D02*
G03*
X952177Y852562I59316J143201D01*
G01*
X929562Y861930D02*
G03*
X903143Y855043I-9336J-18300D01*
G01*
X927319Y857460D02*
G03*
X899998Y850335I-9653J-18931D01*
G01*
X936092Y845712D02*
G03*
X948441Y841158I63908J154288D01*
G01*
X973182Y829699D02*
G03*
X954337Y859220I-27343J3321D01*
G01*
X965988Y829012D02*
G03*
X952177Y852562I-20150J4008D01*
G01*
X964884Y823459D02*
G03*
X950603Y847816I-20842J4146D01*
G01*
X957190Y826353D02*
G03*
X950769Y835196I-8997J220D01*
G01*
X958203Y829191D02*
G03*
X948441Y841158I-14161J-1587D01*
G01*
X934179Y841093D02*
G03*
X950769Y835196I65821J158907D01*
G01*
X938771Y852179D02*
G03*
X950603Y847816I61229J147821D01*
G01*
X924140Y851224D02*
G03*
X936092Y845712I75860J148776D01*
G01*
X918278Y848654D02*
G03*
X934179Y841093I81722J151346D01*
G01*
X924140Y851224D02*
G03*
X908775Y849665I-6473J-12695D01*
G01*
X918278Y848654D02*
G03*
X907484Y846942I-4276J-7919D01*
G01*
X735916Y673120D02*
G03*
X802866Y675134I31801J56689D01*
G01*
X677755Y798609D02*
G03*
X677001Y739225I51755J-30355D01*
G01*
X675134Y802866D02*
G03*
X673120Y735916I54676J-35150D01*
G01*
X686847Y784744D02*
G03*
X688484Y743283I40720J-19155D01*
G01*
X684042Y788883D02*
G03*
X684696Y739842I43897J-23939D01*
G01*
X696534Y771290D02*
G03*
X698162Y750552I23478J-8589D01*
G01*
X693551Y775302D02*
G03*
X694316Y747188I26873J-13336D01*
G01*
X698162Y750552D02*
G03*
X707967Y735400I117990J65600D01*
G01*
X694316Y747188D02*
G03*
X702782Y734011I121836J68964D01*
G01*
X688485Y743283D02*
G03*
X695568Y732078I127668J72870D01*
G01*
X684696Y739842D02*
G03*
X690443Y730705I131456J76310D01*
G01*
X739225Y677001D02*
G03*
X798609Y677755I29029J52510D01*
G01*
X739842Y684696D02*
G03*
X788883Y684042I25102J43242D01*
G01*
X743283Y688485D02*
G03*
X784744Y686847I22307J39082D01*
G01*
X747188Y694316D02*
G03*
X775302Y693551I14778J26108D01*
G01*
X750552Y698162D02*
G03*
X771290Y696534I12148J21850D01*
G01*
X720693Y720693D02*
G03*
X750552Y698162I95459J95459D01*
G01*
X717157Y717157D02*
G03*
X747188Y694316I98995J98995D01*
G01*
X712208Y712208D02*
G03*
X743283Y688485I103945J103945D01*
G01*
X708672Y708672D02*
G03*
X739842Y684696I107480J107480D01*
G01*
X703722Y703722D02*
G03*
X739225Y677001I112430J112430D01*
G01*
X700187Y700187D02*
G03*
X735916Y673120I115965J115965D01*
G01*
X707967Y735400D02*
G03*
X720693Y720693I108186J80752D01*
G01*
X709411Y715082D02*
G03*
X712208Y712208I106741J101071D01*
G01*
X702782Y734011D02*
G03*
X717157Y717157I113370J82141D01*
G01*
X703945Y713617D02*
G03*
X708672Y708672I112207J102535D01*
G01*
X696372Y711588D02*
G03*
X703722Y703722I119780J104564D01*
G01*
X695568Y732078D02*
G03*
X709411Y715082I120584J84074D01*
G01*
X691013Y710152D02*
G03*
X700187Y700187I125140J106000D01*
G01*
X690443Y730705D02*
G03*
X703945Y713617I125709J85447D01*
G01*
X683302Y728791D02*
G03*
X696372Y711588I132850J87361D01*
G01*
X678223Y727430D02*
G03*
X691013Y710152I137929J88722D01*
G01*
X677001Y739225D02*
G03*
X683302Y728791I139152J76927D01*
G01*
X673120Y735916D02*
G03*
X678223Y727430I143032J80237D01*
G01*
X865787Y912897D02*
G03*
X873064Y902598I134213J87103D01*
G01*
X893766Y867635D02*
G03*
X892868Y905280I-22789J18290D01*
G01*
X880780Y921034D02*
G03*
X886551Y912947I119220J78966D01*
G01*
D02*
G03*
X892868Y905280I113449J87053D01*
G01*
X875836Y919456D02*
G03*
X882584Y909903I124164J80544D01*
G01*
X880780Y921034D02*
G03*
X844650Y931644I-24362J-16136D01*
G01*
X882584Y909903D02*
G03*
X890065Y900913I117416J90097D01*
G01*
X875836Y919456D02*
G03*
X842443Y930018I-23108J-14990D01*
G01*
X869963Y915647D02*
G03*
X877030Y905642I130037J84353D01*
G01*
D02*
G03*
X884865Y896226I122970J94358D01*
G01*
X869963Y915647D02*
G03*
X843641Y922892I-17235J-11180D01*
G01*
X865787Y912897D02*
G03*
X838563Y920388I-17825J-11568D01*
G01*
X867510Y898337D02*
G03*
X875928Y888218I132490J101663D01*
G01*
X891624Y865924D02*
G03*
X890065Y900913I-22019J16548D01*
G01*
X885051Y868926D02*
G03*
X884865Y896226I-15446J13546D01*
G01*
X881318Y864669D02*
G03*
X881129Y892904I-15977J14011D01*
G01*
X876102Y871022D02*
G03*
X874963Y881891I-7682J4689D01*
G01*
X878399Y872974D02*
G03*
X875928Y888218I-13058J5706D01*
G01*
X863543Y895293D02*
G03*
X874963Y881891I136457J104707D01*
G01*
X873064Y902598D02*
G03*
X881129Y892904I126936J97402D01*
G01*
X859915Y909087D02*
G03*
X867510Y898337I140085J90913D01*
G01*
X853554Y909792D02*
G03*
X863543Y895293I146446J90208D01*
G01*
X859915Y909087D02*
G03*
X845830Y915419I-11953J-7758D01*
G01*
X853554Y909792D02*
G03*
X843350Y913706I-7663J-4720D01*
G01*
X607856Y848956D02*
G03*
X666844Y817224I55885J33194D01*
G01*
X620232Y986712D02*
G03*
X589887Y935662I29644J-52165D01*
G01*
X620090Y991710D02*
G03*
X584872Y934736I29776J-57779D01*
G01*
X621173Y970160D02*
G03*
X601861Y933434I25687J-36948D01*
G01*
X620814Y975147D02*
G03*
X596860Y932349I26046J-42680D01*
G01*
X622836Y953664D02*
G03*
X613877Y934891I16038J-19178D01*
G01*
X622259Y958631D02*
G03*
X608864Y933901I16605J-24986D01*
G01*
X613877Y934891D02*
G03*
X614792Y916867I134982J-2184D01*
G01*
X608864Y933901D02*
G03*
X609607Y918256I139995J-1194D01*
G01*
X601861Y933434D02*
G03*
X602393Y920189I146998J-727D01*
G01*
X596860Y932349D02*
G03*
X597268Y921562I152000J358D01*
G01*
X612663Y850662D02*
G03*
X664468Y821624I51395J30961D01*
G01*
X617045Y857018D02*
G03*
X659188Y831930I43360J24898D01*
G01*
X621919Y858578D02*
G03*
X657007Y836429I38859J22692D01*
G01*
X628217Y861676D02*
G03*
X652182Y846956I25852J15221D01*
G01*
X633053Y863325D02*
G03*
X650198Y851546I21446J12849D01*
G01*
X618459Y897766D02*
G03*
X633053Y863325I130400J34941D01*
G01*
X613630Y896472D02*
G03*
X628217Y861676I135230J36235D01*
G01*
X606868Y894661D02*
G03*
X621919Y858578I141991J38046D01*
G01*
X602039Y893367D02*
G03*
X617045Y857018I146821J39341D01*
G01*
X595277Y891555D02*
G03*
X612663Y850662I153582J41152D01*
G01*
X590448Y890261D02*
G03*
X607856Y848956I158412J42446D01*
G01*
X614792Y916867D02*
G03*
X618459Y897766I134067J15841D01*
G01*
X605883Y898548D02*
G03*
X606868Y894661I142976J34159D01*
G01*
X609607Y918256D02*
G03*
X613630Y896472I139252J14451D01*
G01*
X600417Y900013D02*
G03*
X602039Y893367I148442J32694D01*
G01*
X592844Y902042D02*
G03*
X595277Y891555I156015J30665D01*
G01*
X602393Y920189D02*
G03*
X605883Y898548I146466J12518D01*
G01*
X587485Y903478D02*
G03*
X590448Y890261I161374J29229D01*
G01*
X597268Y921562D02*
G03*
X600417Y900013I151591J11145D01*
G01*
X590127Y923475D02*
G03*
X592844Y902042I158732J9232D01*
G01*
X585048Y924836D02*
G03*
X587485Y903478I163811J7871D01*
G01*
X589887Y935662D02*
G03*
X590127Y923475I158973J-2955D01*
G01*
X584872Y934736D02*
G03*
X585048Y924836I163988J-2029D01*
G01*
X840217Y991673D02*
G03*
X841369Y979116I159783J8327D01*
G01*
X841816Y938486D02*
G03*
X859861Y971536I-10591J27234D01*
G01*
X857270Y991223D02*
G03*
X858223Y981335I142730J8777D01*
G01*
D02*
G03*
X859862Y971536I141777J18665D01*
G01*
X852199Y992329D02*
G03*
X853266Y980682I147801J7671D01*
G01*
X857270Y991223D02*
G03*
X831285Y1018477I-29166J-1794D01*
G01*
X853266Y980682D02*
G03*
X855250Y969155I146734J19318D01*
G01*
X852199Y992329D02*
G03*
X828561Y1018173I-27507J-1428D01*
G01*
X845208Y991966D02*
G03*
X846326Y979768I154792J8034D01*
G01*
D02*
G03*
X848404Y967697I153674J20232D01*
G01*
X845208Y991966D02*
G03*
X826035Y1011402I-20517J-1065D01*
G01*
X840217Y991673D02*
G03*
X820385Y1011772I-21221J-1106D01*
G01*
X834429Y978202D02*
G03*
X836660Y965230I165571J21798D01*
G01*
X839106Y938074D02*
G03*
X855250Y969155I-10796J25341D01*
G01*
X834914Y943961D02*
G03*
X848403Y967697I-6604J19454D01*
G01*
X829553Y942141D02*
G03*
X843506Y966687I-6831J20122D01*
G01*
X828213Y950251D02*
G03*
X832660Y960233I-4308J7902D01*
G01*
X831177Y950793D02*
G03*
X836660Y965230I-8455J11471D01*
G01*
X829472Y977549D02*
G03*
X832660Y960233I170529J22451D01*
G01*
X841369Y979116D02*
G03*
X843506Y966687I158631J20884D01*
G01*
X833226Y991309D02*
G03*
X834429Y978202I166774J8691D01*
G01*
X828070Y995100D02*
G03*
X829472Y977549I171930J4900D01*
G01*
X833226Y991309D02*
G03*
X824194Y1003836I-14231J-742D01*
G01*
X828070Y995100D02*
G03*
X821190Y1003592I-8996J-256D01*
G01*
X584872Y1065264D02*
G03*
X620090Y1008290I64995J804D01*
G01*
X664468Y1178376D02*
G03*
X612663Y1149338I-410J-59999D01*
G01*
X666844Y1182776D02*
G03*
X607856Y1151044I-3102J-64926D01*
G01*
X657007Y1163571D02*
G03*
X621919Y1141422I3771J-44842D01*
G01*
X659188Y1168070D02*
G03*
X617045Y1142982I1216J-49985D01*
G01*
X650198Y1148454D02*
G03*
X633053Y1136675I4301J-24627D01*
G01*
X652182Y1153044D02*
G03*
X628217Y1138324I1887J-29941D01*
G01*
X633053Y1136675D02*
G03*
X624833Y1120608I115806J-69382D01*
G01*
X628217Y1138324D02*
G03*
X621038Y1124404I120642J-71031D01*
G01*
X621919Y1141422D02*
G03*
X615757Y1129685I126941J-74129D01*
G01*
X617044Y1142982D02*
G03*
X612005Y1133436I131815J-75689D01*
G01*
X589887Y1064338D02*
G03*
X620232Y1013288I59990J1115D01*
G01*
X596860Y1067651D02*
G03*
X620814Y1024853I50000J-118D01*
G01*
X601861Y1066566D02*
G03*
X621174Y1029840I44999J223D01*
G01*
X608864Y1066099D02*
G03*
X622259Y1041369I29999J256D01*
G01*
X613877Y1065109D02*
G03*
X622836Y1046336I24997J404D01*
G01*
X618459Y1102234D02*
G03*
X613877Y1065109I130400J-34941D01*
G01*
X613630Y1103528D02*
G03*
X608864Y1066099I135230J-36235D01*
G01*
X606868Y1105339D02*
G03*
X601861Y1066566I141991J-38046D01*
G01*
X602038Y1106633D02*
G03*
X596860Y1067651I146821J-39341D01*
G01*
X595277Y1108445D02*
G03*
X589887Y1064338I153582J-41152D01*
G01*
X590447Y1109739D02*
G03*
X584872Y1065264I158412J-42446D01*
G01*
X624833Y1120608D02*
G03*
X618459Y1102234I124026J-53315D01*
G01*
X607959Y1109198D02*
G03*
X606868Y1105339I140900J-41905D01*
G01*
X621038Y1124404D02*
G03*
X613630Y1103528I127822J-57111D01*
G01*
X603957Y1113200D02*
G03*
X602038Y1106633I144902J-45907D01*
G01*
X598414Y1118744D02*
G03*
X595277Y1108445I150445J-51451D01*
G01*
X615757Y1129685D02*
G03*
X607959Y1109198I133103J-62392D01*
G01*
X594490Y1122667D02*
G03*
X590447Y1109739I154369J-55374D01*
G01*
X612005Y1133436D02*
G03*
X603957Y1113200I136854J-66143D01*
G01*
X606778Y1138664D02*
G03*
X598414Y1118744I142082J-71371D01*
G01*
X603059Y1142382D02*
G03*
X594490Y1122667I145800J-75089D01*
G01*
X612663Y1149338D02*
G03*
X606778Y1138664I136197J-82045D01*
G01*
X607856Y1151044D02*
G03*
X603059Y1142382I141003J-83751D01*
G01*
X857460Y1072681D02*
G03*
X852179Y1061229I142540J-72681D01*
G01*
X832251Y1025819D02*
G03*
X864405Y1045419I4445J28881D01*
G01*
X872003Y1063764D02*
G03*
X867885Y1054724I127997J-63764D01*
G01*
D02*
G03*
X864405Y1045419I132115J-54724D01*
G01*
X868165Y1067257D02*
G03*
X863266Y1056637I131835J-67257D01*
G01*
X872003Y1063764D02*
G03*
X863127Y1100359I-26155J13030D01*
G01*
X863266Y1056637D02*
G03*
X859220Y1045663I136734J-56637D01*
G01*
X868165Y1067257D02*
G03*
X860615Y1101458I-24536J12517D01*
G01*
X861930Y1070438D02*
G03*
X856799Y1059316I138070J-70438D01*
G01*
D02*
G03*
X852562Y1047823I143201J-59316D01*
G01*
X861930Y1070438D02*
G03*
X855043Y1096857I-18300J9336D01*
G01*
X857460Y1072681D02*
G03*
X850335Y1100002I-18931J9653D01*
G01*
X845712Y1063908D02*
G03*
X841158Y1051559I154288J-63908D01*
G01*
X829699Y1026818D02*
G03*
X859220Y1045663I3321J27343D01*
G01*
X829012Y1034012D02*
G03*
X852562Y1047823I4008J20150D01*
G01*
X823459Y1035116D02*
G03*
X847816Y1049397I4146J20842D01*
G01*
X826353Y1042810D02*
G03*
X835196Y1049231I220J8997D01*
G01*
X829191Y1041797D02*
G03*
X841158Y1051559I-1587J14161D01*
G01*
X841093Y1065821D02*
G03*
X835196Y1049231I158907J-65821D01*
G01*
X852179Y1061229D02*
G03*
X847816Y1049397I147821J-61229D01*
G01*
X851224Y1075860D02*
G03*
X845712Y1063908I148776J-75860D01*
G01*
X848654Y1081722D02*
G03*
X841093Y1065821I151346J-81722D01*
G01*
X851224Y1075860D02*
G03*
X849665Y1091225I-12695J6473D01*
G01*
X848654Y1081722D02*
G03*
X846942Y1092516I-7919J4276D01*
G01*
X673120Y1264084D02*
G03*
X675134Y1197134I56689J-31801D01*
G01*
X798609Y1322245D02*
G03*
X739225Y1323000I-30355J-51755D01*
G01*
X802866Y1324866D02*
G03*
X735916Y1326879I-35150J-54676D01*
G01*
X784744Y1313153D02*
G03*
X743283Y1311516I-19155J-40720D01*
G01*
X788883Y1315959D02*
G03*
X739842Y1315304I-23939J-43897D01*
G01*
X771290Y1303466D02*
G03*
X750552Y1301838I-8589J-23478D01*
G01*
X775302Y1306449D02*
G03*
X747188Y1305684I-13336J-26873D01*
G01*
X750552Y1301838D02*
G03*
X735400Y1292033I65600J-117990D01*
G01*
X747188Y1305684D02*
G03*
X734011Y1297218I68964J-121836D01*
G01*
X743283Y1311516D02*
G03*
X732078Y1304432I72870J-127668D01*
G01*
X739842Y1315304D02*
G03*
X730705Y1309557I76310J-131456D01*
G01*
X677001Y1260775D02*
G03*
X677755Y1201391I52510J-29029D01*
G01*
X684696Y1260158D02*
G03*
X684042Y1211117I43242J-25102D01*
G01*
X688485Y1256717D02*
G03*
X686847Y1215256I39082J-22307D01*
G01*
X694316Y1252812D02*
G03*
X693551Y1224698I26108J-14778D01*
G01*
X698162Y1249448D02*
G03*
X696534Y1228710I21850J-12148D01*
G01*
X720693Y1279307D02*
G03*
X698162Y1249448I95459J-95459D01*
G01*
X717157Y1282843D02*
G03*
X694316Y1252812I98995J-98995D01*
G01*
X712208Y1287792D02*
G03*
X688485Y1256717I103945J-103945D01*
G01*
X708672Y1291328D02*
G03*
X684696Y1260158I107480J-107480D01*
G01*
X703722Y1296278D02*
G03*
X677001Y1260775I112430J-112430D01*
G01*
X700187Y1299813D02*
G03*
X673120Y1264084I115965J-115965D01*
G01*
X735400Y1292033D02*
G03*
X720693Y1279307I80752J-108186D01*
G01*
X715082Y1290589D02*
G03*
X712208Y1287792I101071J-106741D01*
G01*
X734011Y1297218D02*
G03*
X717157Y1282843I82141J-113370D01*
G01*
X713617Y1296055D02*
G03*
X708672Y1291328I102535J-112207D01*
G01*
X711588Y1303628D02*
G03*
X703722Y1296278I104564J-119780D01*
G01*
X732078Y1304432D02*
G03*
X715082Y1290589I84074J-120584D01*
G01*
X710152Y1308987D02*
G03*
X700187Y1299813I106000J-125140D01*
G01*
X730705Y1309557D02*
G03*
X713617Y1296055I85447J-125709D01*
G01*
X728791Y1316698D02*
G03*
X711588Y1303628I87361J-132850D01*
G01*
X727430Y1321777D02*
G03*
X710152Y1308987I88722J-137929D01*
G01*
X739225Y1323000D02*
G03*
X728791Y1316698I76927J-139152D01*
G01*
X735916Y1326879D02*
G03*
X727430Y1321777I80237J-143032D01*
G01*
X912897Y1134213D02*
G03*
X902598Y1126936I87103J-134213D01*
G01*
X867635Y1106234D02*
G03*
X905280Y1107132I18290J22789D01*
G01*
X921034Y1119220D02*
G03*
X912947Y1113449I78966J-119220D01*
G01*
D02*
G03*
X905280Y1107132I87053J-113449D01*
G01*
X919456Y1124164D02*
G03*
X909903Y1117416I80544J-124164D01*
G01*
X921034Y1119220D02*
G03*
X931644Y1155350I-16136J24362D01*
G01*
X909903Y1117416D02*
G03*
X900913Y1109935I90097J-117416D01*
G01*
X919456Y1124164D02*
G03*
X930018Y1157557I-14990J23108D01*
G01*
X915647Y1130037D02*
G03*
X905642Y1122970I84353J-130037D01*
G01*
D02*
G03*
X896226Y1115135I94358J-122970D01*
G01*
X915647Y1130037D02*
G03*
X922892Y1156359I-11180J17235D01*
G01*
X912897Y1134213D02*
G03*
X920388Y1161437I-11568J17825D01*
G01*
X898337Y1132490D02*
G03*
X888218Y1124072I101663J-132490D01*
G01*
X865924Y1108376D02*
G03*
X900913Y1109935I16548J22019D01*
G01*
X868926Y1114949D02*
G03*
X896226Y1115135I13546J15446D01*
G01*
X864669Y1118682D02*
G03*
X892904Y1118871I14011J15977D01*
G01*
X871022Y1123898D02*
G03*
X881891Y1125037I4689J7682D01*
G01*
X872974Y1121601D02*
G03*
X888218Y1124072I5706J13058D01*
G01*
X895293Y1136457D02*
G03*
X881891Y1125037I104707J-136457D01*
G01*
X902598Y1126936D02*
G03*
X892904Y1118871I97402J-126936D01*
G01*
X909087Y1140085D02*
G03*
X898337Y1132490I90913J-140085D01*
G01*
X909792Y1146446D02*
G03*
X895293Y1136457I90208J-146446D01*
G01*
X909087Y1140085D02*
G03*
X915419Y1154170I-7758J11953D01*
G01*
X909792Y1146446D02*
G03*
X913706Y1156650I-4720J7663D01*
G01*
X848956Y1392144D02*
G03*
X817224Y1333156I33194J-55885D01*
G01*
X986712Y1379768D02*
G03*
X935662Y1410113I-52165J-29644D01*
G01*
X991710Y1379910D02*
G03*
X934736Y1415128I-57779J-29776D01*
G01*
X970160Y1378827D02*
G03*
X933434Y1398139I-36948J-25687D01*
G01*
X975147Y1379186D02*
G03*
X932349Y1403140I-42680J-26046D01*
G01*
X953664Y1377164D02*
G03*
X934891Y1386123I-19178J-16038D01*
G01*
X958631Y1377741D02*
G03*
X933901Y1391136I-24986J-16605D01*
G01*
X934891Y1386123D02*
G03*
X916867Y1385208I-2184J-134982D01*
G01*
X933901Y1391136D02*
G03*
X918256Y1390393I-1194J-139995D01*
G01*
X933434Y1398139D02*
G03*
X920189Y1397607I-727J-146998D01*
G01*
X932349Y1403140D02*
G03*
X921562Y1402732I358J-152000D01*
G01*
X850662Y1387337D02*
G03*
X821624Y1335532I30961J-51395D01*
G01*
X857018Y1382955D02*
G03*
X831930Y1340812I24898J-43360D01*
G01*
X858578Y1378081D02*
G03*
X836429Y1342993I22692J-38859D01*
G01*
X861676Y1371783D02*
G03*
X846956Y1347818I15221J-25852D01*
G01*
X863325Y1366947D02*
G03*
X851546Y1349802I12849J-21446D01*
G01*
X897766Y1381541D02*
G03*
X863325Y1366947I34941J-130400D01*
G01*
X896472Y1386370D02*
G03*
X861676Y1371783I36235J-135230D01*
G01*
X894661Y1393132D02*
G03*
X858578Y1378081I38046J-141991D01*
G01*
X893367Y1397961D02*
G03*
X857018Y1382955I39341J-146821D01*
G01*
X891555Y1404723D02*
G03*
X850662Y1387337I41152J-153582D01*
G01*
X890261Y1409553D02*
G03*
X848956Y1392144I42446J-158412D01*
G01*
X916867Y1385208D02*
G03*
X897766Y1381541I15841J-134067D01*
G01*
X898548Y1394117D02*
G03*
X894661Y1393132I34159J-142976D01*
G01*
X918256Y1390393D02*
G03*
X896472Y1386370I14451J-139252D01*
G01*
X900013Y1399583D02*
G03*
X893367Y1397961I32694J-148442D01*
G01*
X902042Y1407156D02*
G03*
X891555Y1404723I30665J-156015D01*
G01*
X920189Y1397607D02*
G03*
X898548Y1394117I12518J-146466D01*
G01*
X903478Y1412515D02*
G03*
X890261Y1409553I29229J-161374D01*
G01*
X921562Y1402732D02*
G03*
X900013Y1399583I11145J-151591D01*
G01*
X923475Y1409872D02*
G03*
X902042Y1407156I9232J-158732D01*
G01*
X924836Y1414952D02*
G03*
X903478Y1412515I7871J-163811D01*
G01*
X935662Y1410113D02*
G03*
X923475Y1409872I-2955J-158973D01*
G01*
X934736Y1415128D02*
G03*
X924836Y1414952I-2029J-163988D01*
G01*
X991673Y1159783D02*
G03*
X979116Y1158631I8327J-159783D01*
G01*
X938486Y1158184D02*
G03*
X971536Y1140139I27234J10591D01*
G01*
X991223Y1142730D02*
G03*
X981335Y1141777I8777J-142730D01*
G01*
D02*
G03*
X971536Y1140138I18665J-141777D01*
G01*
X992329Y1147801D02*
G03*
X980682Y1146734I7671J-147801D01*
G01*
X991223Y1142730D02*
G03*
X1018477Y1168715I-1794J29166D01*
G01*
X980682Y1146734D02*
G03*
X969155Y1144750I19318J-146734D01*
G01*
X992329Y1147801D02*
G03*
X1018173Y1171439I-1428J27507D01*
G01*
X991966Y1154792D02*
G03*
X979768Y1153674I8034J-154792D01*
G01*
D02*
G03*
X967697Y1151597I20232J-153674D01*
G01*
X991966Y1154792D02*
G03*
X1011402Y1173965I-1065J20517D01*
G01*
X991673Y1159783D02*
G03*
X1011772Y1179615I-1106J21221D01*
G01*
X978202Y1165571D02*
G03*
X965230Y1163340I21798J-165571D01*
G01*
X938074Y1160894D02*
G03*
X969155Y1144750I25341J10796D01*
G01*
X943961Y1165086D02*
G03*
X967697Y1151597I19454J6604D01*
G01*
X942141Y1170447D02*
G03*
X966687Y1156494I20122J6831D01*
G01*
X950251Y1171787D02*
G03*
X960233Y1167340I7902J4308D01*
G01*
X950793Y1168823D02*
G03*
X965230Y1163340I11471J8455D01*
G01*
X977549Y1170528D02*
G03*
X960233Y1167340I22451J-170529D01*
G01*
X979116Y1158631D02*
G03*
X966687Y1156494I20884J-158631D01*
G01*
X991309Y1166774D02*
G03*
X978202Y1165571I8691J-166774D01*
G01*
X995100Y1171930D02*
G03*
X977549Y1170528I4900J-171930D01*
G01*
X991309Y1166774D02*
G03*
X1003836Y1175806I-742J14231D01*
G01*
X995100Y1171930D02*
G03*
X1003592Y1178810I-256J8996D01*
G01*
X1065264Y1415128D02*
G03*
X1008290Y1379910I804J-64995D01*
G01*
X1178376Y1335532D02*
G03*
X1149338Y1387337I-59999J410D01*
G01*
X1182776Y1333156D02*
G03*
X1151044Y1392144I-64926J3102D01*
G01*
X1163571Y1342994D02*
G03*
X1141422Y1378081I-44842J-3771D01*
G01*
X1168070Y1340812D02*
G03*
X1142982Y1382955I-49985J-1216D01*
G01*
X1148454Y1349802D02*
G03*
X1136675Y1366947I-24627J-4301D01*
G01*
X1153044Y1347818D02*
G03*
X1138324Y1371783I-29941J-1887D01*
G01*
X1136675Y1366947D02*
G03*
X1120608Y1375167I-69382J-115806D01*
G01*
X1138324Y1371783D02*
G03*
X1124404Y1378962I-71031J-120642D01*
G01*
X1141422Y1378081D02*
G03*
X1129685Y1384243I-74129J-126941D01*
G01*
X1142982Y1382955D02*
G03*
X1133436Y1387995I-75689J-131815D01*
G01*
X1064338Y1410113D02*
G03*
X1013288Y1379768I1115J-59990D01*
G01*
X1067651Y1403140D02*
G03*
X1024853Y1379186I-118J-50000D01*
G01*
X1066566Y1398139D02*
G03*
X1029840Y1378827I223J-44999D01*
G01*
X1066099Y1391136D02*
G03*
X1041369Y1377741I256J-29999D01*
G01*
X1065109Y1386123D02*
G03*
X1046336Y1377164I404J-24997D01*
G01*
X1102234Y1381541D02*
G03*
X1065109Y1386123I-34941J-130400D01*
G01*
X1103528Y1386370D02*
G03*
X1066099Y1391136I-36235J-135230D01*
G01*
X1105339Y1393132D02*
G03*
X1066566Y1398139I-38046J-141991D01*
G01*
X1106633Y1397961D02*
G03*
X1067651Y1403140I-39341J-146821D01*
G01*
X1108445Y1404723D02*
G03*
X1064338Y1410113I-41152J-153582D01*
G01*
X1109739Y1409553D02*
G03*
X1065264Y1415128I-42446J-158412D01*
G01*
X1120608Y1375167D02*
G03*
X1102234Y1381541I-53315J-124026D01*
G01*
X1109198Y1392041D02*
G03*
X1105339Y1393132I-41905J-140900D01*
G01*
X1124404Y1378962D02*
G03*
X1103528Y1386370I-57111J-127822D01*
G01*
X1113200Y1396043D02*
G03*
X1106633Y1397961I-45907J-144902D01*
G01*
X1118744Y1401586D02*
G03*
X1108445Y1404723I-51451J-150445D01*
G01*
X1129685Y1384243D02*
G03*
X1109198Y1392041I-62392J-133103D01*
G01*
X1122667Y1405510D02*
G03*
X1109739Y1409553I-55374J-154369D01*
G01*
X1133436Y1387995D02*
G03*
X1113200Y1396043I-66143J-136854D01*
G01*
X1138664Y1393222D02*
G03*
X1118744Y1401586I-71371J-142082D01*
G01*
X1142382Y1396941D02*
G03*
X1122667Y1405510I-75089J-145800D01*
G01*
X1149338Y1387338D02*
G03*
X1138664Y1393222I-82045J-136197D01*
G01*
X1151044Y1392144D02*
G03*
X1142382Y1396941I-83751J-141003D01*
G01*
X1101458Y1139385D02*
X1106435Y1145160D01*
X1100359Y1136873D02*
X1106435Y1145160D01*
X1034012Y1170988D02*
X1035116Y1176541D01*
X1041797Y1170809D02*
X1042784Y1174842D01*
X1042810Y1173647D01*
X1057859Y1170447D02*
X1122147Y1359833D01*
X1065239Y1167761D02*
X1137727Y1354163D01*
X1091225Y1150335D02*
X1093379Y1153885D01*
X1092516Y1153058D02*
X1093379Y1153885D01*
X1096857Y1144957D02*
X1100002Y1149665D01*
X1093379Y1153884D02*
X1197134Y1324866D01*
X1100003Y1149665D02*
X1211117Y1315959D01*
X1106436Y1145160D02*
X1224698Y1306449D01*
X1197134Y1324866D02*
X1201391Y1322245D01*
X1211117Y1315959D02*
X1215256Y1313153D01*
X1224698Y1306449D02*
X1228710Y1303466D01*
X1153884Y1093379D02*
X1324866Y1197134D01*
X1149665Y1100003D02*
X1315958Y1211117D01*
X1145160Y1106436D02*
X1306449Y1224698D01*
X1322245Y1201391D02*
X1324866Y1197134D01*
X1313153Y1215256D02*
X1315958Y1211117D01*
X1303466Y1228710D02*
X1306449Y1224698D01*
X1027382Y1177905D02*
X1057807Y1375577D01*
X1025819Y1167749D02*
X1027382Y1177905D01*
X1026818Y1170301D02*
X1027382Y1177905D01*
X1035116Y1176541D02*
X1074134Y1372698D01*
X1042784Y1174842D02*
X1090321Y1369110D01*
X1050369Y1172809D02*
X1106335Y1364819D01*
X1157557Y1069982D02*
X1164756Y1072495D01*
X1155350Y1068356D02*
X1164756Y1072495D01*
X1114949Y1131074D02*
X1118682Y1135331D01*
X1121601Y1127026D02*
X1124472Y1130025D01*
X1123898Y1128978D02*
X1124472Y1130025D01*
X1135331Y1118682D02*
X1285699Y1250551D01*
X1140379Y1112666D02*
X1296356Y1237851D01*
X1154170Y1084581D02*
X1157811Y1086578D01*
X1156650Y1086294D02*
X1157811Y1086578D01*
X1156359Y1077108D02*
X1161437Y1079613D01*
X1157811Y1086578D02*
X1333156Y1182776D01*
X1161437Y1079612D02*
X1340812Y1168070D01*
X1164756Y1072495D02*
X1347818Y1153044D01*
X1333156Y1182776D02*
X1335532Y1178376D01*
X1340812Y1168070D02*
X1342994Y1163571D01*
X1347818Y1153044D02*
X1349802Y1148454D01*
X1179957Y1003927D02*
X1379910Y1008290D01*
X1179615Y1011773D02*
X1379186Y1024853D01*
X1178930Y1019596D02*
X1377741Y1041369D01*
X1379768Y1013288D02*
X1379910Y1008290D01*
X1378827Y1029840D02*
X1379186Y1024853D01*
X1377164Y1046336D02*
X1377741Y1041369D01*
X1112666Y1140379D02*
X1237851Y1296356D01*
X1106234Y1132365D02*
X1112666Y1140379D01*
X1108376Y1134076D02*
X1112666Y1140379D01*
X1118682Y1135331D02*
X1250551Y1285699D01*
X1124472Y1130025D02*
X1262775Y1274498D01*
X1130025Y1124472D02*
X1274498Y1262775D01*
X1171439Y981827D02*
X1178930Y980405D01*
X1168715Y981523D02*
X1178930Y980405D01*
X1165086Y1056039D02*
X1170447Y1057859D01*
X1168823Y1049207D02*
X1172809Y1050369D01*
X1171787Y1049749D02*
X1172809Y1050369D01*
X1176541Y1035116D02*
X1372698Y1074134D01*
X1177905Y1027382D02*
X1375577Y1057807D01*
X1175806Y996164D02*
X1179957Y996074D01*
X1178810Y996408D02*
X1179957Y996074D01*
X1173965Y988598D02*
X1179615Y988228D01*
X1179957Y996073D02*
X1379910Y991710D01*
X1179615Y988227D02*
X1379186Y975147D01*
X1178930Y980404D02*
X1377741Y958631D01*
X1379768Y986712D02*
X1379910Y991710D01*
X1378827Y970160D02*
X1379186Y975147D01*
X1377164Y953664D02*
X1377741Y958631D01*
X1157811Y913422D02*
X1333156Y817224D01*
X1161437Y920388D02*
X1340812Y831930D01*
X1164756Y927506D02*
X1347818Y846956D01*
X1333156Y817224D02*
X1335532Y821624D01*
X1340812Y831930D02*
X1342994Y836429D01*
X1347818Y846956D02*
X1349802Y851546D01*
X1167761Y1065239D02*
X1354163Y1137727D01*
X1158184Y1061514D02*
X1167761Y1065239D01*
X1160894Y1061926D02*
X1167761Y1065239D01*
X1170447Y1057859D02*
X1359834Y1122147D01*
X1172809Y1050369D02*
X1364819Y1106335D01*
X1174842Y1042784D02*
X1369110Y1090321D01*
X1139385Y898542D02*
X1145160Y893565D01*
X1136873Y899641D02*
X1145160Y893565D01*
X1170988Y965988D02*
X1176541Y964884D01*
X1170809Y958203D02*
X1174842Y957216D01*
X1173647Y957190D02*
X1174842Y957216D01*
X1170447Y942141D02*
X1359833Y877853D01*
X1167761Y934761D02*
X1354163Y862274D01*
X1150335Y908775D02*
X1153885Y906621D01*
X1153058Y907484D02*
X1153885Y906621D01*
X1144957Y903143D02*
X1149665Y899998D01*
X1153884Y906621D02*
X1324866Y802866D01*
X1149665Y899997D02*
X1315959Y788883D01*
X1145160Y893564D02*
X1306449Y775302D01*
X1322245Y798609D02*
X1324866Y802866D01*
X1313153Y784744D02*
X1315959Y788883D01*
X1303466Y771290D02*
X1306449Y775302D01*
X1093379Y846116D02*
X1197134Y675134D01*
X1100003Y850335D02*
X1211117Y684042D01*
X1106436Y854840D02*
X1224698Y693551D01*
X1197134Y675134D02*
X1201391Y677755D01*
X1211117Y684042D02*
X1215256Y686847D01*
X1224698Y693551D02*
X1228710Y696534D01*
X1177905Y972618D02*
X1375577Y942193D01*
X1167749Y974181D02*
X1177905Y972618D01*
X1170301Y973182D02*
X1177905Y972618D01*
X1176541Y964884D02*
X1372698Y925866D01*
X1174842Y957216D02*
X1369110Y909679D01*
X1172809Y949631D02*
X1364819Y893665D01*
X1069982Y842443D02*
X1072495Y835244D01*
X1068356Y844650D02*
X1072495Y835244D01*
X1131074Y885051D02*
X1135331Y881318D01*
X1127026Y878399D02*
X1130025Y875528D01*
X1128978Y876102D02*
X1130025Y875528D01*
X1118682Y864669D02*
X1250551Y714301D01*
X1112666Y859621D02*
X1237851Y703644D01*
X1084581Y845830D02*
X1086578Y842189D01*
X1086294Y843350D02*
X1086578Y842189D01*
X1077108Y843641D02*
X1079613Y838563D01*
X1086578Y842189D02*
X1182776Y666844D01*
X1079612Y838563D02*
X1168070Y659188D01*
X1072495Y835244D02*
X1153044Y652182D01*
X1178376Y664468D02*
X1182776Y666844D01*
X1163571Y657007D02*
X1168070Y659188D01*
X1148454Y650198D02*
X1153044Y652182D01*
X1003927Y820043D02*
X1008290Y620090D01*
X1011773Y820385D02*
X1024853Y620814D01*
X1019596Y821070D02*
X1041369Y622259D01*
X1008290Y620090D02*
X1013288Y620232D01*
X1024853Y620814D02*
X1029840Y621174D01*
X1041369Y622259D02*
X1046336Y622836D01*
X1140379Y887334D02*
X1296356Y762149D01*
X1132365Y893766D02*
X1140379Y887334D01*
X1134076Y891624D02*
X1140379Y887334D01*
X1135331Y881318D02*
X1285699Y749449D01*
X1130025Y875528D02*
X1274498Y737225D01*
X1124472Y869975D02*
X1262775Y725502D01*
X980405Y821070D02*
X981827Y828561D01*
X980405Y821070D02*
X981523Y831285D01*
X1056039Y834914D02*
X1057859Y829553D01*
X1049207Y831177D02*
X1050369Y827191D01*
X1049749Y828213D02*
X1050369Y827191D01*
X1035116Y823459D02*
X1074134Y627302D01*
X1027382Y822095D02*
X1057807Y624423D01*
X996074Y820043D02*
X996164Y824194D01*
X996074Y820043D02*
X996408Y821190D01*
X988228Y820385D02*
X988598Y826035D01*
X991710Y620090D02*
X996073Y820043D01*
X975147Y620814D02*
X988227Y820385D01*
X958631Y622259D02*
X980404Y821070D01*
X986712Y620232D02*
X991710Y620090D01*
X970160Y621174D02*
X975147Y620814D01*
X953664Y622836D02*
X958631Y622259D01*
X817224Y666844D02*
X913422Y842189D01*
X831930Y659188D02*
X920388Y838563D01*
X846956Y652182D02*
X927506Y835244D01*
X817224Y666844D02*
X821624Y664468D01*
X831930Y659188D02*
X836429Y657007D01*
X846956Y652182D02*
X851546Y650198D01*
X1065239Y832239D02*
X1137727Y645837D01*
X1061514Y841816D02*
X1065239Y832239D01*
X1061926Y839106D02*
X1065239Y832239D01*
X1057859Y829553D02*
X1122147Y640166D01*
X1050369Y827191D02*
X1106335Y635181D01*
X1042784Y825158D02*
X1090321Y630890D01*
X893565Y854840D02*
X898542Y860615D01*
X893565Y854840D02*
X899641Y863127D01*
X964884Y823459D02*
X965988Y829012D01*
X957216Y825158D02*
X958203Y829191D01*
X957190Y826353D02*
X957216Y825158D01*
X877853Y640167D02*
X942141Y829553D01*
X862274Y645837D02*
X934761Y832239D01*
X906621Y846116D02*
X908775Y849665D01*
X906621Y846116D02*
X907484Y846942D01*
X899998Y850335D02*
X903143Y855043D01*
X802866Y675134D02*
X906621Y846116D01*
X788883Y684042D02*
X899997Y850335D01*
X775302Y693551D02*
X893564Y854840D01*
X798609Y677755D02*
X802866Y675134D01*
X784744Y686847D02*
X788883Y684042D01*
X771290Y696534D02*
X775302Y693551D01*
X675134Y802866D02*
X846116Y906621D01*
X684042Y788883D02*
X850335Y899997D01*
X693551Y775302D02*
X854840Y893564D01*
X675134Y802866D02*
X677755Y798609D01*
X684042Y788883D02*
X686847Y784744D01*
X693551Y775302D02*
X696534Y771290D01*
X942193Y624423D02*
X972618Y822095D01*
X974181Y832251D01*
X972618Y822095D02*
X973182Y829699D01*
X925866Y627302D02*
X964884Y823459D01*
X909679Y630890D02*
X957216Y825158D01*
X893665Y635181D02*
X949631Y827191D01*
X835244Y927505D02*
X842443Y930018D01*
X835244Y927505D02*
X844650Y931644D01*
X881318Y864669D02*
X885051Y868926D01*
X875528Y869975D02*
X878399Y872974D01*
X875528Y869975D02*
X876102Y871022D01*
X714301Y749449D02*
X864669Y881318D01*
X703644Y762149D02*
X859621Y887334D01*
X842189Y913422D02*
X845830Y915419D01*
X842189Y913422D02*
X843350Y913706D01*
X838563Y920387D02*
X843641Y922892D01*
X666844Y817224D02*
X842189Y913422D01*
X659188Y831930D02*
X838563Y920388D01*
X652182Y846956D02*
X835244Y927506D01*
X664468Y821624D02*
X666844Y817224D01*
X657007Y836429D02*
X659188Y831930D01*
X650198Y851546D02*
X652182Y846956D01*
X620090Y991710D02*
X820043Y996073D01*
X620814Y975147D02*
X820385Y988227D01*
X622259Y958631D02*
X821070Y980404D01*
X620090Y991710D02*
X620232Y986712D01*
X620814Y975147D02*
X621174Y970160D01*
X622259Y958631D02*
X622836Y953664D01*
X762149Y703644D02*
X887334Y859621D01*
X893766Y867635D01*
X887334Y859621D02*
X891624Y865924D01*
X749449Y714301D02*
X881318Y864669D01*
X737225Y725502D02*
X875528Y869975D01*
X725502Y737225D02*
X869975Y875528D01*
X821070Y1019595D02*
X828561Y1018173D01*
X821070Y1019595D02*
X831285Y1018477D01*
X829553Y942141D02*
X834914Y943961D01*
X827191Y949631D02*
X831177Y950793D01*
X827191Y949631D02*
X828213Y950251D01*
X627302Y925866D02*
X823459Y964884D01*
X624423Y942193D02*
X822095Y972618D01*
X820043Y1003926D02*
X824194Y1003836D01*
X820043Y1003926D02*
X821190Y1003592D01*
X820385Y1011772D02*
X826035Y1011402D01*
X620090Y1008290D02*
X820043Y1003927D01*
X620814Y1024853D02*
X820385Y1011773D01*
X622259Y1041369D02*
X821070Y1019596D01*
X620090Y1008290D02*
X620232Y1013288D01*
X620814Y1024853D02*
X621174Y1029840D01*
X622259Y1041369D02*
X622836Y1046336D01*
X666844Y1182776D02*
X842189Y1086578D01*
X659188Y1168070D02*
X838563Y1079612D01*
X652182Y1153044D02*
X835244Y1072494D01*
X664468Y1178376D02*
X666844Y1182776D01*
X657007Y1163571D02*
X659188Y1168070D01*
X650198Y1148454D02*
X652182Y1153044D01*
X645837Y862274D02*
X832239Y934761D01*
X841816Y938486D01*
X832239Y934761D02*
X839106Y938074D01*
X640166Y877853D02*
X829553Y942141D01*
X635181Y893665D02*
X827191Y949631D01*
X630890Y909679D02*
X825158Y957216D01*
X854840Y1106435D02*
X860615Y1101458D01*
X854840Y1106435D02*
X863127Y1100359D01*
X823459Y1035116D02*
X829012Y1034012D01*
X825158Y1042784D02*
X829191Y1041797D01*
X825158Y1042784D02*
X826353Y1042810D01*
X640167Y1122147D02*
X829553Y1057859D01*
X645837Y1137727D02*
X832239Y1065239D01*
X846116Y1093379D02*
X849665Y1091225D01*
X846116Y1093379D02*
X846942Y1092516D01*
X850335Y1100002D02*
X855043Y1096857D01*
X675134Y1197134D02*
X846116Y1093379D01*
X684042Y1211117D02*
X850335Y1100003D01*
X693551Y1224698D02*
X854840Y1106436D01*
X675134Y1197134D02*
X677755Y1201391D01*
X684042Y1211117D02*
X686847Y1215256D01*
X693551Y1224698D02*
X696534Y1228710D01*
X802866Y1324866D02*
X906621Y1153884D01*
X788883Y1315958D02*
X899997Y1149665D01*
X775302Y1306449D02*
X893564Y1145160D01*
X798609Y1322245D02*
X802866Y1324866D01*
X784744Y1313153D02*
X788883Y1315958D01*
X771290Y1303466D02*
X775302Y1306449D01*
X624423Y1057807D02*
X822095Y1027382D01*
X832251Y1025819D01*
X822095Y1027382D02*
X829699Y1026818D01*
X627302Y1074134D02*
X823459Y1035116D01*
X630890Y1090321D02*
X825158Y1042784D01*
X635181Y1106335D02*
X827191Y1050369D01*
X927505Y1164756D02*
X930018Y1157557D01*
X927505Y1164756D02*
X931644Y1155350D01*
X864669Y1118682D02*
X868926Y1114949D01*
X869975Y1124472D02*
X872974Y1121601D01*
X869975Y1124472D02*
X871022Y1123898D01*
X749449Y1285699D02*
X881318Y1135331D01*
X762149Y1296356D02*
X887334Y1140379D01*
X913422Y1157811D02*
X915419Y1154170D01*
X913422Y1157811D02*
X913706Y1156650D01*
X920387Y1161437D02*
X922892Y1156359D01*
X817224Y1333156D02*
X913422Y1157811D01*
X831930Y1340812D02*
X920388Y1161437D01*
X846956Y1347818D02*
X927506Y1164756D01*
X817224Y1333156D02*
X821624Y1335532D01*
X831930Y1340812D02*
X836429Y1342994D01*
X846956Y1347818D02*
X851546Y1349802D01*
X975147Y1379186D02*
X988227Y1179615D01*
X958631Y1377741D02*
X980404Y1178930D01*
X986712Y1379768D02*
X991710Y1379910D01*
X970160Y1378827D02*
X975147Y1379186D01*
X953664Y1377164D02*
X958631Y1377741D01*
X703644Y1237851D02*
X859621Y1112666D01*
X867635Y1106234D01*
X859621Y1112666D02*
X865924Y1108376D01*
X714301Y1250551D02*
X864669Y1118682D01*
X725502Y1262775D02*
X869975Y1124472D01*
X737225Y1274498D02*
X875528Y1130025D01*
X1018173Y1171439D02*
X1019595Y1178930D01*
X1018477Y1168715D02*
X1019595Y1178930D01*
X942141Y1170447D02*
X943961Y1165086D01*
X949631Y1172809D02*
X950793Y1168823D01*
X949631Y1172809D02*
X950251Y1171787D01*
X925866Y1372698D02*
X964884Y1176541D01*
X942193Y1375577D02*
X972618Y1177905D01*
X1003836Y1175806D02*
X1003926Y1179957D01*
X1003592Y1178810D02*
X1003926Y1179957D01*
X1011402Y1173965D02*
X1011772Y1179615D01*
X1003927Y1179957D02*
X1008290Y1379910D01*
X1011773Y1179615D02*
X1024853Y1379186D01*
X1019596Y1178930D02*
X1041369Y1377741D01*
X1008290Y1379910D02*
X1013288Y1379768D01*
X1024853Y1379186D02*
X1029840Y1378827D01*
X1041369Y1377741D02*
X1046336Y1377164D01*
X1086578Y1157811D02*
X1182776Y1333156D01*
X1079612Y1161437D02*
X1168070Y1340812D01*
X1072494Y1164756D02*
X1153044Y1347818D01*
X1178376Y1335532D02*
X1182776Y1333156D01*
X1163571Y1342994D02*
X1168070Y1340812D01*
X1148454Y1349802D02*
X1153044Y1347818D01*
X862274Y1354163D02*
X934761Y1167761D01*
X938486Y1158184D01*
X934761Y1167761D02*
X938074Y1160894D01*
X877853Y1359834D02*
X942141Y1170447D01*
X893665Y1364819D02*
X949631Y1172809D01*
X909679Y1369110D02*
X957217Y1174842D01*
X991710Y1379910D02*
X996073Y1179957D01*
X1086652Y1375155D02*
X1096366Y1372778D01*
X1085464Y1370298D02*
X1095177Y1367922D01*
X1085464Y1370298D02*
X1086652Y1375155D01*
X1090321Y1369110D02*
X1091509Y1373967D01*
X1095177Y1367922D02*
X1096366Y1372778D01*
X897066Y1371019D02*
X898465Y1366218D01*
X892266Y1369619D02*
X893665Y1364819D01*
X887466Y1368220D02*
X888865Y1363420D01*
X898465Y1366218D01*
X887466Y1368220D02*
X897066Y1371019D01*
X1266387Y1271041D02*
X1269845Y1274653D01*
X1262775Y1274498D02*
X1266233Y1278110D01*
X1259163Y1277956D02*
X1262621Y1281568D01*
X1259163Y1277956D02*
X1266387Y1271041D01*
X1262621Y1281568D02*
X1269845Y1274653D01*
D20*
X1200000Y1346410D02*
D03*
X1197500Y1342080D02*
D03*
X1195000Y1337750D02*
D03*
X1201830Y1339580D02*
D03*
X1193170Y1344580D02*
D03*
X1195670Y1348910D02*
D03*
X1190670Y1340250D02*
D03*
X1199330Y1335250D02*
D03*
X1266387Y1271041D02*
D03*
X1269845Y1274653D02*
D03*
X1266233Y1278110D02*
D03*
X1259163Y1277956D02*
D03*
X1262621Y1281568D02*
D03*
X800000Y1346410D02*
D03*
X802500Y1342080D02*
D03*
X805000Y1337750D02*
D03*
X806830Y1344580D02*
D03*
X798170Y1339580D02*
D03*
X795670Y1343910D02*
D03*
X800670Y1335250D02*
D03*
X809330Y1340250D02*
D03*
X898465Y1366218D02*
D03*
X897066Y1371019D02*
D03*
X892266Y1369619D02*
D03*
X888865Y1363420D02*
D03*
X887466Y1368220D02*
D03*
X1086652Y1375155D02*
D03*
X1085464Y1370298D02*
D03*
X1091509Y1373967D02*
D03*
X1096366Y1372778D02*
D03*
X1095177Y1367922D02*
D03*
X1005000Y1390000D02*
D03*
X995000Y1390000D02*
D03*
X995000Y1400000D02*
D03*
X995000Y1395000D02*
D03*
X1005000Y1395000D02*
D03*
X1000000Y1390000D02*
D03*
X800000Y1346410D02*
D03*
X802500Y1342080D02*
D03*
X1000000Y1395000D02*
D03*
X1000000Y1400000D02*
D03*
X988227Y1179615D02*
D03*
X975147Y1379186D02*
D03*
X975474Y1374197D02*
D03*
X987900Y1184604D02*
D03*
X996073Y1179957D02*
D03*
X991710Y1379910D02*
D03*
X991819Y1374911D02*
D03*
X995964Y1184956D02*
D03*
X1003927Y1179957D02*
D03*
X1008290Y1379910D02*
D03*
X1008181Y1374911D02*
D03*
X1004036Y1184956D02*
D03*
X1011773Y1179615D02*
D03*
X1024853Y1379186D02*
D03*
X1024526Y1374197D02*
D03*
X1012100Y1184604D02*
D03*
X1019596Y1178930D02*
D03*
X1041369Y1377741D02*
D03*
X1040825Y1372771D02*
D03*
X1020140Y1183900D02*
D03*
X1027382Y1177905D02*
D03*
X1057807Y1375577D02*
D03*
X1057046Y1370636D02*
D03*
X1028143Y1182847D02*
D03*
X1035116Y1176541D02*
D03*
X1074134Y1372698D02*
D03*
X1073159Y1367794D02*
D03*
X1036092Y1181445D02*
D03*
X1042784Y1174842D02*
D03*
X1090321Y1369110D02*
D03*
X1089132Y1364253D02*
D03*
X1043972Y1179698D02*
D03*
X1050369Y1172809D02*
D03*
X1106335Y1364819D02*
D03*
X1104936Y1360019D02*
D03*
X1051768Y1177609D02*
D03*
X1057859Y1170447D02*
D03*
X1122147Y1359833D02*
D03*
X1120540Y1355099D02*
D03*
X1059466Y1175182D02*
D03*
X1065239Y1167761D02*
D03*
X1137727Y1354163D02*
D03*
X1135914Y1349503D02*
D03*
X1067051Y1172421D02*
D03*
X1072494Y1164756D02*
D03*
X1153044Y1347818D02*
D03*
X1151030Y1343242D02*
D03*
X1074508Y1169333D02*
D03*
X1079612Y1161437D02*
D03*
X1168070Y1340812D02*
D03*
X1165858Y1336327D02*
D03*
X1081823Y1165921D02*
D03*
X1086578Y1157811D02*
D03*
X1182776Y1333156D02*
D03*
X1180371Y1328772D02*
D03*
X1088983Y1162194D02*
D03*
X1093379Y1153884D02*
D03*
X1197134Y1324866D02*
D03*
X1194540Y1320592D02*
D03*
X1095973Y1158159D02*
D03*
X1100003Y1149665D02*
D03*
X1211117Y1315959D02*
D03*
X1208339Y1311801D02*
D03*
X1102781Y1153822D02*
D03*
X1106436Y1145160D02*
D03*
X1224698Y1306449D02*
D03*
X1221741Y1302417D02*
D03*
X1109392Y1149192D02*
D03*
X1112666Y1140379D02*
D03*
X1237851Y1296356D02*
D03*
X1234721Y1292457D02*
D03*
X1115796Y1144279D02*
D03*
X1118682Y1135331D02*
D03*
X1250551Y1285699D02*
D03*
X1247255Y1281940D02*
D03*
X1121979Y1139090D02*
D03*
X1124472Y1130026D02*
D03*
X1262775Y1274498D02*
D03*
X1259317Y1270886D02*
D03*
X1127930Y1133637D02*
D03*
X1130025Y1124472D02*
D03*
X1274498Y1262775D02*
D03*
X1270887Y1259317D02*
D03*
X1133637Y1127930D02*
D03*
X1135331Y1118682D02*
D03*
X1285699Y1250551D02*
D03*
X1281940Y1247255D02*
D03*
X1139090Y1121979D02*
D03*
X1140379Y1112666D02*
D03*
X1296356Y1237851D02*
D03*
X1292457Y1234721D02*
D03*
X1144279Y1115796D02*
D03*
X1145160Y1106436D02*
D03*
X1306449Y1224698D02*
D03*
X1302417Y1221741D02*
D03*
X1149192Y1109392D02*
D03*
X1149665Y1100003D02*
D03*
X1315959Y1211117D02*
D03*
X1311801Y1208339D02*
D03*
X1153822Y1102780D02*
D03*
X1153884Y1093379D02*
D03*
X1324866Y1197134D02*
D03*
X1320592Y1194540D02*
D03*
X1158159Y1095973D02*
D03*
X1157811Y1086578D02*
D03*
X1333156Y1182776D02*
D03*
X1328772Y1180371D02*
D03*
X1162194Y1088983D02*
D03*
X1161437Y1079612D02*
D03*
X1340812Y1168070D02*
D03*
X1336327Y1165858D02*
D03*
X1165921Y1081823D02*
D03*
X1164756Y1072495D02*
D03*
X1347818Y1153044D02*
D03*
X1343242Y1151030D02*
D03*
X1169333Y1074508D02*
D03*
X1167761Y1065239D02*
D03*
X1354163Y1137726D02*
D03*
X1349503Y1135914D02*
D03*
X1172421Y1067051D02*
D03*
X1170447Y1057859D02*
D03*
X1359834Y1122147D02*
D03*
X1355099Y1120540D02*
D03*
X1175182Y1059466D02*
D03*
X1172809Y1050369D02*
D03*
X1364819Y1106335D02*
D03*
X1360019Y1104936D02*
D03*
X1177609Y1051768D02*
D03*
X1174842Y1042784D02*
D03*
X1369110Y1090321D02*
D03*
X1364253Y1089132D02*
D03*
X1179698Y1043972D02*
D03*
X1176541Y1035116D02*
D03*
X1372698Y1074134D02*
D03*
X1367794Y1073159D02*
D03*
X1181445Y1036092D02*
D03*
X1177905Y1027382D02*
D03*
X1375577Y1057807D02*
D03*
X1370636Y1057046D02*
D03*
X1182847Y1028143D02*
D03*
X1178930Y1019596D02*
D03*
X1377741Y1041369D02*
D03*
X1372771Y1040825D02*
D03*
X1183900Y1020140D02*
D03*
X1179615Y1011773D02*
D03*
X1379186Y1024853D02*
D03*
X1374197Y1024526D02*
D03*
X1184604Y1012100D02*
D03*
X1179957Y1003927D02*
D03*
X1379910Y1008290D02*
D03*
X1374911Y1008181D02*
D03*
X1184956Y1004036D02*
D03*
X1179957Y996073D02*
D03*
X1379910Y991710D02*
D03*
X1374911Y991819D02*
D03*
X1184956Y995964D02*
D03*
X1179615Y988227D02*
D03*
X1379186Y975147D02*
D03*
X1374197Y975474D02*
D03*
X1184604Y987900D02*
D03*
X1178930Y980404D02*
D03*
X1377741Y958631D02*
D03*
X1372771Y959175D02*
D03*
X1183900Y979860D02*
D03*
X1177905Y972618D02*
D03*
X1375577Y942193D02*
D03*
X1370636Y942954D02*
D03*
X1182847Y971857D02*
D03*
X1176541Y964884D02*
D03*
X1372698Y925866D02*
D03*
X1367794Y926841D02*
D03*
X1181445Y963908D02*
D03*
X1174842Y957217D02*
D03*
X1369110Y909679D02*
D03*
X1364253Y910868D02*
D03*
X1179698Y956028D02*
D03*
X1172809Y949631D02*
D03*
X1364819Y893665D02*
D03*
X1360019Y895064D02*
D03*
X1177609Y948232D02*
D03*
X1170447Y942141D02*
D03*
X1359833Y877853D02*
D03*
X1355099Y879460D02*
D03*
X1175182Y940534D02*
D03*
X1167761Y934761D02*
D03*
X1354163Y862273D02*
D03*
X1349503Y864086D02*
D03*
X1172421Y932949D02*
D03*
X1164756Y927506D02*
D03*
X1347818Y846956D02*
D03*
X1343242Y848970D02*
D03*
X1169333Y925492D02*
D03*
X1161437Y920388D02*
D03*
X1340812Y831930D02*
D03*
X1336327Y834142D02*
D03*
X1165921Y918177D02*
D03*
X1157811Y913422D02*
D03*
X1333156Y817224D02*
D03*
X1328772Y819629D02*
D03*
X1162194Y911017D02*
D03*
X1153884Y906621D02*
D03*
X1324866Y802866D02*
D03*
X1320592Y805460D02*
D03*
X1158159Y904027D02*
D03*
X1149665Y899997D02*
D03*
X1315959Y788883D02*
D03*
X1311801Y791661D02*
D03*
X1153822Y897219D02*
D03*
X1145160Y893564D02*
D03*
X1306449Y775302D02*
D03*
X1302417Y778259D02*
D03*
X1149192Y890608D02*
D03*
X1140379Y887334D02*
D03*
X1296356Y762149D02*
D03*
X1292457Y765279D02*
D03*
X1144279Y884204D02*
D03*
X1135331Y881318D02*
D03*
X1285699Y749449D02*
D03*
X1281940Y752745D02*
D03*
X1139090Y878021D02*
D03*
X1130026Y875528D02*
D03*
X1274498Y737225D02*
D03*
X1270886Y740683D02*
D03*
X1133637Y872070D02*
D03*
X1124472Y869975D02*
D03*
X1262775Y725502D02*
D03*
X1259317Y729114D02*
D03*
X1127930Y866363D02*
D03*
X1118682Y864669D02*
D03*
X1250551Y714301D02*
D03*
X1247255Y718060D02*
D03*
X1121979Y860910D02*
D03*
X1112666Y859621D02*
D03*
X1237851Y703644D02*
D03*
X1234721Y707543D02*
D03*
X1115796Y855721D02*
D03*
X1106436Y854840D02*
D03*
X1224698Y693551D02*
D03*
X1221741Y697583D02*
D03*
X1109392Y850808D02*
D03*
X1100003Y850335D02*
D03*
X1211117Y684042D02*
D03*
X1208339Y688199D02*
D03*
X1102780Y846178D02*
D03*
X1093379Y846116D02*
D03*
X1197134Y675134D02*
D03*
X1194540Y679408D02*
D03*
X1095973Y841841D02*
D03*
X1086578Y842189D02*
D03*
X1182776Y666844D02*
D03*
X1180371Y671227D02*
D03*
X1088983Y837806D02*
D03*
X1079612Y838563D02*
D03*
X1168070Y659188D02*
D03*
X1165858Y663673D02*
D03*
X1081823Y834079D02*
D03*
X1072495Y835244D02*
D03*
X1153044Y652182D02*
D03*
X1151030Y656758D02*
D03*
X1074508Y830667D02*
D03*
X1065239Y832239D02*
D03*
X1137726Y645837D02*
D03*
X1135914Y650497D02*
D03*
X1067051Y827579D02*
D03*
X1057859Y829553D02*
D03*
X1122147Y640166D02*
D03*
X1120540Y644901D02*
D03*
X1059466Y824818D02*
D03*
X1050369Y827191D02*
D03*
X1106335Y635181D02*
D03*
X1104936Y639981D02*
D03*
X1051768Y822391D02*
D03*
X1042784Y825158D02*
D03*
X1090321Y630890D02*
D03*
X1089132Y635747D02*
D03*
X1043972Y820302D02*
D03*
X1035116Y823459D02*
D03*
X1074134Y627302D02*
D03*
X1073159Y632206D02*
D03*
X1036092Y818555D02*
D03*
X1027382Y822095D02*
D03*
X1057807Y624423D02*
D03*
X1057046Y629365D02*
D03*
X1028143Y817153D02*
D03*
X1019596Y821070D02*
D03*
X1041369Y622259D02*
D03*
X1040825Y627229D02*
D03*
X1020140Y816100D02*
D03*
X1011773Y820385D02*
D03*
X1024853Y620814D02*
D03*
X1024526Y625803D02*
D03*
X1012100Y815396D02*
D03*
X1003927Y820043D02*
D03*
X1008290Y620090D02*
D03*
X1008181Y625089D02*
D03*
X1004036Y815044D02*
D03*
X996073Y820043D02*
D03*
X991710Y620090D02*
D03*
X991819Y625089D02*
D03*
X995964Y815044D02*
D03*
X988227Y820385D02*
D03*
X975147Y620814D02*
D03*
X975474Y625803D02*
D03*
X987900Y815396D02*
D03*
X980404Y821070D02*
D03*
X958631Y622259D02*
D03*
X959175Y627229D02*
D03*
X979860Y816100D02*
D03*
X972618Y822095D02*
D03*
X942193Y624423D02*
D03*
X942954Y629365D02*
D03*
X971857Y817153D02*
D03*
X964884Y823459D02*
D03*
X925866Y627302D02*
D03*
X926841Y632206D02*
D03*
X963908Y818555D02*
D03*
X957217Y825158D02*
D03*
X909679Y630890D02*
D03*
X910868Y635747D02*
D03*
X956028Y820302D02*
D03*
X949631Y827191D02*
D03*
X893665Y635181D02*
D03*
X895064Y639981D02*
D03*
X948232Y822391D02*
D03*
X942141Y829553D02*
D03*
X877853Y640167D02*
D03*
X879460Y644901D02*
D03*
X940534Y824818D02*
D03*
X934761Y832239D02*
D03*
X862273Y645837D02*
D03*
X864086Y650497D02*
D03*
X932949Y827579D02*
D03*
X927506Y835244D02*
D03*
X846956Y652182D02*
D03*
X848970Y656758D02*
D03*
X925492Y830667D02*
D03*
X920388Y838563D02*
D03*
X831930Y659188D02*
D03*
X834142Y663673D02*
D03*
X918177Y834079D02*
D03*
X913422Y842189D02*
D03*
X817224Y666844D02*
D03*
X819629Y671227D02*
D03*
X911017Y837806D02*
D03*
X906621Y846116D02*
D03*
X802866Y675134D02*
D03*
X805460Y679408D02*
D03*
X904027Y841841D02*
D03*
X899997Y850335D02*
D03*
X788883Y684042D02*
D03*
X791661Y688199D02*
D03*
X897219Y846178D02*
D03*
X893564Y854840D02*
D03*
X775302Y693551D02*
D03*
X778259Y697583D02*
D03*
X890608Y850808D02*
D03*
X887334Y859621D02*
D03*
X762149Y703644D02*
D03*
X765279Y707543D02*
D03*
X884204Y855721D02*
D03*
X881318Y864669D02*
D03*
X749449Y714301D02*
D03*
X752745Y718060D02*
D03*
X878021Y860910D02*
D03*
X875528Y869975D02*
D03*
X737225Y725502D02*
D03*
X740683Y729114D02*
D03*
X872070Y866363D02*
D03*
X869975Y875528D02*
D03*
X725502Y737225D02*
D03*
X729113Y740683D02*
D03*
X866363Y872070D02*
D03*
X864669Y881318D02*
D03*
X714301Y749449D02*
D03*
X718060Y752745D02*
D03*
X860910Y878021D02*
D03*
X859621Y887334D02*
D03*
X703644Y762149D02*
D03*
X707543Y765279D02*
D03*
X855721Y884204D02*
D03*
X854840Y893564D02*
D03*
X693551Y775302D02*
D03*
X697583Y778259D02*
D03*
X850808Y890608D02*
D03*
X850335Y899997D02*
D03*
X684042Y788883D02*
D03*
X688199Y791661D02*
D03*
X846178Y897220D02*
D03*
X846116Y906621D02*
D03*
X675134Y802866D02*
D03*
X679408Y805460D02*
D03*
X841841Y904027D02*
D03*
X842189Y913422D02*
D03*
X666844Y817224D02*
D03*
X671227Y819629D02*
D03*
X837806Y911017D02*
D03*
X838563Y920388D02*
D03*
X659188Y831930D02*
D03*
X663673Y834142D02*
D03*
X834079Y918177D02*
D03*
X835244Y927506D02*
D03*
X652182Y846956D02*
D03*
X656758Y848970D02*
D03*
X830667Y925492D02*
D03*
X832239Y934761D02*
D03*
X645837Y862274D02*
D03*
X650497Y864086D02*
D03*
X827579Y932949D02*
D03*
X829553Y942141D02*
D03*
X640167Y877853D02*
D03*
X644901Y879460D02*
D03*
X824818Y940534D02*
D03*
X827191Y949631D02*
D03*
X635181Y893665D02*
D03*
X639981Y895064D02*
D03*
X822391Y948232D02*
D03*
X825158Y957216D02*
D03*
X630890Y909679D02*
D03*
X635747Y910868D02*
D03*
X820302Y956028D02*
D03*
X823459Y964884D02*
D03*
X627302Y925866D02*
D03*
X632206Y926841D02*
D03*
X818555Y963908D02*
D03*
X822095Y972618D02*
D03*
X624423Y942193D02*
D03*
X629365Y942954D02*
D03*
X817153Y971857D02*
D03*
X821070Y980404D02*
D03*
X622259Y958631D02*
D03*
X627229Y959175D02*
D03*
X816100Y979860D02*
D03*
X820385Y988227D02*
D03*
X620814Y975147D02*
D03*
X625803Y975474D02*
D03*
X815396Y987900D02*
D03*
X820043Y996073D02*
D03*
X620090Y991710D02*
D03*
X625089Y991820D02*
D03*
X815044Y995964D02*
D03*
X820043Y1003927D02*
D03*
X620090Y1008290D02*
D03*
X625089Y1008181D02*
D03*
X815044Y1004036D02*
D03*
X820385Y1011773D02*
D03*
X620814Y1024853D02*
D03*
X625803Y1024526D02*
D03*
X815396Y1012100D02*
D03*
X821070Y1019596D02*
D03*
X622259Y1041369D02*
D03*
X627229Y1040825D02*
D03*
X816100Y1020140D02*
D03*
X822095Y1027382D02*
D03*
X624423Y1057807D02*
D03*
X629365Y1057046D02*
D03*
X817153Y1028143D02*
D03*
X823459Y1035116D02*
D03*
X627302Y1074134D02*
D03*
X632206Y1073159D02*
D03*
X818555Y1036092D02*
D03*
X825158Y1042784D02*
D03*
X630890Y1090321D02*
D03*
X635747Y1089132D02*
D03*
X820302Y1043972D02*
D03*
X827191Y1050369D02*
D03*
X635181Y1106335D02*
D03*
X639981Y1104936D02*
D03*
X822391Y1051768D02*
D03*
X829553Y1057859D02*
D03*
X640167Y1122147D02*
D03*
X644901Y1120540D02*
D03*
X824818Y1059466D02*
D03*
X832239Y1065239D02*
D03*
X645837Y1137727D02*
D03*
X650497Y1135914D02*
D03*
X827579Y1067051D02*
D03*
X835244Y1072494D02*
D03*
X652182Y1153044D02*
D03*
X656758Y1151030D02*
D03*
X830667Y1074508D02*
D03*
X838563Y1079612D02*
D03*
X659188Y1168070D02*
D03*
X663673Y1165858D02*
D03*
X834079Y1081823D02*
D03*
X842189Y1086578D02*
D03*
X666844Y1182776D02*
D03*
X671227Y1180371D02*
D03*
X837806Y1088983D02*
D03*
X846116Y1093379D02*
D03*
X675134Y1197134D02*
D03*
X679408Y1194540D02*
D03*
X841841Y1095973D02*
D03*
X850335Y1100003D02*
D03*
X684042Y1211117D02*
D03*
X688199Y1208339D02*
D03*
X846178Y1102781D02*
D03*
X854840Y1106436D02*
D03*
X693551Y1224698D02*
D03*
X697583Y1221741D02*
D03*
X850808Y1109392D02*
D03*
X859621Y1112666D02*
D03*
X703644Y1237851D02*
D03*
X707543Y1234721D02*
D03*
X855721Y1115796D02*
D03*
X864669Y1118682D02*
D03*
X714301Y1250551D02*
D03*
X718060Y1247255D02*
D03*
X860910Y1121979D02*
D03*
X869975Y1124472D02*
D03*
X725502Y1262775D02*
D03*
X729114Y1259317D02*
D03*
X866363Y1127930D02*
D03*
X875528Y1130025D02*
D03*
X737225Y1274498D02*
D03*
X740683Y1270887D02*
D03*
X872070Y1133637D02*
D03*
X881318Y1135331D02*
D03*
X749449Y1285699D02*
D03*
X752745Y1281940D02*
D03*
X878021Y1139090D02*
D03*
X887334Y1140379D02*
D03*
X762149Y1296356D02*
D03*
X765279Y1292457D02*
D03*
X884204Y1144279D02*
D03*
X893564Y1145160D02*
D03*
X775302Y1306449D02*
D03*
X778259Y1302417D02*
D03*
X890608Y1149192D02*
D03*
X899997Y1149665D02*
D03*
X788883Y1315958D02*
D03*
X791661Y1311801D02*
D03*
X897219Y1153822D02*
D03*
X906621Y1153884D02*
D03*
X802866Y1324866D02*
D03*
X805460Y1320592D02*
D03*
X904027Y1158159D02*
D03*
X913422Y1157811D02*
D03*
X817224Y1333156D02*
D03*
X819629Y1328772D02*
D03*
X911017Y1162194D02*
D03*
X920388Y1161437D02*
D03*
X831930Y1340812D02*
D03*
X834142Y1336327D02*
D03*
X918177Y1165921D02*
D03*
X927506Y1164756D02*
D03*
X846956Y1347818D02*
D03*
X848970Y1343242D02*
D03*
X925492Y1169333D02*
D03*
X934761Y1167761D02*
D03*
X862274Y1354163D02*
D03*
X864086Y1349503D02*
D03*
X932949Y1172421D02*
D03*
X942141Y1170447D02*
D03*
X877853Y1359833D02*
D03*
X879460Y1355099D02*
D03*
X940534Y1175182D02*
D03*
X949631Y1172809D02*
D03*
X893665Y1364819D02*
D03*
X895064Y1360019D02*
D03*
X948232Y1177609D02*
D03*
X957217Y1174842D02*
D03*
X909679Y1369110D02*
D03*
X910868Y1364253D02*
D03*
X956028Y1179698D02*
D03*
X964884Y1176541D02*
D03*
X925866Y1372698D02*
D03*
X926841Y1367794D02*
D03*
X963908Y1181445D02*
D03*
X972618Y1177905D02*
D03*
X942193Y1375577D02*
D03*
X942954Y1370636D02*
D03*
X971857Y1182847D02*
D03*
X980404Y1178930D02*
D03*
X958631Y1377741D02*
D03*
X959175Y1372771D02*
D03*
X979860Y1183900D02*
D03*
M02*
