G04*
G04 #@! TF.GenerationSoftware,Altium Limited,Altium Designer,25.8.1 (18)*
G04*
G04 Layer_Physical_Order=1*
G04 Layer_Color=255*
%FSLAX44Y44*%
%MOMM*%
G71*
G04*
G04 #@! TF.SameCoordinates,078DBBB2-0D48-4D9F-B724-92657CB152FA*
G04*
G04*
G04 #@! TF.FilePolarity,Positive*
G04*
G01*
G75*
G04:AMPARAMS|DCode=10|XSize=3mm|YSize=2mm|CornerRadius=0mm|HoleSize=0mm|Usage=FLASHONLY|Rotation=150.000|XOffset=0mm|YOffset=0mm|HoleType=Round|Shape=Octagon|*
%AMOCTAGOND10*
4,1,8,-1.0490,1.1830,-1.5490,0.3170,-1.3660,-0.3660,0.3660,-1.3660,1.0490,-1.1830,1.5490,-0.3170,1.3660,0.3660,-0.3660,1.3660,-1.0490,1.1830,0.0*
%
%ADD10OCTAGOND10*%

G04:AMPARAMS|DCode=11|XSize=3mm|YSize=2mm|CornerRadius=0mm|HoleSize=0mm|Usage=FLASHONLY|Rotation=210.000|XOffset=0mm|YOffset=0mm|HoleType=Round|Shape=Octagon|*
%AMOCTAGOND11*
4,1,8,-1.5490,-0.3170,-1.0490,-1.1830,-0.3660,-1.3660,1.3660,-0.3660,1.5490,0.3170,1.0490,1.1830,0.3660,1.3660,-1.3660,0.3660,-1.5490,-0.3170,0.0*
%
%ADD11OCTAGOND11*%

G04:AMPARAMS|DCode=12|XSize=3mm|YSize=2mm|CornerRadius=0mm|HoleSize=0mm|Usage=FLASHONLY|Rotation=180.000|XOffset=0mm|YOffset=0mm|HoleType=Round|Shape=Octagon|*
%AMOCTAGOND12*
4,1,8,-1.5000,0.5000,-1.5000,-0.5000,-1.0000,-1.0000,1.0000,-1.0000,1.5000,-0.5000,1.5000,0.5000,1.0000,1.0000,-1.0000,1.0000,-1.5000,0.5000,0.0*
%
%ADD12OCTAGOND12*%

%ADD17C,2.5000*%
%ADD18C,2.0000*%
%ADD19C,0.5000*%
%ADD20C,0.5000*%
D10*
X1270801Y1369042D02*
D03*
X1227500Y1394042D02*
D03*
D11*
X815801Y1419042D02*
D03*
X772500Y1394042D02*
D03*
D12*
X1000000Y1455000D02*
D03*
X1050000D02*
D03*
D17*
X1270174Y1283956D02*
G03*
X1251165Y1369701I-56292J32500D01*
G01*
X889174Y1375956D02*
G03*
X805413Y1402366I-56292J-32500D01*
G01*
X1092000Y1381000D02*
G03*
X1032665Y1445753I-65000J0D01*
G01*
X1225000Y1389711D02*
X1268301Y1364711D01*
X775000Y1389711D02*
X818301Y1414711D01*
X1000000Y1450000D02*
X1050000D01*
D18*
X1265762Y1278807D02*
G03*
X1264070Y1355678I-53245J37283D01*
G01*
X891427Y1369560D02*
G03*
X824009Y1406530I-58910J-27470D01*
G01*
X1090753Y1374335D02*
G03*
X1050853Y1440061I-64753J5665D01*
G01*
D19*
X1206945Y1350420D02*
G03*
X1203500Y1352472I-76945J-125253D01*
G01*
X1211846Y1353249D02*
G03*
X1206000Y1356802I-81846J-128083D01*
G01*
X1218635Y1357169D02*
G03*
X1209500Y1362864I-88636J-132003D01*
G01*
X1223441Y1359943D02*
G03*
X1212000Y1367195I-93441J-134777D01*
G01*
X800000Y1354430D02*
G03*
X796500Y1352472I70000J-129263D01*
G01*
X800000Y1360089D02*
G03*
X794000Y1356802I70000J-134922D01*
G01*
X800000Y1367929D02*
G03*
X790500Y1362865I70000J-142762D01*
G01*
X800000Y1373477D02*
G03*
X788000Y1367195I70000J-148310D01*
G01*
X1104707Y1136457D02*
G03*
X1090208Y1146447I-104707J-136457D01*
G01*
X1097402Y1126937D02*
G03*
X1087102Y1134213I-97402J-126937D01*
G01*
X1090097Y1117416D02*
G03*
X1080543Y1124164I-90097J-117416D01*
G01*
X1079612Y1161437D02*
G03*
X1087102Y1134213I19059J-9399D01*
G01*
X1069981Y1157557D02*
G03*
X1080543Y1124164I25552J-10285D01*
G01*
X1101663Y1132490D02*
G03*
X1090913Y1140085I-101663J-132490D01*
G01*
X1094358Y1122970D02*
G03*
X1084353Y1130037I-94358J-122970D01*
G01*
X1087053Y1113450D02*
G03*
X1078966Y1119220I-87053J-113450D01*
G01*
X1077108Y1156359D02*
G03*
X1084353Y1130037I18426J-9086D01*
G01*
X1068356Y1155350D02*
G03*
X1078966Y1119220I26746J-11769D01*
G01*
X1084581Y1154171D02*
G03*
X1090913Y1140085I14090J-2132D01*
G01*
X1086294Y1156650D02*
G03*
X1090208Y1146447I8634J-2541D01*
G01*
X1346410Y1200000D02*
G03*
X1323314Y1229835I-121243J-70000D01*
G01*
X1323314D02*
G03*
X1296356Y1237851I-21032J-21393D01*
G01*
X1342080Y1197500D02*
G03*
X1319069Y1226991I-116913J-67500D01*
G01*
X1332900Y1237226D02*
G03*
X1285699Y1250551I-35439J-35272D01*
G01*
X1356803Y1206000D02*
G03*
X1332900Y1237226I-131636J-76000D01*
G01*
X1328596Y1234457D02*
G03*
X1288971Y1246771I-31662J-31977D01*
G01*
X1352472Y1203500D02*
G03*
X1328596Y1234457I-127306J-73500D01*
G01*
X1339689Y1247391D02*
G03*
X1274498Y1262775I-45390J-46527D01*
G01*
X1367195Y1212000D02*
G03*
X1339689Y1247391I-142028J-82000D01*
G01*
X1335488Y1244500D02*
G03*
X1277932Y1259140I-41631J-43208D01*
G01*
X1362865Y1209500D02*
G03*
X1335488Y1244500I-137698J-79500D01*
G01*
X1319069Y1226991D02*
G03*
X1299460Y1233931I-17389J-17961D01*
G01*
X1118109Y1125038D02*
G03*
X1104707Y1136457I-118109J-125037D01*
G01*
X1111781Y1124072D02*
G03*
X1101663Y1132490I-111781J-124072D01*
G01*
X1107096Y1118872D02*
G03*
X1097402Y1126937I-107096J-118872D01*
G01*
X1103773Y1115135D02*
G03*
X1094358Y1122970I-103773J-115135D01*
G01*
X1099087Y1109935D02*
G03*
X1090097Y1117416I-99087J-109935D01*
G01*
X1094719Y1107132D02*
G03*
X1087053Y1113450I-94719J-107132D01*
G01*
X1118109Y1125038D02*
G03*
X1128978Y1123898I6180J6543D01*
G01*
X1111781Y1124072D02*
G03*
X1127026Y1121602I9538J10587D01*
G01*
X1107096Y1118872D02*
G03*
X1135331Y1118683I14224J15788D01*
G01*
X1103773Y1115135D02*
G03*
X1131074Y1114949I13755J15260D01*
G01*
X1099087Y1109935D02*
G03*
X1134076Y1108376I18441J20460D01*
G01*
X1094719Y1107132D02*
G03*
X1132365Y1106235I19355J21892D01*
G01*
X1356115Y1162827D02*
G03*
X1350566Y1180000I-130948J-32827D01*
G01*
X1360700Y1165080D02*
G03*
X1355934Y1180000I-135534J-35080D01*
G01*
X1371894Y1169687D02*
G03*
X1368707Y1180000I-146728J-39687D01*
G01*
X1367344Y1167344D02*
G03*
X1363402Y1180000I-142177J-37344D01*
G01*
X1379487Y1168291D02*
G03*
X1376100Y1180000I-154320J-38291D01*
G01*
X1384091Y1170483D02*
G03*
X1381359Y1180000I-158925J-40483D01*
G01*
X1352320Y1142374D02*
G03*
X1356115Y1162827I-20455J14373D01*
G01*
X1354163Y1137727D02*
G03*
X1360700Y1165080I-22506J19837D01*
G01*
X1358195Y1126871D02*
G03*
X1367344Y1167344I-34375J29041D01*
G01*
X1359833Y1122147D02*
G03*
X1371894Y1169687I-36205J34485D01*
G01*
X1363388Y1111126D02*
G03*
X1379487Y1168291I-42135J42716D01*
G01*
X1364819Y1106335D02*
G03*
X1384091Y1170483I-43716J48103D01*
G01*
X1373477Y1200000D02*
G03*
X1367195Y1212000I-148310J-70000D01*
G01*
X1367929Y1200000D02*
G03*
X1362865Y1209500I-142762J-70000D01*
G01*
X1360089Y1200000D02*
G03*
X1356803Y1206000I-134922J-70000D01*
G01*
X1354430Y1200000D02*
G03*
X1352472Y1203500I-129263J-70000D01*
G01*
X1355934Y1180000D02*
G03*
X1346410Y1200000I-130767J-50000D01*
G01*
X1350566Y1180000D02*
G03*
X1342080Y1197500I-125399J-50000D01*
G01*
X1363402Y1180000D02*
G03*
X1354430Y1200000I-138235J-50000D01*
G01*
X1368707Y1180000D02*
G03*
X1360089Y1200000I-143541J-50000D01*
G01*
X1376100Y1180000D02*
G03*
X1367929Y1200000I-150934J-50000D01*
G01*
X1381359Y1180000D02*
G03*
X1373477Y1200000I-156192J-50000D01*
G01*
X1158907Y1065822D02*
G03*
X1151345Y1081722I-158907J-65822D01*
G01*
X1147821Y1061230D02*
G03*
X1142539Y1072681I-147821J-61230D01*
G01*
X1136734Y1056637D02*
G03*
X1131835Y1067258I-136734J-56637D01*
G01*
X1149665Y1100003D02*
G03*
X1142539Y1072681I11806J-17669D01*
G01*
X1139384Y1101458D02*
G03*
X1131835Y1067258I16986J-21683D01*
G01*
X1154288Y1063908D02*
G03*
X1148775Y1075861I-154288J-63908D01*
G01*
X1143201Y1059316D02*
G03*
X1138070Y1070439I-143201J-59316D01*
G01*
X1132115Y1054724D02*
G03*
X1127997Y1063764I-132115J-54724D01*
G01*
X1144957Y1096857D02*
G03*
X1138070Y1070439I11414J-17082D01*
G01*
X1136873Y1100359D02*
G03*
X1127997Y1063764I17279J-23565D01*
G01*
X1150335Y1091225D02*
G03*
X1148775Y1075861I11136J-8891D01*
G01*
X1153058Y1092516D02*
G03*
X1151345Y1081722I6207J-6517D01*
G01*
X1400000Y1000000D02*
G03*
X1394916Y1037386I-140000J0D01*
G01*
X1394916Y1037386D02*
G03*
X1375577Y1057807I-28911J-8011D01*
G01*
X1395000Y1000000D02*
G03*
X1389818Y1037045I-135000J0D01*
G01*
X1406913Y1038994D02*
G03*
X1372698Y1074134I-48327J-12827D01*
G01*
X1412000Y1000000D02*
G03*
X1406913Y1038994I-152000J0D01*
G01*
X1401801Y1038748D02*
G03*
X1373642Y1069224I-43408J-11862D01*
G01*
X1407000Y1000000D02*
G03*
X1401801Y1038748I-147000J0D01*
G01*
X1417875Y1044403D02*
G03*
X1369110Y1090321I-62572J-17599D01*
G01*
X1424000Y1000000D02*
G03*
X1417875Y1044403I-164000J0D01*
G01*
X1412791Y1043999D02*
G03*
X1370266Y1085456I-57657J-16603D01*
G01*
X1419000Y1000000D02*
G03*
X1412791Y1043999I-159000J0D01*
G01*
X1389818Y1037045D02*
G03*
X1376306Y1052860I-24040J-6860D01*
G01*
X1164804Y1049231D02*
G03*
X1158907Y1065822I-164804J-49231D01*
G01*
X1158842Y1051559D02*
G03*
X1154288Y1063908I-158842J-51559D01*
G01*
X1152184Y1049398D02*
G03*
X1147821Y1061230I-152184J-49398D01*
G01*
X1147438Y1047823D02*
G03*
X1143201Y1059316I-147438J-47823D01*
G01*
X1140779Y1045663D02*
G03*
X1136734Y1056637I-140779J-45663D01*
G01*
X1135595Y1045419D02*
G03*
X1132115Y1054724I-135595J-45419D01*
G01*
X1164804Y1049231D02*
G03*
X1173647Y1042810I8623J2576D01*
G01*
X1158842Y1051559D02*
G03*
X1170808Y1041797I13554J4399D01*
G01*
X1152184Y1049398D02*
G03*
X1176541Y1035117I20212J6561D01*
G01*
X1147438Y1047823D02*
G03*
X1170988Y1034012I19542J6339D01*
G01*
X1140779Y1045663D02*
G03*
X1170301Y1026818I26200J8498D01*
G01*
X1135595Y1045419D02*
G03*
X1167749Y1025819I27708J9281D01*
G01*
X1389818Y962955D02*
G03*
X1393599Y980602I-129818J37045D01*
G01*
X1394916Y962614D02*
G03*
X1398248Y977918I-134916J37386D01*
G01*
X1406913Y961006D02*
G03*
X1409310Y971531I-146913J38994D01*
G01*
X1401801Y961252D02*
G03*
X1404715Y974184I-141801J38748D01*
G01*
X1412791Y956001D02*
G03*
X1415712Y967834I-152791J43999D01*
G01*
X1417875Y955597D02*
G03*
X1420266Y965205I-157875J44403D01*
G01*
X1376306Y947140D02*
G03*
X1389818Y962955I-10528J22675D01*
G01*
X1375577Y942193D02*
G03*
X1394916Y962614I-9572J28432D01*
G01*
X1373642Y930776D02*
G03*
X1401801Y961252I-15249J42338D01*
G01*
X1372698Y925866D02*
G03*
X1406913Y961006I-14112J47967D01*
G01*
X1370266Y914544D02*
G03*
X1412791Y956001I-15132J58060D01*
G01*
X1369110Y909679D02*
G03*
X1417875Y955597I-13808J63517D01*
G01*
X1423441Y986467D02*
G03*
X1424000Y1000000I-163441J13534D01*
G01*
X1418636Y989241D02*
G03*
X1419000Y1000000I-158636J10759D01*
G01*
X1411846Y993161D02*
G03*
X1412000Y1000000I-151846J6839D01*
G01*
X1406945Y995990D02*
G03*
X1407000Y1000000I-146945J4010D01*
G01*
X1398248Y977918D02*
G03*
X1400000Y1000000I-138247J22082D01*
G01*
X1393599Y980602D02*
G03*
X1395000Y1000000I-133599J19398D01*
G01*
X1404715Y974184D02*
G03*
X1406945Y995990I-144715J25816D01*
G01*
X1409310Y971531D02*
G03*
X1411846Y993161I-149310J28469D01*
G01*
X1415712Y967834D02*
G03*
X1418636Y989241I-155712J32166D01*
G01*
X1420266Y965205D02*
G03*
X1423441Y986467I-160266J34795D01*
G01*
X1170529Y977550D02*
G03*
X1171930Y995101I-170529J22450D01*
G01*
X1158631Y979116D02*
G03*
X1159783Y991674I-158631J20884D01*
G01*
X1146734Y980682D02*
G03*
X1147801Y992329I-146734J19318D01*
G01*
X1179615Y1011773D02*
G03*
X1159783Y991674I1390J-21205D01*
G01*
X1171439Y1018173D02*
G03*
X1147801Y992329I3869J-27271D01*
G01*
X1165571Y978202D02*
G03*
X1166774Y991310I-165571J21798D01*
G01*
X1153674Y979769D02*
G03*
X1154792Y991967I-153674J20231D01*
G01*
X1141777Y981335D02*
G03*
X1142730Y991223I-141777J18665D01*
G01*
X1173965Y1011402D02*
G03*
X1154792Y991967I1344J-20500D01*
G01*
X1168715Y1018477D02*
G03*
X1142730Y991223I3181J-29047D01*
G01*
X1175806Y1003836D02*
G03*
X1166774Y991310I5198J-13268D01*
G01*
X1178810Y1003592D02*
G03*
X1171930Y995101I2116J-8748D01*
G01*
X1346410Y800000D02*
G03*
X1360700Y834920I-121243J70000D01*
G01*
Y834920D02*
G03*
X1354163Y862273I-29043J7517D01*
G01*
X1342080Y802500D02*
G03*
X1356115Y837173I-116913J67500D01*
G01*
X1371894Y830313D02*
G03*
X1359833Y877853I-48266J13055D01*
G01*
X1356803Y794000D02*
G03*
X1371894Y830313I-131636J76000D01*
G01*
X1367344Y832656D02*
G03*
X1358195Y873129I-43524J11432D01*
G01*
X1352472Y796500D02*
G03*
X1367344Y832656I-127306J73500D01*
G01*
X1384091Y829517D02*
G03*
X1364819Y893665I-62989J16045D01*
G01*
X1367195Y788000D02*
G03*
X1384091Y829517I-142028J82000D01*
G01*
X1379487Y831709D02*
G03*
X1363388Y888874I-58234J14449D01*
G01*
X1362865Y790500D02*
G03*
X1379487Y831709I-137698J79500D01*
G01*
X1356115Y837173D02*
G03*
X1352320Y857626I-24250J6079D01*
G01*
X1167340Y960234D02*
G03*
X1170529Y977550I-167340J39766D01*
G01*
X1163340Y965231D02*
G03*
X1165571Y978202I-163340J34769D01*
G01*
X1156494Y966688D02*
G03*
X1158631Y979116I-156494J33312D01*
G01*
X1151597Y967697D02*
G03*
X1153674Y979769I-151596J32303D01*
G01*
X1144750Y969156D02*
G03*
X1146734Y980682I-144750J30844D01*
G01*
X1140139Y971537D02*
G03*
X1141777Y981335I-140139J28463D01*
G01*
X1167340Y960234D02*
G03*
X1171788Y950251I8756J-2081D01*
G01*
X1163340Y965231D02*
G03*
X1168823Y950793I13938J-2967D01*
G01*
X1156494Y966688D02*
G03*
X1170448Y942141I20784J-4424D01*
G01*
X1151597Y967697D02*
G03*
X1165086Y943961I20093J-4282D01*
G01*
X1144750Y969156D02*
G03*
X1160894Y938075I26939J-5740D01*
G01*
X1140139Y971537D02*
G03*
X1158184Y938486I28636J-5816D01*
G01*
X1319069Y773009D02*
G03*
X1331168Y786401I-93903J96991D01*
G01*
X1323314Y770165D02*
G03*
X1333851Y781752I-98147J99835D01*
G01*
X1332900Y762774D02*
G03*
X1340238Y770690I-107733J107226D01*
G01*
X1328596Y765543D02*
G03*
X1337585Y775285I-103429J104458D01*
G01*
X1335488Y755500D02*
G03*
X1343935Y764287I-110321J114500D01*
G01*
X1339689Y752609D02*
G03*
X1346564Y759734I-114522J117391D01*
G01*
X1299460Y766069D02*
G03*
X1319069Y773009I2220J24901D01*
G01*
X1296356Y762149D02*
G03*
X1323314Y770165I5926J29409D01*
G01*
X1288971Y753229D02*
G03*
X1328596Y765543I7963J44290D01*
G01*
X1285699Y749449D02*
G03*
X1332900Y762774I11762J48597D01*
G01*
X1277932Y740860D02*
G03*
X1335488Y755500I15925J57848D01*
G01*
X1274498Y737225D02*
G03*
X1339689Y752609I19800J61911D01*
G01*
X1359944Y776559D02*
G03*
X1367195Y788000I-134777J93441D01*
G01*
X1357169Y781365D02*
G03*
X1362865Y790500I-132003J88636D01*
G01*
X1353250Y788154D02*
G03*
X1356803Y794000I-128083J81846D01*
G01*
X1350420Y793055D02*
G03*
X1352472Y796500I-125253J76945D01*
G01*
X1333851Y781752D02*
G03*
X1346410Y800000I-108685J88247D01*
G01*
X1331168Y786401D02*
G03*
X1342080Y802500I-106001J83599D01*
G01*
X1337585Y775285D02*
G03*
X1350420Y793055I-112419J94715D01*
G01*
X1340238Y770690D02*
G03*
X1353250Y788154I-115072J99310D01*
G01*
X1343935Y764287D02*
G03*
X1357169Y781365I-118768J105712D01*
G01*
X1346564Y759734D02*
G03*
X1359944Y776559I-121397J110266D01*
G01*
X1136457Y895293D02*
G03*
X1146447Y909792I-136457J104707D01*
G01*
X1126937Y902598D02*
G03*
X1134213Y912898I-126937J97402D01*
G01*
X1117416Y909903D02*
G03*
X1124164Y919457I-117416J90097D01*
G01*
X1161437Y920388D02*
G03*
X1134213Y912898I-9399J-19059D01*
G01*
X1157557Y930019D02*
G03*
X1124164Y919457I-10285J-25552D01*
G01*
X1132490Y898337D02*
G03*
X1140085Y909087I-132490J101663D01*
G01*
X1122970Y905642D02*
G03*
X1130037Y915647I-122970J94358D01*
G01*
X1113450Y912947D02*
G03*
X1119220Y921034I-113450J87053D01*
G01*
X1156359Y922892D02*
G03*
X1130037Y915647I-9086J-18426D01*
G01*
X1155350Y931644D02*
G03*
X1119220Y921034I-11769J-26746D01*
G01*
X1154171Y915419D02*
G03*
X1140085Y909087I-2132J-14090D01*
G01*
X1156650Y913706D02*
G03*
X1146447Y909792I-2541J-8634D01*
G01*
X1200000Y653590D02*
G03*
X1229835Y676686I-70000J121243D01*
G01*
Y676686D02*
G03*
X1237851Y703644I-21393J21032D01*
G01*
X1197500Y657920D02*
G03*
X1226991Y680931I-67500J116913D01*
G01*
X1237226Y667100D02*
G03*
X1250551Y714301I-35272J35439D01*
G01*
X1206000Y643197D02*
G03*
X1237226Y667100I-76000J131636D01*
G01*
X1234457Y671404D02*
G03*
X1246771Y711029I-31977J31662D01*
G01*
X1203500Y647528D02*
G03*
X1234457Y671404I-73500J127306D01*
G01*
X1247391Y660311D02*
G03*
X1262775Y725502I-46527J45390D01*
G01*
X1212000Y632805D02*
G03*
X1247391Y660311I-82000J142028D01*
G01*
X1244500Y664512D02*
G03*
X1259140Y722068I-43208J41631D01*
G01*
X1209500Y637135D02*
G03*
X1244500Y664512I-79500J137698D01*
G01*
X1226991Y680931D02*
G03*
X1233931Y700540I-17961J17389D01*
G01*
X1125038Y881891D02*
G03*
X1136457Y895293I-125037J118109D01*
G01*
X1124072Y888219D02*
G03*
X1132490Y898337I-124072J111781D01*
G01*
X1118872Y892904D02*
G03*
X1126937Y902598I-118872J107096D01*
G01*
X1115135Y896227D02*
G03*
X1122970Y905642I-115135J103773D01*
G01*
X1109935Y900913D02*
G03*
X1117416Y909903I-109935J99087D01*
G01*
X1107132Y905281D02*
G03*
X1113450Y912947I-107132J94719D01*
G01*
X1125038Y881891D02*
G03*
X1123898Y871022I6543J-6180D01*
G01*
X1124072Y888219D02*
G03*
X1121602Y872974I10587J-9538D01*
G01*
X1118872Y892904D02*
G03*
X1118683Y864669I15788J-14224D01*
G01*
X1115135Y896227D02*
G03*
X1114949Y868926I15260J-13755D01*
G01*
X1109935Y900913D02*
G03*
X1108376Y865924I20460J-18441D01*
G01*
X1107132Y905281D02*
G03*
X1106235Y867635I21892J-19355D01*
G01*
X1162827Y643885D02*
G03*
X1180000Y649434I-32827J130948D01*
G01*
X1165080Y639300D02*
G03*
X1180000Y644066I-35080J135534D01*
G01*
X1169687Y628106D02*
G03*
X1180000Y631292I-39687J146728D01*
G01*
X1167344Y632656D02*
G03*
X1180000Y636598I-37344J142177D01*
G01*
X1168291Y620513D02*
G03*
X1180000Y623900I-38291J154320D01*
G01*
X1170483Y615909D02*
G03*
X1180000Y618641I-40483J158925D01*
G01*
X1142374Y647680D02*
G03*
X1162827Y643885I14373J20455D01*
G01*
X1137727Y645837D02*
G03*
X1165080Y639300I19837J22506D01*
G01*
X1126871Y641805D02*
G03*
X1167344Y632656I29041J34375D01*
G01*
X1122147Y640167D02*
G03*
X1169687Y628106I34485J36205D01*
G01*
X1111126Y636612D02*
G03*
X1168291Y620513I42716J42135D01*
G01*
X1106335Y635181D02*
G03*
X1170483Y615909I48103J43716D01*
G01*
X1200000Y626523D02*
G03*
X1212000Y632805I-70000J148310D01*
G01*
X1200000Y632071D02*
G03*
X1209500Y637135I-70000J142762D01*
G01*
X1200000Y639911D02*
G03*
X1206000Y643197I-70000J134922D01*
G01*
X1200000Y645570D02*
G03*
X1203500Y647528I-70000J129263D01*
G01*
X1180000Y644066D02*
G03*
X1200000Y653590I-50000J130767D01*
G01*
X1180000Y649434D02*
G03*
X1197500Y657920I-50000J125399D01*
G01*
X1180000Y636598D02*
G03*
X1200000Y645570I-50000J138235D01*
G01*
X1180000Y631292D02*
G03*
X1200000Y639911I-50000J143541D01*
G01*
X1180000Y623900D02*
G03*
X1200000Y632071I-50000J150934D01*
G01*
X1180000Y618641D02*
G03*
X1200000Y626523I-50000J156192D01*
G01*
X1065822Y841093D02*
G03*
X1081722Y848655I-65822J158907D01*
G01*
X1061230Y852179D02*
G03*
X1072681Y857461I-61230J147821D01*
G01*
X1056637Y863266D02*
G03*
X1067258Y868165I-56637J136734D01*
G01*
X1100003Y850335D02*
G03*
X1072681Y857461I-17669J-11806D01*
G01*
X1101458Y860616D02*
G03*
X1067258Y868165I-21683J-16986D01*
G01*
X1063908Y845712D02*
G03*
X1075861Y851225I-63908J154288D01*
G01*
X1059316Y856799D02*
G03*
X1070439Y861930I-59316J143201D01*
G01*
X1054724Y867885D02*
G03*
X1063764Y872003I-54724J132115D01*
G01*
X1096857Y855043D02*
G03*
X1070439Y861930I-17082J-11414D01*
G01*
X1100359Y863127D02*
G03*
X1063764Y872003I-23565J-17279D01*
G01*
X1091225Y849665D02*
G03*
X1075861Y851225I-8891J-11136D01*
G01*
X1092516Y846942D02*
G03*
X1081722Y848655I-6517J-6207D01*
G01*
X1000000Y600000D02*
G03*
X1037386Y605084I0J140000D01*
G01*
X1037386Y605084D02*
G03*
X1057807Y624423I-8011J28911D01*
G01*
X1000000Y605000D02*
G03*
X1037045Y610182I0J135000D01*
G01*
X1038994Y593087D02*
G03*
X1074134Y627302I-12827J48327D01*
G01*
X1000000Y588000D02*
G03*
X1038994Y593087I0J152000D01*
G01*
X1038748Y598199D02*
G03*
X1069224Y626358I-11862J43408D01*
G01*
X1000000Y593000D02*
G03*
X1038748Y598199I0J147000D01*
G01*
X1044403Y582125D02*
G03*
X1090321Y630890I-17599J62572D01*
G01*
X1000000Y576000D02*
G03*
X1044403Y582125I0J164000D01*
G01*
X1043999Y587209D02*
G03*
X1085456Y629734I-16603J57657D01*
G01*
X1000000Y581000D02*
G03*
X1043999Y587209I0J159000D01*
G01*
X1037045Y610182D02*
G03*
X1052860Y623694I-6860J24040D01*
G01*
X1049231Y835196D02*
G03*
X1065822Y841093I-49231J164804D01*
G01*
X1051559Y841158D02*
G03*
X1063908Y845712I-51559J158842D01*
G01*
X1049398Y847816D02*
G03*
X1061230Y852179I-49398J152184D01*
G01*
X1047823Y852562D02*
G03*
X1059316Y856799I-47823J147438D01*
G01*
X1045663Y859221D02*
G03*
X1056637Y863266I-45663J140779D01*
G01*
X1045419Y864405D02*
G03*
X1054724Y867885I-45419J135595D01*
G01*
X1049231Y835196D02*
G03*
X1042810Y826353I2576J-8623D01*
G01*
X1051559Y841158D02*
G03*
X1041797Y829192I4399J-13554D01*
G01*
X1049398Y847816D02*
G03*
X1035117Y823459I6561J-20212D01*
G01*
X1047823Y852562D02*
G03*
X1034012Y829012I6339J-19542D01*
G01*
X1045663Y859221D02*
G03*
X1026818Y829699I8498J-26200D01*
G01*
X1045419Y864405D02*
G03*
X1025819Y832251I9281J-27708D01*
G01*
X962955Y610182D02*
G03*
X980602Y606401I37045J129818D01*
G01*
X962614Y605084D02*
G03*
X977918Y601753I37386J134916D01*
G01*
X961006Y593087D02*
G03*
X971531Y590690I38994J146913D01*
G01*
X961252Y598199D02*
G03*
X974184Y595285I38748J141801D01*
G01*
X956001Y587209D02*
G03*
X967834Y584287I43999J152791D01*
G01*
X955597Y582125D02*
G03*
X965205Y579734I44403J157875D01*
G01*
X947140Y623695D02*
G03*
X962955Y610182I22675J10528D01*
G01*
X942193Y624423D02*
G03*
X962614Y605084I28432J9572D01*
G01*
X930776Y626358D02*
G03*
X961252Y598199I42338J15249D01*
G01*
X925866Y627302D02*
G03*
X961006Y593087I47967J14112D01*
G01*
X914544Y629734D02*
G03*
X956001Y587209I58060J15132D01*
G01*
X909679Y630890D02*
G03*
X955597Y582125I63517J13808D01*
G01*
X986467Y576559D02*
G03*
X1000000Y576000I13534J163441D01*
G01*
X989241Y581364D02*
G03*
X1000000Y581000I10759J158636D01*
G01*
X993161Y588154D02*
G03*
X1000000Y588000I6839J151846D01*
G01*
X995990Y593055D02*
G03*
X1000000Y593000I4010J146945D01*
G01*
X977918Y601753D02*
G03*
X1000000Y600000I22082J138247D01*
G01*
X980602Y606401D02*
G03*
X1000000Y605000I19398J133599D01*
G01*
X974184Y595285D02*
G03*
X995990Y593055I25816J144715D01*
G01*
X971531Y590690D02*
G03*
X993161Y588154I28469J149310D01*
G01*
X967834Y584287D02*
G03*
X989241Y581364I32166J155712D01*
G01*
X965205Y579734D02*
G03*
X986467Y576559I34795J160266D01*
G01*
X977550Y829471D02*
G03*
X995101Y828070I22450J170529D01*
G01*
X979116Y841369D02*
G03*
X991674Y840217I20884J158631D01*
G01*
X980682Y853266D02*
G03*
X992329Y852199I19318J146734D01*
G01*
X1011773Y820385D02*
G03*
X991674Y840217I-21205J-1390D01*
G01*
X1018173Y828561D02*
G03*
X992329Y852199I-27271J-3869D01*
G01*
X978202Y834429D02*
G03*
X991310Y833226I21798J165571D01*
G01*
X979769Y846326D02*
G03*
X991967Y845208I20231J153674D01*
G01*
X981335Y858223D02*
G03*
X991223Y857270I18665J141777D01*
G01*
X1011402Y826035D02*
G03*
X991967Y845208I-20500J-1344D01*
G01*
X1018477Y831285D02*
G03*
X991223Y857270I-29047J-3181D01*
G01*
X1003836Y824194D02*
G03*
X991310Y833226I-13268J-5198D01*
G01*
X1003592Y821190D02*
G03*
X995101Y828070I-8748J-2116D01*
G01*
X800000Y653590D02*
G03*
X834920Y639300I70000J121243D01*
G01*
X834920D02*
G03*
X862273Y645837I7517J29043D01*
G01*
X802500Y657920D02*
G03*
X837173Y643885I67500J116913D01*
G01*
X830313Y628106D02*
G03*
X877853Y640167I13055J48266D01*
G01*
X794000Y643197D02*
G03*
X830313Y628106I76000J131636D01*
G01*
X832656Y632656D02*
G03*
X873129Y641805I11432J43524D01*
G01*
X796500Y647528D02*
G03*
X832656Y632656I73500J127306D01*
G01*
X829517Y615909D02*
G03*
X893665Y635181I16045J62989D01*
G01*
X788000Y632805D02*
G03*
X829517Y615909I82000J142028D01*
G01*
X831709Y620513D02*
G03*
X888874Y636612I14449J58234D01*
G01*
X790500Y637135D02*
G03*
X831709Y620513I79500J137698D01*
G01*
X837173Y643885D02*
G03*
X857626Y647680I6079J24250D01*
G01*
X960234Y832660D02*
G03*
X977550Y829471I39766J167340D01*
G01*
X965231Y836660D02*
G03*
X978202Y834429I34769J163340D01*
G01*
X966688Y843506D02*
G03*
X979116Y841369I33312J156494D01*
G01*
X967697Y848403D02*
G03*
X979769Y846326I32303J151596D01*
G01*
X969156Y855250D02*
G03*
X980682Y853266I30844J144750D01*
G01*
X971537Y859861D02*
G03*
X981335Y858223I28463J140139D01*
G01*
X960234Y832660D02*
G03*
X950251Y828212I-2081J-8756D01*
G01*
X965231Y836660D02*
G03*
X950793Y831177I-2967J-13938D01*
G01*
X966688Y843506D02*
G03*
X942141Y829552I-4424J-20784D01*
G01*
X967697Y848403D02*
G03*
X943961Y834914I-4282J-20093D01*
G01*
X969156Y855250D02*
G03*
X938075Y839106I-5740J-26939D01*
G01*
X971537Y859861D02*
G03*
X938486Y841816I-5816J-28636D01*
G01*
X773009Y680931D02*
G03*
X786401Y668832I96991J93903D01*
G01*
X770165Y676686D02*
G03*
X781752Y666149I99835J98147D01*
G01*
X762774Y667100D02*
G03*
X770690Y659762I107226J107733D01*
G01*
X765543Y671404D02*
G03*
X775285Y662414I104458J103429D01*
G01*
X755500Y664512D02*
G03*
X764287Y656065I114500J110321D01*
G01*
X752609Y660311D02*
G03*
X759734Y653436I117391J114522D01*
G01*
X766069Y700540D02*
G03*
X773009Y680931I24901J-2220D01*
G01*
X762149Y703644D02*
G03*
X770165Y676686I29409J-5926D01*
G01*
X753229Y711029D02*
G03*
X765543Y671404I44290J-7963D01*
G01*
X749449Y714301D02*
G03*
X762774Y667100I48597J-11762D01*
G01*
X740860Y722068D02*
G03*
X755500Y664512I57848J-15925D01*
G01*
X737225Y725502D02*
G03*
X752609Y660311I61911J-19800D01*
G01*
X776559Y640056D02*
G03*
X788000Y632805I93441J134777D01*
G01*
X781365Y642831D02*
G03*
X790500Y637135I88636J132003D01*
G01*
X788154Y646750D02*
G03*
X794000Y643197I81846J128083D01*
G01*
X793055Y649580D02*
G03*
X796500Y647528I76945J125253D01*
G01*
X781752Y666149D02*
G03*
X800000Y653590I88247J108685D01*
G01*
X786401Y668832D02*
G03*
X802500Y657920I83599J106001D01*
G01*
X775285Y662414D02*
G03*
X793055Y649580I94715J112419D01*
G01*
X770690Y659762D02*
G03*
X788154Y646750I99310J115072D01*
G01*
X764287Y656065D02*
G03*
X781365Y642831I105712J118768D01*
G01*
X759734Y653436D02*
G03*
X776559Y640056I110266J121397D01*
G01*
X895293Y863543D02*
G03*
X909792Y853553I104707J136457D01*
G01*
X902598Y873063D02*
G03*
X912898Y865787I97402J126937D01*
G01*
X909903Y882584D02*
G03*
X919457Y875836I90097J117416D01*
G01*
X920388Y838563D02*
G03*
X912898Y865787I-19059J9399D01*
G01*
X930019Y842443D02*
G03*
X919457Y875836I-25552J10285D01*
G01*
X898337Y867510D02*
G03*
X909087Y859915I101663J132490D01*
G01*
X905642Y877030D02*
G03*
X915647Y869963I94358J122970D01*
G01*
X912947Y886550D02*
G03*
X921034Y880780I87053J113450D01*
G01*
X922892Y843641D02*
G03*
X915647Y869963I-18426J9086D01*
G01*
X931644Y844650D02*
G03*
X921034Y880780I-26746J11769D01*
G01*
X915419Y845829D02*
G03*
X909087Y859915I-14090J2132D01*
G01*
X913706Y843350D02*
G03*
X909792Y853553I-8634J2541D01*
G01*
X653590Y800000D02*
G03*
X676686Y770165I121243J70000D01*
G01*
X676686D02*
G03*
X703644Y762149I21032J21393D01*
G01*
X657920Y802500D02*
G03*
X680931Y773009I116913J67500D01*
G01*
X667100Y762774D02*
G03*
X714301Y749449I35439J35272D01*
G01*
X643197Y794000D02*
G03*
X667100Y762774I131636J76000D01*
G01*
X671404Y765543D02*
G03*
X711029Y753229I31662J31977D01*
G01*
X647528Y796500D02*
G03*
X671404Y765543I127306J73500D01*
G01*
X660311Y752609D02*
G03*
X725502Y737225I45390J46527D01*
G01*
X632805Y788000D02*
G03*
X660311Y752609I142028J82000D01*
G01*
X664512Y755500D02*
G03*
X722068Y740860I41631J43208D01*
G01*
X637135Y790500D02*
G03*
X664512Y755500I137698J79500D01*
G01*
X680931Y773009D02*
G03*
X700540Y766069I17389J17961D01*
G01*
X881891Y874962D02*
G03*
X895293Y863543I118109J125037D01*
G01*
X888219Y875928D02*
G03*
X898337Y867510I111781J124072D01*
G01*
X892904Y881128D02*
G03*
X902598Y873063I107096J118872D01*
G01*
X896227Y884865D02*
G03*
X905642Y877030I103773J115135D01*
G01*
X900913Y890065D02*
G03*
X909903Y882584I99087J109935D01*
G01*
X905281Y892868D02*
G03*
X912947Y886550I94719J107132D01*
G01*
X881891Y874963D02*
G03*
X871022Y876102I-6180J-6543D01*
G01*
X888219Y875928D02*
G03*
X872974Y878398I-9538J-10587D01*
G01*
X892904Y881128D02*
G03*
X864669Y881317I-14224J-15788D01*
G01*
X896227Y884865D02*
G03*
X868926Y885051I-13755J-15260D01*
G01*
X900913Y890065D02*
G03*
X865924Y891624I-18441J-20460D01*
G01*
X905281Y892868D02*
G03*
X867635Y893765I-19355J-21892D01*
G01*
X643885Y837173D02*
G03*
X649434Y820000I130948J32827D01*
G01*
X639300Y834920D02*
G03*
X644066Y820000I135534J35080D01*
G01*
X628106Y830313D02*
G03*
X631292Y820000I146728J39687D01*
G01*
X632656Y832656D02*
G03*
X636598Y820000I142177J37344D01*
G01*
X620513Y831709D02*
G03*
X623900Y820000I154320J38291D01*
G01*
X615909Y829517D02*
G03*
X618641Y820000I158925J40483D01*
G01*
X647680Y857626D02*
G03*
X643885Y837173I20455J-14373D01*
G01*
X645837Y862273D02*
G03*
X639300Y834920I22506J-19837D01*
G01*
X641805Y873129D02*
G03*
X632656Y832656I34375J-29041D01*
G01*
X640167Y877853D02*
G03*
X628106Y830313I36205J-34485D01*
G01*
X636612Y888874D02*
G03*
X620513Y831709I42135J-42716D01*
G01*
X635181Y893665D02*
G03*
X615909Y829517I43716J-48103D01*
G01*
X626523Y800000D02*
G03*
X632805Y788000I148310J70000D01*
G01*
X632071Y800000D02*
G03*
X637135Y790500I142762J70000D01*
G01*
X639911Y800000D02*
G03*
X643197Y794000I134922J70000D01*
G01*
X645570Y800000D02*
G03*
X647528Y796500I129263J70000D01*
G01*
X644066Y820000D02*
G03*
X653590Y800000I130767J50000D01*
G01*
X649434Y820000D02*
G03*
X657920Y802500I125399J50000D01*
G01*
X636598Y820000D02*
G03*
X645570Y800000I138235J50000D01*
G01*
X631292Y820000D02*
G03*
X639911Y800000I143541J50000D01*
G01*
X623900Y820000D02*
G03*
X632071Y800000I150934J50000D01*
G01*
X618641Y820000D02*
G03*
X626523Y800000I156192J50000D01*
G01*
X841093Y934178D02*
G03*
X848655Y918278I158907J65822D01*
G01*
X852179Y938770D02*
G03*
X857461Y927319I147821J61230D01*
G01*
X863266Y943363D02*
G03*
X868165Y932742I136734J56637D01*
G01*
X850335Y899997D02*
G03*
X857461Y927319I-11806J17669D01*
G01*
X860616Y898542D02*
G03*
X868165Y932742I-16986J21683D01*
G01*
X845712Y936092D02*
G03*
X851225Y924139I154288J63908D01*
G01*
X856799Y940684D02*
G03*
X861930Y929561I143201J59316D01*
G01*
X867885Y945276D02*
G03*
X872003Y936236I132115J54724D01*
G01*
X855043Y903143D02*
G03*
X861930Y929561I-11414J17082D01*
G01*
X863127Y899641D02*
G03*
X872003Y936236I-17279J23565D01*
G01*
X849665Y908775D02*
G03*
X851225Y924139I-11136J8891D01*
G01*
X846942Y907484D02*
G03*
X848655Y918278I-6207J6517D01*
G01*
X600000Y1000000D02*
G03*
X605084Y962614I140000J0D01*
G01*
X605084Y962614D02*
G03*
X624423Y942193I28911J8011D01*
G01*
X605000Y1000000D02*
G03*
X610182Y962955I135000J0D01*
G01*
X593087Y961006D02*
G03*
X627302Y925866I48327J12827D01*
G01*
X588000Y1000000D02*
G03*
X593087Y961006I152000J0D01*
G01*
X598199Y961252D02*
G03*
X626358Y930776I43408J11862D01*
G01*
X593000Y1000000D02*
G03*
X598199Y961252I147000J0D01*
G01*
X582125Y955597D02*
G03*
X630890Y909679I62572J17599D01*
G01*
X576000Y1000000D02*
G03*
X582125Y955597I164000J0D01*
G01*
X587209Y956001D02*
G03*
X629734Y914544I57657J16603D01*
G01*
X581000Y1000000D02*
G03*
X587209Y956001I159000J0D01*
G01*
X610182Y962955D02*
G03*
X623694Y947140I24040J6860D01*
G01*
X835196Y950769D02*
G03*
X841093Y934178I164804J49231D01*
G01*
X841158Y948441D02*
G03*
X845712Y936092I158842J51559D01*
G01*
X847816Y950602D02*
G03*
X852179Y938770I152184J49398D01*
G01*
X852562Y952177D02*
G03*
X856799Y940684I147438J47823D01*
G01*
X859221Y954337D02*
G03*
X863266Y943363I140779J45663D01*
G01*
X864405Y954581D02*
G03*
X867885Y945276I135595J45419D01*
G01*
X835196Y950769D02*
G03*
X826353Y957190I-8623J-2576D01*
G01*
X841158Y948441D02*
G03*
X829192Y958203I-13554J-4399D01*
G01*
X847816Y950602D02*
G03*
X823459Y964883I-20212J-6561D01*
G01*
X852562Y952177D02*
G03*
X829012Y965988I-19542J-6339D01*
G01*
X859221Y954337D02*
G03*
X829699Y973182I-26200J-8498D01*
G01*
X864405Y954581D02*
G03*
X832251Y974181I-27708J-9281D01*
G01*
X610182Y1037045D02*
G03*
X606401Y1019398I129818J-37045D01*
G01*
X605084Y1037386D02*
G03*
X601753Y1022082I134916J-37386D01*
G01*
X593087Y1038994D02*
G03*
X590690Y1028469I146913J-38994D01*
G01*
X598199Y1038748D02*
G03*
X595285Y1025816I141801J-38748D01*
G01*
X587209Y1043999D02*
G03*
X584287Y1032166I152791J-43999D01*
G01*
X582125Y1044403D02*
G03*
X579734Y1034795I157875J-44403D01*
G01*
X623695Y1052860D02*
G03*
X610182Y1037045I10528J-22675D01*
G01*
X624423Y1057807D02*
G03*
X605084Y1037386I9572J-28432D01*
G01*
X626358Y1069224D02*
G03*
X598199Y1038748I15249J-42338D01*
G01*
X627302Y1074134D02*
G03*
X593087Y1038994I14112J-47967D01*
G01*
X629734Y1085456D02*
G03*
X587209Y1043999I15132J-58060D01*
G01*
X630890Y1090321D02*
G03*
X582125Y1044403I13808J-63517D01*
G01*
X576559Y1013533D02*
G03*
X576000Y1000000I163441J-13534D01*
G01*
X581364Y1010759D02*
G03*
X581000Y1000000I158636J-10759D01*
G01*
X588154Y1006839D02*
G03*
X588000Y1000000I151846J-6839D01*
G01*
X593055Y1004010D02*
G03*
X593000Y1000000I146945J-4010D01*
G01*
X601753Y1022082D02*
G03*
X600000Y1000000I138247J-22082D01*
G01*
X606401Y1019398D02*
G03*
X605000Y1000000I133599J-19398D01*
G01*
X595285Y1025816D02*
G03*
X593055Y1004010I144715J-25816D01*
G01*
X590690Y1028469D02*
G03*
X588154Y1006839I149310J-28469D01*
G01*
X584287Y1032166D02*
G03*
X581364Y1010759I155712J-32166D01*
G01*
X579734Y1034795D02*
G03*
X576559Y1013533I160266J-34795D01*
G01*
X829471Y1022450D02*
G03*
X828070Y1004899I170529J-22450D01*
G01*
X841369Y1020884D02*
G03*
X840217Y1008326I158631J-20884D01*
G01*
X853266Y1019318D02*
G03*
X852199Y1007671I146734J-19318D01*
G01*
X820385Y988227D02*
G03*
X840217Y1008326I-1390J21205D01*
G01*
X828561Y981827D02*
G03*
X852199Y1007671I-3869J27271D01*
G01*
X834429Y1021798D02*
G03*
X833226Y1008690I165571J-21798D01*
G01*
X846326Y1020231D02*
G03*
X845208Y1008033I153674J-20231D01*
G01*
X858223Y1018665D02*
G03*
X857270Y1008777I141777J-18665D01*
G01*
X826035Y988598D02*
G03*
X845208Y1008033I-1344J20500D01*
G01*
X831285Y981523D02*
G03*
X857270Y1008777I-3181J29047D01*
G01*
X824194Y996164D02*
G03*
X833226Y1008690I-5198J13268D01*
G01*
X821190Y996408D02*
G03*
X828070Y1004899I-2116J8748D01*
G01*
X653590Y1200000D02*
G03*
X639300Y1165080I121243J-70000D01*
G01*
Y1165080D02*
G03*
X645837Y1137727I29043J-7517D01*
G01*
X657920Y1197500D02*
G03*
X643885Y1162827I116913J-67500D01*
G01*
X628106Y1169687D02*
G03*
X640167Y1122147I48266J-13055D01*
G01*
X643197Y1206000D02*
G03*
X628106Y1169687I131636J-76000D01*
G01*
X632656Y1167344D02*
G03*
X641805Y1126871I43524J-11432D01*
G01*
X647528Y1203500D02*
G03*
X632656Y1167344I127306J-73500D01*
G01*
X615909Y1170483D02*
G03*
X635181Y1106335I62989J-16045D01*
G01*
X632805Y1212000D02*
G03*
X615909Y1170483I142028J-82000D01*
G01*
X620513Y1168291D02*
G03*
X636612Y1111126I58234J-14449D01*
G01*
X637135Y1209500D02*
G03*
X620513Y1168291I137698J-79500D01*
G01*
X643885Y1162827D02*
G03*
X647680Y1142374I24250J-6079D01*
G01*
X832660Y1039766D02*
G03*
X829471Y1022450I167340J-39766D01*
G01*
X836660Y1034770D02*
G03*
X834429Y1021798I163340J-34769D01*
G01*
X843506Y1033312D02*
G03*
X841369Y1020884I156494J-33312D01*
G01*
X848403Y1032303D02*
G03*
X846326Y1020231I151596J-32303D01*
G01*
X855250Y1030844D02*
G03*
X853266Y1019318I144750J-30844D01*
G01*
X859861Y1028463D02*
G03*
X858223Y1018665I140139J-28463D01*
G01*
X832660Y1039766D02*
G03*
X828212Y1049749I-8756J2081D01*
G01*
X836660Y1034770D02*
G03*
X831177Y1049207I-13938J2967D01*
G01*
X843506Y1033312D02*
G03*
X829552Y1057859I-20784J4424D01*
G01*
X848403Y1032303D02*
G03*
X834914Y1056039I-20093J4282D01*
G01*
X855250Y1030844D02*
G03*
X839106Y1061925I-26939J5740D01*
G01*
X859861Y1028463D02*
G03*
X841816Y1061514I-28636J5816D01*
G01*
X680931Y1226991D02*
G03*
X668832Y1213599I93903J-96991D01*
G01*
X676686Y1229835D02*
G03*
X666149Y1218248I98147J-99835D01*
G01*
X667100Y1237226D02*
G03*
X659762Y1229310I107733J-107226D01*
G01*
X671404Y1234457D02*
G03*
X662414Y1224715I103429J-104458D01*
G01*
X664512Y1244500D02*
G03*
X656065Y1235713I110321J-114500D01*
G01*
X660311Y1247391D02*
G03*
X653436Y1240266I114522J-117391D01*
G01*
X700540Y1233931D02*
G03*
X680931Y1226991I-2220J-24901D01*
G01*
X703644Y1237851D02*
G03*
X676686Y1229835I-5926J-29409D01*
G01*
X711029Y1246771D02*
G03*
X671404Y1234457I-7963J-44290D01*
G01*
X714301Y1250551D02*
G03*
X667100Y1237226I-11762J-48597D01*
G01*
X722068Y1259140D02*
G03*
X664512Y1244500I-15925J-57848D01*
G01*
X725502Y1262775D02*
G03*
X660311Y1247391I-19800J-61911D01*
G01*
X640056Y1223441D02*
G03*
X632805Y1212000I134777J-93441D01*
G01*
X642831Y1218636D02*
G03*
X637135Y1209500I132003J-88636D01*
G01*
X646750Y1211846D02*
G03*
X643197Y1206000I128083J-81846D01*
G01*
X649580Y1206945D02*
G03*
X647528Y1203500I125253J-76945D01*
G01*
X666149Y1218248D02*
G03*
X653590Y1200000I108685J-88247D01*
G01*
X668832Y1213599D02*
G03*
X657920Y1197500I106001J-83599D01*
G01*
X662414Y1224715D02*
G03*
X649580Y1206945I112419J-94715D01*
G01*
X659762Y1229310D02*
G03*
X646750Y1211846I115072J-99310D01*
G01*
X656065Y1235713D02*
G03*
X642831Y1218636I118768J-105712D01*
G01*
X653436Y1240266D02*
G03*
X640056Y1223441I121397J-110266D01*
G01*
X863543Y1104707D02*
G03*
X853553Y1090208I136457J-104707D01*
G01*
X873063Y1097402D02*
G03*
X865787Y1087102I126937J-97402D01*
G01*
X882584Y1090097D02*
G03*
X875836Y1080543I117416J-90097D01*
G01*
X838563Y1079612D02*
G03*
X865787Y1087102I9399J19059D01*
G01*
X842443Y1069981D02*
G03*
X875836Y1080543I10285J25552D01*
G01*
X867510Y1101663D02*
G03*
X859915Y1090913I132490J-101663D01*
G01*
X877030Y1094358D02*
G03*
X869963Y1084353I122970J-94358D01*
G01*
X886550Y1087053D02*
G03*
X880780Y1078966I113450J-87053D01*
G01*
X843641Y1077108D02*
G03*
X869963Y1084353I9086J18426D01*
G01*
X844650Y1068356D02*
G03*
X880780Y1078966I11769J26746D01*
G01*
X845829Y1084581D02*
G03*
X859915Y1090913I2132J14090D01*
G01*
X843350Y1086294D02*
G03*
X853553Y1090208I2541J8634D01*
G01*
X800000Y1346410D02*
G03*
X770165Y1323314I70000J-121243D01*
G01*
Y1323314D02*
G03*
X762149Y1296356I21393J-21032D01*
G01*
X802500Y1342080D02*
G03*
X773009Y1319069I67500J-116913D01*
G01*
X762774Y1332900D02*
G03*
X749449Y1285699I35272J-35439D01*
G01*
X794000Y1356803D02*
G03*
X762774Y1332900I76000J-131636D01*
G01*
X765543Y1328596D02*
G03*
X753229Y1288971I31977J-31662D01*
G01*
X796500Y1352472D02*
G03*
X765543Y1328596I73500J-127306D01*
G01*
X752609Y1339689D02*
G03*
X737225Y1274498I46527J-45390D01*
G01*
X788000Y1367195D02*
G03*
X752609Y1339689I82000J-142028D01*
G01*
X755500Y1335488D02*
G03*
X740860Y1277932I43208J-41631D01*
G01*
X790500Y1362865D02*
G03*
X755500Y1335488I79500J-137698D01*
G01*
X773009Y1319069D02*
G03*
X766069Y1299460I17961J-17389D01*
G01*
X874962Y1118109D02*
G03*
X863543Y1104707I125037J-118109D01*
G01*
X875928Y1111781D02*
G03*
X867510Y1101663I124072J-111781D01*
G01*
X881128Y1107096D02*
G03*
X873063Y1097402I118872J-107096D01*
G01*
X884865Y1103773D02*
G03*
X877030Y1094358I115135J-103773D01*
G01*
X890065Y1099087D02*
G03*
X882584Y1090097I109935J-99087D01*
G01*
X892868Y1094719D02*
G03*
X886550Y1087053I107132J-94719D01*
G01*
X874963Y1118109D02*
G03*
X876102Y1128978I-6543J6180D01*
G01*
X875928Y1111781D02*
G03*
X878398Y1127026I-10587J9538D01*
G01*
X881128Y1107096D02*
G03*
X881317Y1135331I-15788J14224D01*
G01*
X884865Y1103773D02*
G03*
X885051Y1131074I-15260J13755D01*
G01*
X890065Y1099087D02*
G03*
X891624Y1134076I-20460J18441D01*
G01*
X892868Y1094719D02*
G03*
X893765Y1132365I-21892J19355D01*
G01*
X837173Y1356115D02*
G03*
X820000Y1350566I32827J-130948D01*
G01*
X834920Y1360700D02*
G03*
X820000Y1355934I35080J-135534D01*
G01*
X830313Y1371894D02*
G03*
X820000Y1368707I39687J-146728D01*
G01*
X832656Y1367344D02*
G03*
X820000Y1363402I37344J-142177D01*
G01*
X857626Y1352320D02*
G03*
X837173Y1356115I-14373J-20455D01*
G01*
X862273Y1354163D02*
G03*
X834920Y1360700I-19837J-22506D01*
G01*
X873129Y1358195D02*
G03*
X832656Y1367344I-29041J-34375D01*
G01*
X877853Y1359833D02*
G03*
X830313Y1371894I-34485J-36205D01*
G01*
X800000Y1373477D02*
G03*
X788000Y1367195I70000J-148310D01*
G01*
X800000Y1367929D02*
G03*
X790500Y1362865I70000J-142762D01*
G01*
X800000Y1360089D02*
G03*
X794000Y1356803I70000J-134922D01*
G01*
X800000Y1354430D02*
G03*
X796500Y1352472I70000J-129263D01*
G01*
X934178Y1158907D02*
G03*
X918278Y1151345I65822J-158907D01*
G01*
X938770Y1147821D02*
G03*
X927319Y1142539I61230J-147821D01*
G01*
X943363Y1136734D02*
G03*
X932742Y1131835I56637J-136734D01*
G01*
X899997Y1149665D02*
G03*
X927319Y1142539I17669J11806D01*
G01*
X898542Y1139384D02*
G03*
X932742Y1131835I21683J16986D01*
G01*
X936092Y1154288D02*
G03*
X924139Y1148775I63908J-154288D01*
G01*
X940684Y1143201D02*
G03*
X929561Y1138070I59316J-143201D01*
G01*
X945276Y1132115D02*
G03*
X936236Y1127997I54724J-132115D01*
G01*
X903143Y1144957D02*
G03*
X929561Y1138070I17082J11414D01*
G01*
X899641Y1136873D02*
G03*
X936236Y1127997I23565J17279D01*
G01*
X908775Y1150335D02*
G03*
X924139Y1148775I8891J11136D01*
G01*
X907484Y1153058D02*
G03*
X918278Y1151345I6517J6207D01*
G01*
X1000000Y1400000D02*
G03*
X962614Y1394916I0J-140000D01*
G01*
X962614Y1394916D02*
G03*
X942193Y1375577I8011J-28911D01*
G01*
X1000000Y1395000D02*
G03*
X962955Y1389818I0J-135000D01*
G01*
X961006Y1406913D02*
G03*
X925866Y1372698I12827J-48327D01*
G01*
X1000000Y1412000D02*
G03*
X961006Y1406913I0J-152000D01*
G01*
X961252Y1401801D02*
G03*
X930776Y1373642I11862J-43408D01*
G01*
X1000000Y1407000D02*
G03*
X961252Y1401801I0J-147000D01*
G01*
X955597Y1417875D02*
G03*
X909679Y1369110I17599J-62572D01*
G01*
X1000000Y1424000D02*
G03*
X955597Y1417875I0J-164000D01*
G01*
X956001Y1412791D02*
G03*
X914544Y1370266I16603J-57657D01*
G01*
X1000000Y1419000D02*
G03*
X956001Y1412791I0J-159000D01*
G01*
X962955Y1389818D02*
G03*
X947140Y1376306I6860J-24040D01*
G01*
X950769Y1164804D02*
G03*
X934178Y1158907I49231J-164804D01*
G01*
X948441Y1158842D02*
G03*
X936092Y1154288I51559J-158842D01*
G01*
X950602Y1152184D02*
G03*
X938770Y1147821I49398J-152184D01*
G01*
X952177Y1147438D02*
G03*
X940684Y1143201I47823J-147438D01*
G01*
X954337Y1140779D02*
G03*
X943363Y1136734I45663J-140779D01*
G01*
X954581Y1135595D02*
G03*
X945276Y1132115I45419J-135595D01*
G01*
X950769Y1164804D02*
G03*
X957190Y1173647I-2576J8623D01*
G01*
X948441Y1158842D02*
G03*
X958203Y1170808I-4399J13554D01*
G01*
X950602Y1152184D02*
G03*
X964883Y1176541I-6561J20212D01*
G01*
X952177Y1147438D02*
G03*
X965988Y1170988I-6339J19542D01*
G01*
X954337Y1140779D02*
G03*
X973182Y1170301I-8498J26200D01*
G01*
X954581Y1135595D02*
G03*
X974181Y1167749I-9281J27708D01*
G01*
X1037045Y1389818D02*
G03*
X1019398Y1393599I-37045J-129818D01*
G01*
X1037386Y1394916D02*
G03*
X1022082Y1398248I-37386J-134916D01*
G01*
X1038994Y1406913D02*
G03*
X1028469Y1409310I-38994J-146913D01*
G01*
X1038748Y1401801D02*
G03*
X1025816Y1404715I-38748J-141801D01*
G01*
X1052860Y1376306D02*
G03*
X1037045Y1389818I-22675J-10528D01*
G01*
X1057807Y1375577D02*
G03*
X1037386Y1394916I-28432J-9572D01*
G01*
X1069224Y1373642D02*
G03*
X1038748Y1401801I-42338J-15249D01*
G01*
X1074134Y1372698D02*
G03*
X1038994Y1406913I-47967J-14112D01*
G01*
X1013533Y1423441D02*
G03*
X1000000Y1424000I-13534J-163441D01*
G01*
X1010759Y1418636D02*
G03*
X1000000Y1419000I-10759J-158636D01*
G01*
X1006839Y1411846D02*
G03*
X1000000Y1412000I-6839J-151846D01*
G01*
X1004010Y1406945D02*
G03*
X1000000Y1407000I-4010J-146945D01*
G01*
X1022450Y1170529D02*
G03*
X1004899Y1171930I-22450J-170529D01*
G01*
X1020884Y1158631D02*
G03*
X1008326Y1159783I-20884J-158631D01*
G01*
X1019318Y1146734D02*
G03*
X1007671Y1147801I-19318J-146734D01*
G01*
X988227Y1179615D02*
G03*
X1008326Y1159783I21205J1390D01*
G01*
X981827Y1171439D02*
G03*
X1007671Y1147801I27271J3869D01*
G01*
X1021798Y1165571D02*
G03*
X1008690Y1166774I-21798J-165571D01*
G01*
X1020231Y1153674D02*
G03*
X1008033Y1154792I-20231J-153674D01*
G01*
X1018665Y1141777D02*
G03*
X1008777Y1142730I-18665J-141777D01*
G01*
X988598Y1173965D02*
G03*
X1008033Y1154792I20500J1344D01*
G01*
X981523Y1168715D02*
G03*
X1008777Y1142730I29047J3181D01*
G01*
X996164Y1175806D02*
G03*
X1008690Y1166774I13268J5198D01*
G01*
X996408Y1178810D02*
G03*
X1004899Y1171930I8748J2116D01*
G01*
X1200000Y1346410D02*
G03*
X1165080Y1360700I-70000J-121243D01*
G01*
X1165080D02*
G03*
X1137727Y1354163I-7517J-29043D01*
G01*
X1197500Y1342080D02*
G03*
X1162827Y1356115I-67500J-116913D01*
G01*
X1169687Y1371894D02*
G03*
X1122147Y1359833I-13055J-48266D01*
G01*
X1206000Y1356803D02*
G03*
X1169687Y1371894I-76000J-131636D01*
G01*
X1167344Y1367344D02*
G03*
X1126871Y1358195I-11432J-43524D01*
G01*
X1203500Y1352472D02*
G03*
X1167344Y1367344I-73500J-127306D01*
G01*
X1170483Y1384091D02*
G03*
X1106335Y1364819I-16045J-62989D01*
G01*
X1212000Y1367195D02*
G03*
X1170483Y1384091I-82000J-142028D01*
G01*
X1168291Y1379487D02*
G03*
X1111126Y1363388I-14449J-58234D01*
G01*
X1209500Y1362865D02*
G03*
X1168291Y1379487I-79500J-137698D01*
G01*
X1162827Y1356115D02*
G03*
X1142374Y1352320I-6079J-24250D01*
G01*
X1039766Y1167340D02*
G03*
X1022450Y1170529I-39766J-167340D01*
G01*
X1034770Y1163340D02*
G03*
X1021798Y1165571I-34769J-163340D01*
G01*
X1033312Y1156494D02*
G03*
X1020884Y1158631I-33312J-156494D01*
G01*
X1032303Y1151597D02*
G03*
X1020231Y1153674I-32303J-151596D01*
G01*
X1030844Y1144750D02*
G03*
X1019318Y1146734I-30844J-144750D01*
G01*
X1028463Y1140139D02*
G03*
X1018665Y1141777I-28463J-140139D01*
G01*
X1039766Y1167340D02*
G03*
X1049749Y1171788I2081J8756D01*
G01*
X1034770Y1163340D02*
G03*
X1049207Y1168823I2967J13938D01*
G01*
X1033312Y1156494D02*
G03*
X1057859Y1170448I4424J20784D01*
G01*
X1032303Y1151597D02*
G03*
X1056039Y1165086I4282J20093D01*
G01*
X1030844Y1144750D02*
G03*
X1061925Y1160894I5740J26939D01*
G01*
X1028463Y1140139D02*
G03*
X1061514Y1158184I5816J28636D01*
G01*
X1226991Y1319069D02*
G03*
X1213599Y1331168I-96991J-93903D01*
G01*
X1229835Y1323314D02*
G03*
X1218248Y1333851I-99835J-98147D01*
G01*
X1237226Y1332900D02*
G03*
X1229310Y1340238I-107226J-107733D01*
G01*
X1234457Y1328596D02*
G03*
X1224715Y1337585I-104458J-103429D01*
G01*
X1233931Y1299460D02*
G03*
X1226991Y1319069I-24901J2220D01*
G01*
X1237851Y1296356D02*
G03*
X1229835Y1323314I-29409J5926D01*
G01*
X1246771Y1288971D02*
G03*
X1234457Y1328596I-44290J7963D01*
G01*
X1250551Y1285699D02*
G03*
X1237226Y1332900I-48597J11762D01*
G01*
X1223441Y1359944D02*
G03*
X1212000Y1367195I-93441J-134777D01*
G01*
X1218636Y1357169D02*
G03*
X1209500Y1362865I-88636J-132003D01*
G01*
X1211846Y1353250D02*
G03*
X1206000Y1356803I-81846J-128083D01*
G01*
X1206945Y1350420D02*
G03*
X1203500Y1352472I-76945J-125253D01*
G01*
X1200000Y1346410D02*
X1201830Y1339580D01*
X1201830Y1339580D02*
X1201830Y1339580D01*
X1199330Y1335250D02*
X1201830Y1339580D01*
X1199330Y1335250D02*
X1199330D01*
X1190670Y1340250D02*
X1199330Y1335250D01*
X1193170Y1344580D02*
X1201830Y1339580D01*
X1201830Y1339580D01*
X1190670Y1340250D02*
X1195670Y1348910D01*
X1195000Y1337750D02*
X1200000Y1346410D01*
X800000D02*
X806830Y1344580D01*
X806830Y1344580D01*
X809330Y1340250D01*
Y1340250D02*
Y1340250D01*
X800670Y1335250D02*
X809330Y1340250D01*
X798170Y1339580D02*
X806830Y1344580D01*
X806830Y1344580D01*
X795670Y1343910D02*
X800670Y1335250D01*
X800000Y1346410D02*
X805000Y1337750D01*
X1000000Y1390000D02*
X1000000Y1400000D01*
X995000Y1390000D02*
X995000Y1400000D01*
X1005000Y1395000D02*
X1005000Y1395000D01*
X995000Y1395000D02*
X1005000D01*
X995000Y1390000D02*
X1005000D01*
X1005000Y1390000D02*
X1005000Y1390000D01*
Y1395000D01*
Y1395000D01*
X1000000Y1400000D02*
X1005000Y1395000D01*
X1042783Y1174842D02*
X1090321Y1369110D01*
X1035116Y1176541D02*
X1074134Y1372698D01*
X765203Y1292551D02*
X884129Y1144373D01*
X887334Y1140379D01*
X1206945Y1350420D02*
X1213599Y1331168D01*
X1211846Y1353250D02*
X1218248Y1333851D01*
X1218635Y1357170D02*
X1224715Y1337585D01*
X1223441Y1359944D02*
X1229310Y1340238D01*
X800000Y1354430D02*
X820000Y1350566D01*
X800000Y1360089D02*
X820000Y1355934D01*
X800000Y1367929D02*
X820000Y1363402D01*
X800000Y1373477D02*
X820000Y1368707D01*
X1013533Y1423441D02*
X1028469Y1409310D01*
X1010759Y1418636D02*
X1025816Y1404715D01*
X1006839Y1411846D02*
X1022082Y1398248D01*
X1004010Y1406945D02*
X1019398Y1393599D01*
X1072494Y1164756D02*
X1153044Y1347818D01*
X1079612Y1161437D02*
X1168070Y1340812D01*
X1086578Y1157811D02*
X1182776Y1333156D01*
X1084581Y1154171D02*
X1086578Y1157811D01*
X1077108Y1156359D02*
X1079612Y1161437D01*
X1068356Y1155350D02*
X1072494Y1164756D01*
X1086294Y1156650D02*
X1086578Y1157811D01*
X1069981Y1157557D02*
X1072494Y1164756D01*
X1285699Y1250551D02*
X1288971Y1246771D01*
X1274498Y1262775D02*
X1277932Y1259140D01*
X1296356Y1237851D02*
X1299460Y1233931D01*
X1140379Y1112666D02*
X1296356Y1237851D01*
X1135331Y1118682D02*
X1285699Y1250551D01*
X1130025Y1124472D02*
X1274498Y1262775D01*
X1172809Y1050369D02*
X1364819Y1106335D01*
X1170447Y1057859D02*
X1359833Y1122147D01*
X1167761Y1065239D02*
X1354163Y1137727D01*
X1093379Y1153884D02*
X1197134Y1324866D01*
X1100003Y1149665D02*
X1211117Y1315959D01*
X1106436Y1145160D02*
X1224698Y1306449D01*
X1132365Y1106235D02*
X1140379Y1112667D01*
X1134076Y1108376D02*
X1140379Y1112667D01*
X1131074Y1114949D02*
X1135331Y1118683D01*
X1127026Y1121602D02*
X1130025Y1124473D01*
X1363388Y1111126D02*
X1364819Y1106335D01*
X1358195Y1126871D02*
X1359833Y1122147D01*
X1352320Y1142374D02*
X1354163Y1137727D01*
X1128978Y1123898D02*
X1130025Y1124473D01*
X1145160Y1106436D02*
X1306449Y1224698D01*
X1149665Y1100003D02*
X1315959Y1211117D01*
X1153884Y1093379D02*
X1324866Y1197134D01*
X1150335Y1091225D02*
X1153884Y1093379D01*
X1144957Y1096857D02*
X1149665Y1100003D01*
X1136873Y1100359D02*
X1145160Y1106436D01*
X1153058Y1092516D02*
X1153884Y1093379D01*
X1139384Y1101458D02*
X1145160Y1106436D01*
X1372698Y1074134D02*
X1373642Y1069224D01*
X1369110Y1090321D02*
X1370267Y1085456D01*
X1375577Y1057807D02*
X1376306Y1052860D01*
X1177905Y1027382D02*
X1375577Y1057807D01*
X1176541Y1035116D02*
X1372698Y1074134D01*
X1174842Y1042783D02*
X1369110Y1090321D01*
X1174842Y957217D02*
X1369110Y909679D01*
X1176541Y964884D02*
X1372698Y925866D01*
X1177905Y972618D02*
X1375577Y942193D01*
X1157811Y1086578D02*
X1333156Y1182776D01*
X1161437Y1079612D02*
X1340812Y1168070D01*
X1164756Y1072494D02*
X1347818Y1153044D01*
X1167749Y1025819D02*
X1177905Y1027383D01*
X1170301Y1026818D02*
X1177905Y1027383D01*
X1170988Y1034012D02*
X1176541Y1035117D01*
X1170808Y1041797D02*
X1174841Y1042784D01*
X1369110Y909679D02*
X1370266Y914544D01*
X1372698Y925866D02*
X1373642Y930776D01*
X1375577Y942193D02*
X1376306Y947140D01*
X1173647Y1042810D02*
X1174841Y1042784D01*
X1178930Y1019596D02*
X1377741Y1041369D01*
X1179615Y1011773D02*
X1379186Y1024853D01*
X1179957Y1003927D02*
X1379910Y1008290D01*
X1175806Y1003836D02*
X1179957Y1003927D01*
X1173965Y1011402D02*
X1179615Y1011773D01*
X1168715Y1018477D02*
X1178930Y1019596D01*
X1178810Y1003592D02*
X1179957Y1003927D01*
X1171439Y1018173D02*
X1178930Y1019596D01*
X1358195Y873129D02*
X1359833Y877853D01*
X1363388Y888874D02*
X1364819Y893665D01*
X1352320Y857626D02*
X1354163Y862274D01*
X1167762Y934761D02*
X1354163Y862274D01*
X1170447Y942141D02*
X1359833Y877853D01*
X1172809Y949631D02*
X1364819Y893665D01*
X1130025Y875528D02*
X1274498Y737225D01*
X1135331Y881318D02*
X1285699Y749449D01*
X1140379Y887334D02*
X1296356Y762149D01*
X1179957Y996073D02*
X1379910Y991710D01*
X1179615Y988227D02*
X1379186Y975147D01*
X1178930Y980404D02*
X1377741Y958631D01*
X1158184Y938486D02*
X1167762Y934762D01*
X1160894Y938075D02*
X1167762Y934762D01*
X1165086Y943961D02*
X1170448Y942141D01*
X1168823Y950793D02*
X1172809Y949631D01*
X1274498Y737225D02*
X1277932Y740860D01*
X1285699Y749449D02*
X1288971Y753229D01*
X1296356Y762149D02*
X1299460Y766069D01*
X1171788Y950251D02*
X1172809Y949631D01*
X1164756Y927506D02*
X1347818Y846956D01*
X1161437Y920388D02*
X1340812Y831930D01*
X1157811Y913422D02*
X1333156Y817224D01*
X1154171Y915419D02*
X1157811Y913422D01*
X1156359Y922892D02*
X1161437Y920388D01*
X1155350Y931644D02*
X1164756Y927506D01*
X1156650Y913706D02*
X1157811Y913422D01*
X1157557Y930019D02*
X1164756Y927506D01*
X1246771Y711029D02*
X1250551Y714301D01*
X1259140Y722068D02*
X1262775Y725502D01*
X1233931Y700540D02*
X1237851Y703644D01*
X1112666Y859621D02*
X1237851Y703644D01*
X1118682Y864669D02*
X1250551Y714301D01*
X1124472Y869975D02*
X1262775Y725502D01*
X1050369Y827191D02*
X1106335Y635181D01*
X1057859Y829553D02*
X1122147Y640167D01*
X1065239Y832239D02*
X1137727Y645837D01*
X1153884Y906621D02*
X1324866Y802866D01*
X1149665Y899997D02*
X1315959Y788883D01*
X1145160Y893564D02*
X1306449Y775302D01*
X1106235Y867635D02*
X1112667Y859621D01*
X1108376Y865924D02*
X1112667Y859621D01*
X1114949Y868926D02*
X1118683Y864669D01*
X1121602Y872974D02*
X1124473Y869975D01*
X1106335Y635181D02*
X1111126Y636612D01*
X1122147Y640167D02*
X1126871Y641805D01*
X1137727Y645837D02*
X1142374Y647680D01*
X1123898Y871022D02*
X1124473Y869975D01*
X1106436Y854840D02*
X1224698Y693551D01*
X1100003Y850335D02*
X1211117Y684042D01*
X1093379Y846116D02*
X1197134Y675134D01*
X1091225Y849665D02*
X1093379Y846116D01*
X1096857Y855043D02*
X1100003Y850335D01*
X1100359Y863127D02*
X1106436Y854840D01*
X1092516Y846942D02*
X1093379Y846116D01*
X1101458Y860616D02*
X1106436Y854840D01*
X1069224Y626358D02*
X1074134Y627302D01*
X1085456Y629734D02*
X1090321Y630890D01*
X1052860Y623694D02*
X1057807Y624423D01*
X1027382Y822095D02*
X1057807Y624423D01*
X1035116Y823459D02*
X1074134Y627302D01*
X1042783Y825158D02*
X1090321Y630890D01*
X909679D02*
X957217Y825158D01*
X925866Y627302D02*
X964884Y823459D01*
X942193Y624423D02*
X972618Y822095D01*
X1086578Y842189D02*
X1182776Y666844D01*
X1079612Y838563D02*
X1168070Y659188D01*
X1072494Y835244D02*
X1153044Y652182D01*
X1025819Y832251D02*
X1027383Y822095D01*
X1026818Y829699D02*
X1027383Y822095D01*
X1034012Y829012D02*
X1035117Y823459D01*
X1041797Y829192D02*
X1042784Y825159D01*
X909679Y630890D02*
X914544Y629734D01*
X925866Y627302D02*
X930776Y626358D01*
X942193Y624423D02*
X947140Y623695D01*
X1042784Y825159D02*
X1042810Y826353D01*
X1019596Y821070D02*
X1041369Y622259D01*
X1011773Y820385D02*
X1024853Y620814D01*
X1003927Y820043D02*
X1008290Y620090D01*
X1003836Y824194D02*
X1003927Y820043D01*
X1011402Y826035D02*
X1011773Y820385D01*
X1018477Y831285D02*
X1019596Y821070D01*
X1003592Y821190D02*
X1003927Y820043D01*
X1018173Y828561D02*
X1019596Y821070D01*
X873129Y641805D02*
X877853Y640167D01*
X888874Y636612D02*
X893665Y635181D01*
X857626Y647680D02*
X862274Y645837D01*
X934761Y832238D01*
X877853Y640167D02*
X942141Y829553D01*
X893665Y635181D02*
X949631Y827191D01*
X737225Y725502D02*
X875528Y869975D01*
X749449Y714301D02*
X881318Y864669D01*
X762149Y703644D02*
X887334Y859621D01*
X991710Y620090D02*
X996073Y820043D01*
X975147Y620814D02*
X988227Y820385D01*
X958631Y622259D02*
X980404Y821070D01*
X934762Y832238D02*
X938486Y841816D01*
X934762Y832238D02*
X938075Y839106D01*
X942141Y829552D02*
X943961Y834914D01*
X949631Y827191D02*
X950793Y831177D01*
X737225Y725502D02*
X740860Y722068D01*
X749449Y714301D02*
X753229Y711029D01*
X762149Y703644D02*
X766069Y700540D01*
X949631Y827191D02*
X950251Y828212D01*
X846956Y652182D02*
X927506Y835244D01*
X831930Y659188D02*
X920388Y838563D01*
X817224Y666844D02*
X913422Y842189D01*
X915419Y845829D01*
X920388Y838563D02*
X922892Y843641D01*
X927506Y835244D02*
X931644Y844650D01*
X913422Y842189D02*
X913706Y843350D01*
X927506Y835244D02*
X930019Y842443D01*
X711029Y753229D02*
X714301Y749449D01*
X722068Y740860D02*
X725502Y737225D01*
X700540Y766069D02*
X703644Y762149D01*
X859621Y887334D01*
X714301Y749449D02*
X864669Y881318D01*
X725502Y737225D02*
X869975Y875528D01*
X635181Y893665D02*
X827191Y949631D01*
X640167Y877853D02*
X829553Y942141D01*
X645837Y862274D02*
X832239Y934761D01*
X802866Y675134D02*
X906621Y846116D01*
X788883Y684042D02*
X899997Y850335D01*
X775302Y693551D02*
X893564Y854840D01*
X859621Y887333D02*
X867635Y893765D01*
X859621Y887333D02*
X865924Y891624D01*
X864669Y881317D02*
X868926Y885051D01*
X869975Y875527D02*
X872974Y878398D01*
X635181Y893665D02*
X636612Y888874D01*
X640167Y877853D02*
X641805Y873129D01*
X645837Y862274D02*
X647680Y857626D01*
X869975Y875527D02*
X871022Y876102D01*
X693551Y775302D02*
X854840Y893564D01*
X684042Y788883D02*
X850335Y899997D01*
X675134Y802866D02*
X846116Y906621D01*
X849665Y908775D01*
X850335Y899997D02*
X855043Y903143D01*
X854840Y893564D02*
X863127Y899641D01*
X846116Y906621D02*
X846942Y907484D01*
X854840Y893564D02*
X860616Y898542D01*
X626358Y930776D02*
X627302Y925866D01*
X629734Y914544D02*
X630890Y909679D01*
X623694Y947140D02*
X624423Y942193D01*
X822095Y972618D01*
X627302Y925866D02*
X823459Y964884D01*
X630890Y909679D02*
X825158Y957217D01*
X630890Y1090321D02*
X825158Y1042783D01*
X627302Y1074134D02*
X823459Y1035116D01*
X624423Y1057807D02*
X822095Y1027382D01*
X666844Y817224D02*
X842189Y913422D01*
X659188Y831930D02*
X838563Y920388D01*
X652182Y846956D02*
X835244Y927506D01*
X822095Y972617D02*
X832251Y974181D01*
X822095Y972617D02*
X829699Y973182D01*
X823459Y964883D02*
X829012Y965988D01*
X825159Y957216D02*
X829192Y958203D01*
X629734Y1085456D02*
X630890Y1090321D01*
X626358Y1069224D02*
X627302Y1074134D01*
X623695Y1052860D02*
X624423Y1057807D01*
X825159Y957216D02*
X826353Y957190D01*
X622259Y958631D02*
X821070Y980404D01*
X620814Y975147D02*
X820385Y988227D01*
X620090Y991710D02*
X820043Y996073D01*
X824194Y996164D01*
X820385Y988227D02*
X826035Y988598D01*
X821070Y980404D02*
X831285Y981523D01*
X820043Y996073D02*
X821190Y996408D01*
X821070Y980404D02*
X828561Y981827D01*
X640167Y1122147D02*
X641805Y1126871D01*
X635181Y1106335D02*
X636612Y1111126D01*
X645837Y1137727D02*
X647680Y1142374D01*
X645837Y1137727D02*
X832238Y1065239D01*
X640167Y1122147D02*
X829553Y1057859D01*
X635181Y1106335D02*
X827191Y1050369D01*
X725502Y1262775D02*
X869975Y1124472D01*
X714301Y1250551D02*
X864669Y1118682D01*
X703644Y1237851D02*
X859621Y1112666D01*
X620090Y1008290D02*
X820043Y1003927D01*
X620814Y1024853D02*
X820385Y1011773D01*
X622259Y1041369D02*
X821070Y1019596D01*
X832238Y1065238D02*
X841816Y1061514D01*
X832238Y1065238D02*
X839106Y1061925D01*
X829552Y1057859D02*
X834914Y1056039D01*
X827191Y1050369D02*
X831177Y1049207D01*
X722068Y1259140D02*
X725502Y1262775D01*
X711029Y1246771D02*
X714301Y1250551D01*
X700540Y1233931D02*
X703644Y1237851D01*
X827191Y1050369D02*
X828212Y1049749D01*
X652182Y1153044D02*
X835244Y1072494D01*
X659188Y1168070D02*
X838563Y1079612D01*
X666844Y1182776D02*
X842189Y1086578D01*
X845829Y1084581D01*
X838563Y1079612D02*
X843641Y1077108D01*
X835244Y1072494D02*
X844650Y1068356D01*
X842189Y1086578D02*
X843350Y1086294D01*
X835244Y1072494D02*
X842443Y1069981D01*
X749449Y1285699D02*
X753229Y1288971D01*
X737225Y1274498D02*
X740860Y1277932D01*
X762149Y1296356D02*
X766069Y1299460D01*
X762149Y1296356D02*
X765203Y1292551D01*
X749449Y1285699D02*
X881318Y1135331D01*
X737225Y1274498D02*
X875528Y1130025D01*
X893665Y1364819D02*
X949631Y1172809D01*
X877853Y1359833D02*
X942141Y1170447D01*
X862274Y1354163D02*
X934761Y1167761D01*
X675134Y1197134D02*
X846116Y1093379D01*
X684042Y1211117D02*
X850335Y1100003D01*
X693551Y1224698D02*
X854840Y1106436D01*
X887333Y1140379D02*
X893765Y1132365D01*
X887333Y1140379D02*
X891624Y1134076D01*
X881317Y1135331D02*
X885051Y1131074D01*
X875527Y1130025D02*
X878398Y1127026D01*
X873129Y1358195D02*
X877853Y1359833D01*
X857626Y1352320D02*
X862274Y1354163D01*
X875527Y1130025D02*
X876102Y1128978D01*
X775302Y1306449D02*
X893564Y1145160D01*
X788883Y1315959D02*
X899997Y1149665D01*
X802866Y1324866D02*
X906621Y1153884D01*
X908775Y1150335D01*
X899997Y1149665D02*
X903143Y1144957D01*
X893564Y1145160D02*
X899641Y1136873D01*
X906621Y1153884D02*
X907484Y1153058D01*
X893564Y1145160D02*
X898542Y1139384D01*
X925866Y1372698D02*
X930776Y1373642D01*
X909679Y1369110D02*
X914544Y1370267D01*
X942193Y1375577D02*
X947140Y1376306D01*
X942193Y1375577D02*
X972618Y1177905D01*
X925866Y1372698D02*
X964884Y1176541D01*
X909679Y1369110D02*
X957217Y1174842D01*
X1027382Y1177905D02*
X1057807Y1375577D01*
X817224Y1333156D02*
X913422Y1157811D01*
X831930Y1340812D02*
X920388Y1161437D01*
X846956Y1347818D02*
X927506Y1164756D01*
X972617Y1177905D02*
X974181Y1167749D01*
X972617Y1177905D02*
X973182Y1170301D01*
X964883Y1176541D02*
X965988Y1170988D01*
X957216Y1174841D02*
X958203Y1170808D01*
X1069224Y1373642D02*
X1074134Y1372698D01*
X1052860Y1376306D02*
X1057807Y1375577D01*
X957190Y1173647D02*
X957216Y1174841D01*
X958631Y1377741D02*
X980404Y1178930D01*
X975147Y1379186D02*
X988227Y1179615D01*
X991710Y1379910D02*
X996073Y1179957D01*
X996164Y1175806D01*
X988227Y1179615D02*
X988598Y1173965D01*
X980404Y1178930D02*
X981523Y1168715D01*
X996073Y1179957D02*
X996408Y1178810D01*
X980404Y1178930D02*
X981827Y1171439D01*
X1122147Y1359833D02*
X1126871Y1358195D01*
X1106335Y1364819D02*
X1111126Y1363388D01*
X1137727Y1354163D02*
X1142374Y1352320D01*
X1065239Y1167761D02*
X1137727Y1354163D01*
X1057859Y1170447D02*
X1122147Y1359833D01*
X1050369Y1172809D02*
X1106335Y1364819D01*
X1124472Y1130025D02*
X1262775Y1274498D01*
X1118682Y1135331D02*
X1250551Y1285699D01*
X1112666Y1140379D02*
X1237851Y1296356D01*
X1003927Y1179957D02*
X1008290Y1379910D01*
X1011773Y1179615D02*
X1024853Y1379186D01*
X1019596Y1178930D02*
X1041369Y1377741D01*
X1061514Y1158184D02*
X1065238Y1167762D01*
X1061925Y1160894D02*
X1065238Y1167762D01*
X1056039Y1165086D02*
X1057859Y1170448D01*
X1049207Y1168823D02*
X1050369Y1172809D01*
X1246771Y1288971D02*
X1250551Y1285699D01*
X1233931Y1299460D02*
X1237851Y1296356D01*
X1049749Y1171788D02*
X1050369Y1172809D01*
D20*
X1200000Y1346410D02*
D03*
X1197500Y1342080D02*
D03*
X1195000Y1337750D02*
D03*
X1201830Y1339580D02*
D03*
X1193170Y1344580D02*
D03*
X1195670Y1348910D02*
D03*
X1190670Y1340250D02*
D03*
X1199330Y1335250D02*
D03*
X1266387Y1271041D02*
D03*
X1269845Y1274653D02*
D03*
X1266233Y1278110D02*
D03*
X1259163Y1277956D02*
D03*
X1262621Y1281568D02*
D03*
X800000Y1346410D02*
D03*
X802500Y1342080D02*
D03*
X805000Y1337750D02*
D03*
X806830Y1344580D02*
D03*
X798170Y1339580D02*
D03*
X795670Y1343910D02*
D03*
X800670Y1335250D02*
D03*
X809330Y1340250D02*
D03*
X898465Y1366218D02*
D03*
X897066Y1371019D02*
D03*
X892266Y1369619D02*
D03*
X888865Y1363420D02*
D03*
X887466Y1368220D02*
D03*
X1086652Y1375155D02*
D03*
X1085464Y1370298D02*
D03*
X1091509Y1373967D02*
D03*
X1096366Y1372778D02*
D03*
X1095177Y1367922D02*
D03*
X1005000Y1390000D02*
D03*
X995000Y1390000D02*
D03*
X995000Y1400000D02*
D03*
X995000Y1395000D02*
D03*
X1005000Y1395000D02*
D03*
X1000000Y1390000D02*
D03*
X800000Y1346410D02*
D03*
X802500Y1342080D02*
D03*
X1000000Y1395000D02*
D03*
X1000000Y1400000D02*
D03*
X988227Y1179615D02*
D03*
X975147Y1379186D02*
D03*
X975474Y1374197D02*
D03*
X987900Y1184604D02*
D03*
X996073Y1179957D02*
D03*
X991710Y1379910D02*
D03*
X991819Y1374911D02*
D03*
X995964Y1184956D02*
D03*
X1003927Y1179957D02*
D03*
X1008290Y1379910D02*
D03*
X1008181Y1374911D02*
D03*
X1004036Y1184956D02*
D03*
X1011773Y1179615D02*
D03*
X1024853Y1379186D02*
D03*
X1024526Y1374197D02*
D03*
X1012100Y1184604D02*
D03*
X1019596Y1178930D02*
D03*
X1041369Y1377741D02*
D03*
X1040825Y1372771D02*
D03*
X1020140Y1183900D02*
D03*
X1027382Y1177905D02*
D03*
X1057807Y1375577D02*
D03*
X1057046Y1370636D02*
D03*
X1028143Y1182847D02*
D03*
X1035116Y1176541D02*
D03*
X1074134Y1372698D02*
D03*
X1073159Y1367794D02*
D03*
X1036092Y1181445D02*
D03*
X1042784Y1174842D02*
D03*
X1090321Y1369110D02*
D03*
X1089132Y1364253D02*
D03*
X1043972Y1179698D02*
D03*
X1050369Y1172809D02*
D03*
X1106335Y1364819D02*
D03*
X1104936Y1360019D02*
D03*
X1051768Y1177609D02*
D03*
X1057859Y1170447D02*
D03*
X1122147Y1359833D02*
D03*
X1120540Y1355099D02*
D03*
X1059466Y1175182D02*
D03*
X1065239Y1167761D02*
D03*
X1137727Y1354163D02*
D03*
X1135914Y1349503D02*
D03*
X1067051Y1172421D02*
D03*
X1072494Y1164756D02*
D03*
X1153044Y1347818D02*
D03*
X1151030Y1343242D02*
D03*
X1074508Y1169333D02*
D03*
X1079612Y1161437D02*
D03*
X1168070Y1340812D02*
D03*
X1165858Y1336327D02*
D03*
X1081823Y1165921D02*
D03*
X1086578Y1157811D02*
D03*
X1182776Y1333156D02*
D03*
X1180371Y1328772D02*
D03*
X1088983Y1162194D02*
D03*
X1093379Y1153884D02*
D03*
X1197134Y1324866D02*
D03*
X1194540Y1320592D02*
D03*
X1095973Y1158159D02*
D03*
X1100003Y1149665D02*
D03*
X1211117Y1315959D02*
D03*
X1208339Y1311801D02*
D03*
X1102781Y1153822D02*
D03*
X1106436Y1145160D02*
D03*
X1224698Y1306449D02*
D03*
X1221741Y1302417D02*
D03*
X1109392Y1149192D02*
D03*
X1112666Y1140379D02*
D03*
X1237851Y1296356D02*
D03*
X1234721Y1292457D02*
D03*
X1115796Y1144279D02*
D03*
X1118682Y1135331D02*
D03*
X1250551Y1285699D02*
D03*
X1247255Y1281940D02*
D03*
X1121979Y1139090D02*
D03*
X1124472Y1130026D02*
D03*
X1262775Y1274498D02*
D03*
X1259317Y1270886D02*
D03*
X1127930Y1133637D02*
D03*
X1130025Y1124472D02*
D03*
X1274498Y1262775D02*
D03*
X1270887Y1259317D02*
D03*
X1133637Y1127930D02*
D03*
X1135331Y1118682D02*
D03*
X1285699Y1250551D02*
D03*
X1281940Y1247255D02*
D03*
X1139090Y1121979D02*
D03*
X1140379Y1112666D02*
D03*
X1296356Y1237851D02*
D03*
X1292457Y1234721D02*
D03*
X1144279Y1115796D02*
D03*
X1145160Y1106436D02*
D03*
X1306449Y1224698D02*
D03*
X1302417Y1221741D02*
D03*
X1149192Y1109392D02*
D03*
X1149665Y1100003D02*
D03*
X1315959Y1211117D02*
D03*
X1311801Y1208339D02*
D03*
X1153822Y1102780D02*
D03*
X1153884Y1093379D02*
D03*
X1324866Y1197134D02*
D03*
X1320592Y1194540D02*
D03*
X1158159Y1095973D02*
D03*
X1157811Y1086578D02*
D03*
X1333156Y1182776D02*
D03*
X1328772Y1180371D02*
D03*
X1162194Y1088983D02*
D03*
X1161437Y1079612D02*
D03*
X1340812Y1168070D02*
D03*
X1336327Y1165858D02*
D03*
X1165921Y1081823D02*
D03*
X1164756Y1072495D02*
D03*
X1347818Y1153044D02*
D03*
X1343242Y1151030D02*
D03*
X1169333Y1074508D02*
D03*
X1167761Y1065239D02*
D03*
X1354163Y1137726D02*
D03*
X1349503Y1135914D02*
D03*
X1172421Y1067051D02*
D03*
X1170447Y1057859D02*
D03*
X1359834Y1122147D02*
D03*
X1355099Y1120540D02*
D03*
X1175182Y1059466D02*
D03*
X1172809Y1050369D02*
D03*
X1364819Y1106335D02*
D03*
X1360019Y1104936D02*
D03*
X1177609Y1051768D02*
D03*
X1174842Y1042784D02*
D03*
X1369110Y1090321D02*
D03*
X1364253Y1089132D02*
D03*
X1179698Y1043972D02*
D03*
X1176541Y1035116D02*
D03*
X1372698Y1074134D02*
D03*
X1367794Y1073159D02*
D03*
X1181445Y1036092D02*
D03*
X1177905Y1027382D02*
D03*
X1375577Y1057807D02*
D03*
X1370636Y1057046D02*
D03*
X1182847Y1028143D02*
D03*
X1178930Y1019596D02*
D03*
X1377741Y1041369D02*
D03*
X1372771Y1040825D02*
D03*
X1183900Y1020140D02*
D03*
X1179615Y1011773D02*
D03*
X1379186Y1024853D02*
D03*
X1374197Y1024526D02*
D03*
X1184604Y1012100D02*
D03*
X1179957Y1003927D02*
D03*
X1379910Y1008290D02*
D03*
X1374911Y1008181D02*
D03*
X1184956Y1004036D02*
D03*
X1179957Y996073D02*
D03*
X1379910Y991710D02*
D03*
X1374911Y991819D02*
D03*
X1184956Y995964D02*
D03*
X1179615Y988227D02*
D03*
X1379186Y975147D02*
D03*
X1374197Y975474D02*
D03*
X1184604Y987900D02*
D03*
X1178930Y980404D02*
D03*
X1377741Y958631D02*
D03*
X1372771Y959175D02*
D03*
X1183900Y979860D02*
D03*
X1177905Y972618D02*
D03*
X1375577Y942193D02*
D03*
X1370636Y942954D02*
D03*
X1182847Y971857D02*
D03*
X1176541Y964884D02*
D03*
X1372698Y925866D02*
D03*
X1367794Y926841D02*
D03*
X1181445Y963908D02*
D03*
X1174842Y957217D02*
D03*
X1369110Y909679D02*
D03*
X1364253Y910868D02*
D03*
X1179698Y956028D02*
D03*
X1172809Y949631D02*
D03*
X1364819Y893665D02*
D03*
X1360019Y895064D02*
D03*
X1177609Y948232D02*
D03*
X1170447Y942141D02*
D03*
X1359833Y877853D02*
D03*
X1355099Y879460D02*
D03*
X1175182Y940534D02*
D03*
X1167761Y934761D02*
D03*
X1354163Y862273D02*
D03*
X1349503Y864086D02*
D03*
X1172421Y932949D02*
D03*
X1164756Y927506D02*
D03*
X1347818Y846956D02*
D03*
X1343242Y848970D02*
D03*
X1169333Y925492D02*
D03*
X1161437Y920388D02*
D03*
X1340812Y831930D02*
D03*
X1336327Y834142D02*
D03*
X1165921Y918177D02*
D03*
X1157811Y913422D02*
D03*
X1333156Y817224D02*
D03*
X1328772Y819629D02*
D03*
X1162194Y911017D02*
D03*
X1153884Y906621D02*
D03*
X1324866Y802866D02*
D03*
X1320592Y805460D02*
D03*
X1158159Y904027D02*
D03*
X1149665Y899997D02*
D03*
X1315959Y788883D02*
D03*
X1311801Y791661D02*
D03*
X1153822Y897219D02*
D03*
X1145160Y893564D02*
D03*
X1306449Y775302D02*
D03*
X1302417Y778259D02*
D03*
X1149192Y890608D02*
D03*
X1140379Y887334D02*
D03*
X1296356Y762149D02*
D03*
X1292457Y765279D02*
D03*
X1144279Y884204D02*
D03*
X1135331Y881318D02*
D03*
X1285699Y749449D02*
D03*
X1281940Y752745D02*
D03*
X1139090Y878021D02*
D03*
X1130026Y875528D02*
D03*
X1274498Y737225D02*
D03*
X1270886Y740683D02*
D03*
X1133637Y872070D02*
D03*
X1124472Y869975D02*
D03*
X1262775Y725502D02*
D03*
X1259317Y729114D02*
D03*
X1127930Y866363D02*
D03*
X1118682Y864669D02*
D03*
X1250551Y714301D02*
D03*
X1247255Y718060D02*
D03*
X1121979Y860910D02*
D03*
X1112666Y859621D02*
D03*
X1237851Y703644D02*
D03*
X1234721Y707543D02*
D03*
X1115796Y855721D02*
D03*
X1106436Y854840D02*
D03*
X1224698Y693551D02*
D03*
X1221741Y697583D02*
D03*
X1109392Y850808D02*
D03*
X1100003Y850335D02*
D03*
X1211117Y684042D02*
D03*
X1208339Y688199D02*
D03*
X1102780Y846178D02*
D03*
X1093379Y846116D02*
D03*
X1197134Y675134D02*
D03*
X1194540Y679408D02*
D03*
X1095973Y841841D02*
D03*
X1086578Y842189D02*
D03*
X1182776Y666844D02*
D03*
X1180371Y671227D02*
D03*
X1088983Y837806D02*
D03*
X1079612Y838563D02*
D03*
X1168070Y659188D02*
D03*
X1165858Y663673D02*
D03*
X1081823Y834079D02*
D03*
X1072495Y835244D02*
D03*
X1153044Y652182D02*
D03*
X1151030Y656758D02*
D03*
X1074508Y830667D02*
D03*
X1065239Y832239D02*
D03*
X1137726Y645837D02*
D03*
X1135914Y650497D02*
D03*
X1067051Y827579D02*
D03*
X1057859Y829553D02*
D03*
X1122147Y640166D02*
D03*
X1120540Y644901D02*
D03*
X1059466Y824818D02*
D03*
X1050369Y827191D02*
D03*
X1106335Y635181D02*
D03*
X1104936Y639981D02*
D03*
X1051768Y822391D02*
D03*
X1042784Y825158D02*
D03*
X1090321Y630890D02*
D03*
X1089132Y635747D02*
D03*
X1043972Y820302D02*
D03*
X1035116Y823459D02*
D03*
X1074134Y627302D02*
D03*
X1073159Y632206D02*
D03*
X1036092Y818555D02*
D03*
X1027382Y822095D02*
D03*
X1057807Y624423D02*
D03*
X1057046Y629365D02*
D03*
X1028143Y817153D02*
D03*
X1019596Y821070D02*
D03*
X1041369Y622259D02*
D03*
X1040825Y627229D02*
D03*
X1020140Y816100D02*
D03*
X1011773Y820385D02*
D03*
X1024853Y620814D02*
D03*
X1024526Y625803D02*
D03*
X1012100Y815396D02*
D03*
X1003927Y820043D02*
D03*
X1008290Y620090D02*
D03*
X1008181Y625089D02*
D03*
X1004036Y815044D02*
D03*
X996073Y820043D02*
D03*
X991710Y620090D02*
D03*
X991819Y625089D02*
D03*
X995964Y815044D02*
D03*
X988227Y820385D02*
D03*
X975147Y620814D02*
D03*
X975474Y625803D02*
D03*
X987900Y815396D02*
D03*
X980404Y821070D02*
D03*
X958631Y622259D02*
D03*
X959175Y627229D02*
D03*
X979860Y816100D02*
D03*
X972618Y822095D02*
D03*
X942193Y624423D02*
D03*
X942954Y629365D02*
D03*
X971857Y817153D02*
D03*
X964884Y823459D02*
D03*
X925866Y627302D02*
D03*
X926841Y632206D02*
D03*
X963908Y818555D02*
D03*
X957217Y825158D02*
D03*
X909679Y630890D02*
D03*
X910868Y635747D02*
D03*
X956028Y820302D02*
D03*
X949631Y827191D02*
D03*
X893665Y635181D02*
D03*
X895064Y639981D02*
D03*
X948232Y822391D02*
D03*
X942141Y829553D02*
D03*
X877853Y640167D02*
D03*
X879460Y644901D02*
D03*
X940534Y824818D02*
D03*
X934761Y832239D02*
D03*
X862273Y645837D02*
D03*
X864086Y650497D02*
D03*
X932949Y827579D02*
D03*
X927506Y835244D02*
D03*
X846956Y652182D02*
D03*
X848970Y656758D02*
D03*
X925492Y830667D02*
D03*
X920388Y838563D02*
D03*
X831930Y659188D02*
D03*
X834142Y663673D02*
D03*
X918177Y834079D02*
D03*
X913422Y842189D02*
D03*
X817224Y666844D02*
D03*
X819629Y671227D02*
D03*
X911017Y837806D02*
D03*
X906621Y846116D02*
D03*
X802866Y675134D02*
D03*
X805460Y679408D02*
D03*
X904027Y841841D02*
D03*
X899997Y850335D02*
D03*
X788883Y684042D02*
D03*
X791661Y688199D02*
D03*
X897219Y846178D02*
D03*
X893564Y854840D02*
D03*
X775302Y693551D02*
D03*
X778259Y697583D02*
D03*
X890608Y850808D02*
D03*
X887334Y859621D02*
D03*
X762149Y703644D02*
D03*
X765279Y707543D02*
D03*
X884204Y855721D02*
D03*
X881318Y864669D02*
D03*
X749449Y714301D02*
D03*
X752745Y718060D02*
D03*
X878021Y860910D02*
D03*
X875528Y869975D02*
D03*
X737225Y725502D02*
D03*
X740683Y729114D02*
D03*
X872070Y866363D02*
D03*
X869975Y875528D02*
D03*
X725502Y737225D02*
D03*
X729113Y740683D02*
D03*
X866363Y872070D02*
D03*
X864669Y881318D02*
D03*
X714301Y749449D02*
D03*
X718060Y752745D02*
D03*
X860910Y878021D02*
D03*
X859621Y887334D02*
D03*
X703644Y762149D02*
D03*
X707543Y765279D02*
D03*
X855721Y884204D02*
D03*
X854840Y893564D02*
D03*
X693551Y775302D02*
D03*
X697583Y778259D02*
D03*
X850808Y890608D02*
D03*
X850335Y899997D02*
D03*
X684042Y788883D02*
D03*
X688199Y791661D02*
D03*
X846178Y897220D02*
D03*
X846116Y906621D02*
D03*
X675134Y802866D02*
D03*
X679408Y805460D02*
D03*
X841841Y904027D02*
D03*
X842189Y913422D02*
D03*
X666844Y817224D02*
D03*
X671227Y819629D02*
D03*
X837806Y911017D02*
D03*
X838563Y920388D02*
D03*
X659188Y831930D02*
D03*
X663673Y834142D02*
D03*
X834079Y918177D02*
D03*
X835244Y927506D02*
D03*
X652182Y846956D02*
D03*
X656758Y848970D02*
D03*
X830667Y925492D02*
D03*
X832239Y934761D02*
D03*
X645837Y862274D02*
D03*
X650497Y864086D02*
D03*
X827579Y932949D02*
D03*
X829553Y942141D02*
D03*
X640167Y877853D02*
D03*
X644901Y879460D02*
D03*
X824818Y940534D02*
D03*
X827191Y949631D02*
D03*
X635181Y893665D02*
D03*
X639981Y895064D02*
D03*
X822391Y948232D02*
D03*
X825158Y957216D02*
D03*
X630890Y909679D02*
D03*
X635747Y910868D02*
D03*
X820302Y956028D02*
D03*
X823459Y964884D02*
D03*
X627302Y925866D02*
D03*
X632206Y926841D02*
D03*
X818555Y963908D02*
D03*
X822095Y972618D02*
D03*
X624423Y942193D02*
D03*
X629365Y942954D02*
D03*
X817153Y971857D02*
D03*
X821070Y980404D02*
D03*
X622259Y958631D02*
D03*
X627229Y959175D02*
D03*
X816100Y979860D02*
D03*
X820385Y988227D02*
D03*
X620814Y975147D02*
D03*
X625803Y975474D02*
D03*
X815396Y987900D02*
D03*
X820043Y996073D02*
D03*
X620090Y991710D02*
D03*
X625089Y991820D02*
D03*
X815044Y995964D02*
D03*
X820043Y1003927D02*
D03*
X620090Y1008290D02*
D03*
X625089Y1008181D02*
D03*
X815044Y1004036D02*
D03*
X820385Y1011773D02*
D03*
X620814Y1024853D02*
D03*
X625803Y1024526D02*
D03*
X815396Y1012100D02*
D03*
X821070Y1019596D02*
D03*
X622259Y1041369D02*
D03*
X627229Y1040825D02*
D03*
X816100Y1020140D02*
D03*
X822095Y1027382D02*
D03*
X624423Y1057807D02*
D03*
X629365Y1057046D02*
D03*
X817153Y1028143D02*
D03*
X823459Y1035116D02*
D03*
X627302Y1074134D02*
D03*
X632206Y1073159D02*
D03*
X818555Y1036092D02*
D03*
X825158Y1042784D02*
D03*
X630890Y1090321D02*
D03*
X635747Y1089132D02*
D03*
X820302Y1043972D02*
D03*
X827191Y1050369D02*
D03*
X635181Y1106335D02*
D03*
X639981Y1104936D02*
D03*
X822391Y1051768D02*
D03*
X829553Y1057859D02*
D03*
X640167Y1122147D02*
D03*
X644901Y1120540D02*
D03*
X824818Y1059466D02*
D03*
X832239Y1065239D02*
D03*
X645837Y1137727D02*
D03*
X650497Y1135914D02*
D03*
X827579Y1067051D02*
D03*
X835244Y1072494D02*
D03*
X652182Y1153044D02*
D03*
X656758Y1151030D02*
D03*
X830667Y1074508D02*
D03*
X838563Y1079612D02*
D03*
X659188Y1168070D02*
D03*
X663673Y1165858D02*
D03*
X834079Y1081823D02*
D03*
X842189Y1086578D02*
D03*
X666844Y1182776D02*
D03*
X671227Y1180371D02*
D03*
X837806Y1088983D02*
D03*
X846116Y1093379D02*
D03*
X675134Y1197134D02*
D03*
X679408Y1194540D02*
D03*
X841841Y1095973D02*
D03*
X850335Y1100003D02*
D03*
X684042Y1211117D02*
D03*
X688199Y1208339D02*
D03*
X846178Y1102781D02*
D03*
X854840Y1106436D02*
D03*
X693551Y1224698D02*
D03*
X697583Y1221741D02*
D03*
X850808Y1109392D02*
D03*
X859621Y1112666D02*
D03*
X703644Y1237851D02*
D03*
X707543Y1234721D02*
D03*
X855721Y1115796D02*
D03*
X864669Y1118682D02*
D03*
X714301Y1250551D02*
D03*
X718060Y1247255D02*
D03*
X860910Y1121979D02*
D03*
X869975Y1124472D02*
D03*
X725502Y1262775D02*
D03*
X729114Y1259317D02*
D03*
X866363Y1127930D02*
D03*
X875528Y1130025D02*
D03*
X737225Y1274498D02*
D03*
X740683Y1270887D02*
D03*
X872070Y1133637D02*
D03*
X881318Y1135331D02*
D03*
X749449Y1285699D02*
D03*
X752745Y1281940D02*
D03*
X878021Y1139090D02*
D03*
X887334Y1140379D02*
D03*
X762149Y1296356D02*
D03*
X765279Y1292457D02*
D03*
X884204Y1144279D02*
D03*
X893564Y1145160D02*
D03*
X775302Y1306449D02*
D03*
X778259Y1302417D02*
D03*
X890608Y1149192D02*
D03*
X899997Y1149665D02*
D03*
X788883Y1315958D02*
D03*
X791661Y1311801D02*
D03*
X897219Y1153822D02*
D03*
X906621Y1153884D02*
D03*
X802866Y1324866D02*
D03*
X805460Y1320592D02*
D03*
X904027Y1158159D02*
D03*
X913422Y1157811D02*
D03*
X817224Y1333156D02*
D03*
X819629Y1328772D02*
D03*
X911017Y1162194D02*
D03*
X920388Y1161437D02*
D03*
X831930Y1340812D02*
D03*
X834142Y1336327D02*
D03*
X918177Y1165921D02*
D03*
X927506Y1164756D02*
D03*
X846956Y1347818D02*
D03*
X848970Y1343242D02*
D03*
X925492Y1169333D02*
D03*
X934761Y1167761D02*
D03*
X862274Y1354163D02*
D03*
X864086Y1349503D02*
D03*
X932949Y1172421D02*
D03*
X942141Y1170447D02*
D03*
X877853Y1359833D02*
D03*
X879460Y1355099D02*
D03*
X940534Y1175182D02*
D03*
X949631Y1172809D02*
D03*
X893665Y1364819D02*
D03*
X895064Y1360019D02*
D03*
X948232Y1177609D02*
D03*
X957217Y1174842D02*
D03*
X909679Y1369110D02*
D03*
X910868Y1364253D02*
D03*
X956028Y1179698D02*
D03*
X964884Y1176541D02*
D03*
X925866Y1372698D02*
D03*
X926841Y1367794D02*
D03*
X963908Y1181445D02*
D03*
X972618Y1177905D02*
D03*
X942193Y1375577D02*
D03*
X942954Y1370636D02*
D03*
X971857Y1182847D02*
D03*
X980404Y1178930D02*
D03*
X958631Y1377741D02*
D03*
X959175Y1372771D02*
D03*
X979860Y1183900D02*
D03*
M02*
