G04*
G04 #@! TF.GenerationSoftware,Altium Limited,Altium Designer,25.8.1 (18)*
G04*
G04 Layer_Color=128*
%FSLAX44Y44*%
%MOMM*%
G71*
G04*
G04 #@! TF.SameCoordinates,078DBBB2-0D48-4D9F-B724-92657CB152FA*
G04*
G04*
G04 #@! TF.FilePolarity,Positive*
G04*
G01*
G75*
%ADD23C,0.1270*%
D23*
X1100969Y1434667D02*
X1131969D01*
X1116469Y1419167D02*
Y1450167D01*
X1302698Y1318198D02*
X1333698D01*
X1318198Y1302698D02*
Y1333698D01*
X1419167Y1116469D02*
X1450167D01*
X1434667Y1100969D02*
Y1131969D01*
X1419167Y883531D02*
X1450167D01*
X1434667Y868031D02*
Y899031D01*
X1302698Y681802D02*
X1333698D01*
X1318198Y666302D02*
Y697302D01*
X1100969Y565333D02*
X1131969D01*
X1116469Y549833D02*
Y580833D01*
X868031Y565333D02*
X899031D01*
X883531Y549833D02*
Y580833D01*
X666302Y681802D02*
X697302D01*
X681802Y666302D02*
Y697302D01*
X549833Y883531D02*
X580833D01*
X565333Y868031D02*
Y899031D01*
X549833Y1116469D02*
X580833D01*
X565333Y1100969D02*
Y1131969D01*
X666302Y1318198D02*
X697302D01*
X681802Y1302698D02*
Y1333698D01*
X868031Y1434667D02*
X899031D01*
X883531Y1419167D02*
Y1450167D01*
X1198500Y1346410D02*
X1201500D01*
X1200000Y1344910D02*
Y1347910D01*
X1196000Y1342080D02*
X1199000D01*
X1197500Y1340580D02*
Y1343580D01*
X1193500Y1337750D02*
X1196500D01*
X1195000Y1336250D02*
Y1339250D01*
X1200330Y1339580D02*
X1203330D01*
X1201830Y1338080D02*
Y1341080D01*
X1191670Y1344580D02*
X1194670D01*
X1193170Y1343080D02*
Y1346080D01*
X1194170Y1348910D02*
X1197170D01*
X1195670Y1347410D02*
Y1350410D01*
X1189170Y1340250D02*
X1192170D01*
X1190670Y1338750D02*
Y1341750D01*
X1197830Y1335250D02*
X1200830D01*
X1199330Y1333750D02*
Y1336750D01*
X1264887Y1271041D02*
X1267887D01*
X1266387Y1269541D02*
Y1272541D01*
X1268344Y1274653D02*
X1271345D01*
X1269845Y1273153D02*
Y1276153D01*
X1264733Y1278110D02*
X1267733D01*
X1266233Y1276610D02*
Y1279610D01*
X1257663Y1277956D02*
X1260663D01*
X1259163Y1276456D02*
Y1279456D01*
X1261121Y1281568D02*
X1264121D01*
X1262621Y1280068D02*
Y1283068D01*
X798500Y1346410D02*
X801500D01*
X800000Y1344910D02*
Y1347910D01*
X801000Y1342080D02*
X804000D01*
X802500Y1340580D02*
Y1343580D01*
X803500Y1337750D02*
X806500D01*
X805000Y1336250D02*
Y1339250D01*
X805330Y1344580D02*
X808330D01*
X806830Y1343080D02*
Y1346080D01*
X796670Y1339580D02*
X799670D01*
X798170Y1338080D02*
Y1341080D01*
X794170Y1343910D02*
X797170D01*
X795670Y1342410D02*
Y1345410D01*
X799170Y1335250D02*
X802170D01*
X800670Y1333750D02*
Y1336750D01*
X807830Y1340250D02*
X810830D01*
X809330Y1338750D02*
Y1341750D01*
X896965Y1366218D02*
X899965D01*
X898465Y1364718D02*
Y1367718D01*
X895566Y1371019D02*
X898566D01*
X897066Y1369518D02*
Y1372518D01*
X890766Y1369619D02*
X893766D01*
X892266Y1368119D02*
Y1371119D01*
X887365Y1363420D02*
X890365D01*
X888865Y1361920D02*
Y1364920D01*
X885965Y1368220D02*
X888966D01*
X887466Y1366720D02*
Y1369720D01*
X1085152Y1375155D02*
X1088152D01*
X1086652Y1373655D02*
Y1376655D01*
X1083964Y1370298D02*
X1086964D01*
X1085464Y1368799D02*
Y1371799D01*
X1090009Y1373967D02*
X1093009D01*
X1091509Y1372467D02*
Y1375467D01*
X1094866Y1372778D02*
X1097866D01*
X1096366Y1371278D02*
Y1374278D01*
X1093677Y1367922D02*
X1096677D01*
X1095177Y1366422D02*
Y1369422D01*
X1003500Y1390000D02*
X1006500D01*
X1005000Y1388500D02*
Y1391500D01*
X993500Y1390000D02*
X996500D01*
X995000Y1388500D02*
Y1391500D01*
X993500Y1400000D02*
X996500D01*
X995000Y1398500D02*
Y1401500D01*
X993500Y1395000D02*
X996500D01*
X995000Y1393500D02*
Y1396500D01*
X1003500Y1395000D02*
X1006500D01*
X1005000Y1393500D02*
Y1396500D01*
X998500Y1390000D02*
X1001500D01*
X1000000Y1388500D02*
Y1391500D01*
X798500Y1346410D02*
X801500D01*
X800000Y1344910D02*
Y1347910D01*
X801000Y1342080D02*
X804000D01*
X802500Y1340580D02*
Y1343580D01*
X998500Y1395000D02*
X1001500D01*
X1000000Y1393500D02*
Y1396500D01*
X998500Y1400000D02*
X1001500D01*
X1000000Y1398500D02*
Y1401500D01*
X986727Y1179615D02*
X989727D01*
X988227Y1178115D02*
Y1181115D01*
X973647Y1379186D02*
X976647D01*
X975147Y1377686D02*
Y1380686D01*
X973974Y1374197D02*
X976974D01*
X975474Y1372697D02*
Y1375697D01*
X986401Y1184604D02*
X989400D01*
X987900Y1183104D02*
Y1186104D01*
X994573Y1179957D02*
X997573D01*
X996073Y1178457D02*
Y1181457D01*
X990210Y1379910D02*
X993210D01*
X991710Y1378410D02*
Y1381410D01*
X990319Y1374911D02*
X993319D01*
X991819Y1373411D02*
Y1376411D01*
X994464Y1184956D02*
X997464D01*
X995964Y1183456D02*
Y1186456D01*
X1002427Y1179957D02*
X1005427D01*
X1003927Y1178457D02*
Y1181457D01*
X1006790Y1379910D02*
X1009790D01*
X1008290Y1378410D02*
Y1381410D01*
X1006681Y1374911D02*
X1009681D01*
X1008181Y1373411D02*
Y1376411D01*
X1002536Y1184956D02*
X1005536D01*
X1004036Y1183456D02*
Y1186456D01*
X1010273Y1179615D02*
X1013272D01*
X1011773Y1178115D02*
Y1181115D01*
X1023353Y1379186D02*
X1026353D01*
X1024853Y1377686D02*
Y1380686D01*
X1023026Y1374197D02*
X1026026D01*
X1024526Y1372697D02*
Y1375697D01*
X1010600Y1184604D02*
X1013600D01*
X1012100Y1183104D02*
Y1186104D01*
X1018096Y1178930D02*
X1021096D01*
X1019596Y1177430D02*
Y1180430D01*
X1039869Y1377741D02*
X1042869D01*
X1041369Y1376241D02*
Y1379241D01*
X1039325Y1372771D02*
X1042325D01*
X1040825Y1371271D02*
Y1374271D01*
X1018640Y1183900D02*
X1021640D01*
X1020140Y1182400D02*
Y1185400D01*
X1025882Y1177905D02*
X1028882D01*
X1027382Y1176405D02*
Y1179405D01*
X1056307Y1375577D02*
X1059307D01*
X1057807Y1374077D02*
Y1377077D01*
X1055546Y1370636D02*
X1058546D01*
X1057046Y1369135D02*
Y1372135D01*
X1026643Y1182847D02*
X1029643D01*
X1028143Y1181347D02*
Y1184347D01*
X1033616Y1176541D02*
X1036616D01*
X1035116Y1175041D02*
Y1178041D01*
X1072634Y1372698D02*
X1075634D01*
X1074134Y1371198D02*
Y1374198D01*
X1071659Y1367794D02*
X1074659D01*
X1073159Y1366294D02*
Y1369294D01*
X1034592Y1181445D02*
X1037592D01*
X1036092Y1179945D02*
Y1182945D01*
X1041283Y1174842D02*
X1044284D01*
X1042784Y1173342D02*
Y1176341D01*
X1088821Y1369110D02*
X1091821D01*
X1090321Y1367610D02*
Y1370610D01*
X1087632Y1364253D02*
X1090632D01*
X1089132Y1362753D02*
Y1365753D01*
X1042472Y1179698D02*
X1045472D01*
X1043972Y1178198D02*
Y1181198D01*
X1048869Y1172809D02*
X1051869D01*
X1050369Y1171309D02*
Y1174309D01*
X1104835Y1364819D02*
X1107835D01*
X1106335Y1363319D02*
Y1366319D01*
X1103436Y1360019D02*
X1106436D01*
X1104936Y1358519D02*
Y1361519D01*
X1050268Y1177609D02*
X1053268D01*
X1051768Y1176109D02*
Y1179109D01*
X1056359Y1170447D02*
X1059359D01*
X1057859Y1168947D02*
Y1171947D01*
X1120647Y1359833D02*
X1123647D01*
X1122147Y1358333D02*
Y1361333D01*
X1119040Y1355099D02*
X1122040D01*
X1120540Y1353599D02*
Y1356599D01*
X1057966Y1175182D02*
X1060966D01*
X1059466Y1173682D02*
Y1176682D01*
X1063739Y1167761D02*
X1066739D01*
X1065239Y1166261D02*
Y1169261D01*
X1136227Y1354163D02*
X1139227D01*
X1137727Y1352663D02*
Y1355663D01*
X1134414Y1349503D02*
X1137414D01*
X1135914Y1348003D02*
Y1351003D01*
X1065551Y1172421D02*
X1068551D01*
X1067051Y1170921D02*
Y1173921D01*
X1070994Y1164756D02*
X1073994D01*
X1072494Y1163256D02*
Y1166256D01*
X1151544Y1347818D02*
X1154544D01*
X1153044Y1346318D02*
Y1349318D01*
X1149530Y1343242D02*
X1152530D01*
X1151030Y1341742D02*
Y1344742D01*
X1073008Y1169333D02*
X1076008D01*
X1074508Y1167833D02*
Y1170833D01*
X1078112Y1161437D02*
X1081112D01*
X1079612Y1159937D02*
Y1162937D01*
X1166570Y1340812D02*
X1169570D01*
X1168070Y1339312D02*
Y1342312D01*
X1164358Y1336327D02*
X1167358D01*
X1165858Y1334827D02*
Y1337827D01*
X1080323Y1165921D02*
X1083323D01*
X1081823Y1164421D02*
Y1167421D01*
X1085078Y1157811D02*
X1088078D01*
X1086578Y1156311D02*
Y1159311D01*
X1181276Y1333156D02*
X1184276D01*
X1182776Y1331656D02*
Y1334656D01*
X1178871Y1328772D02*
X1181871D01*
X1180371Y1327272D02*
Y1330273D01*
X1087483Y1162194D02*
X1090483D01*
X1088983Y1160694D02*
Y1163694D01*
X1091879Y1153884D02*
X1094879D01*
X1093379Y1152384D02*
Y1155384D01*
X1195634Y1324866D02*
X1198634D01*
X1197134Y1323367D02*
Y1326366D01*
X1193040Y1320592D02*
X1196040D01*
X1194540Y1319092D02*
Y1322092D01*
X1094473Y1158159D02*
X1097473D01*
X1095973Y1156659D02*
Y1159659D01*
X1098503Y1149665D02*
X1101503D01*
X1100003Y1148165D02*
Y1151165D01*
X1209617Y1315959D02*
X1212617D01*
X1211117Y1314458D02*
Y1317458D01*
X1206839Y1311801D02*
X1209839D01*
X1208339Y1310301D02*
Y1313301D01*
X1101281Y1153822D02*
X1104280D01*
X1102781Y1152322D02*
Y1155322D01*
X1104936Y1145160D02*
X1107936D01*
X1106436Y1143660D02*
Y1146660D01*
X1223198Y1306449D02*
X1226198D01*
X1224698Y1304949D02*
Y1307949D01*
X1220241Y1302417D02*
X1223241D01*
X1221741Y1300917D02*
Y1303917D01*
X1107892Y1149192D02*
X1110892D01*
X1109392Y1147692D02*
Y1150692D01*
X1111166Y1140379D02*
X1114166D01*
X1112666Y1138879D02*
Y1141879D01*
X1236351Y1296356D02*
X1239351D01*
X1237851Y1294856D02*
Y1297856D01*
X1233221Y1292457D02*
X1236221D01*
X1234721Y1290957D02*
Y1293957D01*
X1114296Y1144279D02*
X1117296D01*
X1115796Y1142779D02*
Y1145779D01*
X1117182Y1135331D02*
X1120182D01*
X1118682Y1133831D02*
Y1136831D01*
X1249051Y1285699D02*
X1252051D01*
X1250551Y1284199D02*
Y1287199D01*
X1245755Y1281940D02*
X1248755D01*
X1247255Y1280440D02*
Y1283440D01*
X1120479Y1139090D02*
X1123479D01*
X1121979Y1137590D02*
Y1140590D01*
X1122972Y1130026D02*
X1125972D01*
X1124472Y1128526D02*
Y1131526D01*
X1261275Y1274498D02*
X1264275D01*
X1262775Y1272998D02*
Y1275998D01*
X1257817Y1270886D02*
X1260817D01*
X1259317Y1269386D02*
Y1272386D01*
X1126430Y1133637D02*
X1129430D01*
X1127930Y1132137D02*
Y1135137D01*
X1128525Y1124472D02*
X1131525D01*
X1130025Y1122972D02*
Y1125972D01*
X1272998Y1262775D02*
X1275998D01*
X1274498Y1261275D02*
Y1264275D01*
X1269387Y1259317D02*
X1272386D01*
X1270887Y1257817D02*
Y1260817D01*
X1132137Y1127930D02*
X1135137D01*
X1133637Y1126430D02*
Y1129430D01*
X1133831Y1118682D02*
X1136831D01*
X1135331Y1117182D02*
Y1120182D01*
X1284199Y1250551D02*
X1287199D01*
X1285699Y1249051D02*
Y1252051D01*
X1280440Y1247255D02*
X1283440D01*
X1281940Y1245755D02*
Y1248755D01*
X1137590Y1121979D02*
X1140590D01*
X1139090Y1120479D02*
Y1123479D01*
X1138879Y1112666D02*
X1141879D01*
X1140379Y1111166D02*
Y1114166D01*
X1294856Y1237851D02*
X1297856D01*
X1296356Y1236351D02*
Y1239351D01*
X1290957Y1234721D02*
X1293957D01*
X1292457Y1233221D02*
Y1236221D01*
X1142779Y1115796D02*
X1145779D01*
X1144279Y1114296D02*
Y1117296D01*
X1143660Y1106436D02*
X1146660D01*
X1145160Y1104936D02*
Y1107936D01*
X1304949Y1224698D02*
X1307949D01*
X1306449Y1223198D02*
Y1226198D01*
X1300917Y1221741D02*
X1303917D01*
X1302417Y1220241D02*
Y1223241D01*
X1147692Y1109392D02*
X1150692D01*
X1149192Y1107892D02*
Y1110892D01*
X1148165Y1100003D02*
X1151164D01*
X1149665Y1098503D02*
Y1101503D01*
X1314458Y1211117D02*
X1317458D01*
X1315959Y1209617D02*
Y1212617D01*
X1310301Y1208339D02*
X1313301D01*
X1311801Y1206839D02*
Y1209839D01*
X1152322Y1102780D02*
X1155322D01*
X1153822Y1101280D02*
Y1104280D01*
X1152384Y1093379D02*
X1155384D01*
X1153884Y1091879D02*
Y1094879D01*
X1323367Y1197134D02*
X1326366D01*
X1324866Y1195634D02*
Y1198634D01*
X1319092Y1194540D02*
X1322092D01*
X1320592Y1193040D02*
Y1196040D01*
X1156659Y1095973D02*
X1159659D01*
X1158159Y1094473D02*
Y1097473D01*
X1156311Y1086578D02*
X1159311D01*
X1157811Y1085078D02*
Y1088078D01*
X1331656Y1182776D02*
X1334656D01*
X1333156Y1181276D02*
Y1184276D01*
X1327272Y1180371D02*
X1330273D01*
X1328772Y1178871D02*
Y1181871D01*
X1160695Y1088983D02*
X1163694D01*
X1162194Y1087483D02*
Y1090483D01*
X1159937Y1079612D02*
X1162937D01*
X1161437Y1078112D02*
Y1081112D01*
X1339312Y1168070D02*
X1342312D01*
X1340812Y1166570D02*
Y1169570D01*
X1334827Y1165858D02*
X1337827D01*
X1336327Y1164358D02*
Y1167358D01*
X1164421Y1081823D02*
X1167421D01*
X1165921Y1080323D02*
Y1083323D01*
X1163256Y1072495D02*
X1166256D01*
X1164756Y1070994D02*
Y1073994D01*
X1346318Y1153044D02*
X1349318D01*
X1347818Y1151544D02*
Y1154544D01*
X1341742Y1151030D02*
X1344742D01*
X1343242Y1149530D02*
Y1152530D01*
X1167833Y1074508D02*
X1170833D01*
X1169333Y1073008D02*
Y1076008D01*
X1166261Y1065239D02*
X1169261D01*
X1167761Y1063739D02*
Y1066739D01*
X1352663Y1137726D02*
X1355663D01*
X1354163Y1136226D02*
Y1139226D01*
X1348003Y1135914D02*
X1351003D01*
X1349503Y1134414D02*
Y1137414D01*
X1170921Y1067051D02*
X1173921D01*
X1172421Y1065551D02*
Y1068551D01*
X1168947Y1057859D02*
X1171947D01*
X1170447Y1056359D02*
Y1059359D01*
X1358333Y1122147D02*
X1361333D01*
X1359834Y1120647D02*
Y1123647D01*
X1353599Y1120540D02*
X1356599D01*
X1355099Y1119040D02*
Y1122040D01*
X1173682Y1059466D02*
X1176682D01*
X1175182Y1057966D02*
Y1060966D01*
X1171309Y1050369D02*
X1174309D01*
X1172809Y1048869D02*
Y1051869D01*
X1363319Y1106335D02*
X1366319D01*
X1364819Y1104835D02*
Y1107835D01*
X1358519Y1104936D02*
X1361519D01*
X1360019Y1103436D02*
Y1106436D01*
X1176109Y1051768D02*
X1179109D01*
X1177609Y1050268D02*
Y1053268D01*
X1173342Y1042784D02*
X1176341D01*
X1174842Y1041283D02*
Y1044284D01*
X1367610Y1090321D02*
X1370610D01*
X1369110Y1088821D02*
Y1091821D01*
X1362753Y1089132D02*
X1365753D01*
X1364253Y1087632D02*
Y1090632D01*
X1178198Y1043972D02*
X1181198D01*
X1179698Y1042472D02*
Y1045472D01*
X1175041Y1035116D02*
X1178041D01*
X1176541Y1033616D02*
Y1036616D01*
X1371198Y1074134D02*
X1374198D01*
X1372698Y1072634D02*
Y1075634D01*
X1366294Y1073159D02*
X1369294D01*
X1367794Y1071659D02*
Y1074659D01*
X1179945Y1036092D02*
X1182945D01*
X1181445Y1034592D02*
Y1037592D01*
X1176405Y1027382D02*
X1179405D01*
X1177905Y1025882D02*
Y1028882D01*
X1374077Y1057807D02*
X1377077D01*
X1375577Y1056307D02*
Y1059307D01*
X1369135Y1057046D02*
X1372135D01*
X1370636Y1055546D02*
Y1058546D01*
X1181347Y1028143D02*
X1184347D01*
X1182847Y1026643D02*
Y1029643D01*
X1177430Y1019596D02*
X1180430D01*
X1178930Y1018096D02*
Y1021096D01*
X1376241Y1041369D02*
X1379241D01*
X1377741Y1039869D02*
Y1042869D01*
X1371271Y1040825D02*
X1374271D01*
X1372771Y1039325D02*
Y1042325D01*
X1182400Y1020140D02*
X1185400D01*
X1183900Y1018640D02*
Y1021640D01*
X1178115Y1011773D02*
X1181115D01*
X1179615Y1010273D02*
Y1013273D01*
X1377686Y1024853D02*
X1380686D01*
X1379186Y1023353D02*
Y1026353D01*
X1372697Y1024526D02*
X1375697D01*
X1374197Y1023026D02*
Y1026026D01*
X1183104Y1012100D02*
X1186104D01*
X1184604Y1010600D02*
Y1013599D01*
X1178457Y1003927D02*
X1181457D01*
X1179957Y1002427D02*
Y1005427D01*
X1378410Y1008290D02*
X1381410D01*
X1379910Y1006790D02*
Y1009790D01*
X1373411Y1008181D02*
X1376411D01*
X1374911Y1006681D02*
Y1009681D01*
X1183456Y1004036D02*
X1186456D01*
X1184956Y1002536D02*
Y1005536D01*
X1178457Y996073D02*
X1181457D01*
X1179957Y994573D02*
Y997573D01*
X1378410Y991710D02*
X1381410D01*
X1379910Y990210D02*
Y993210D01*
X1373411Y991819D02*
X1376411D01*
X1374911Y990319D02*
Y993319D01*
X1183456Y995964D02*
X1186456D01*
X1184956Y994464D02*
Y997464D01*
X1178115Y988227D02*
X1181115D01*
X1179615Y986728D02*
Y989727D01*
X1377686Y975147D02*
X1380686D01*
X1379186Y973647D02*
Y976647D01*
X1372697Y975474D02*
X1375697D01*
X1374197Y973974D02*
Y976974D01*
X1183104Y987900D02*
X1186104D01*
X1184604Y986400D02*
Y989400D01*
X1177430Y980404D02*
X1180430D01*
X1178930Y978904D02*
Y981904D01*
X1376241Y958631D02*
X1379241D01*
X1377741Y957131D02*
Y960131D01*
X1371271Y959175D02*
X1374271D01*
X1372771Y957675D02*
Y960675D01*
X1182400Y979860D02*
X1185400D01*
X1183900Y978360D02*
Y981360D01*
X1176405Y972618D02*
X1179405D01*
X1177905Y971118D02*
Y974118D01*
X1374077Y942193D02*
X1377077D01*
X1375577Y940693D02*
Y943693D01*
X1369135Y942954D02*
X1372135D01*
X1370636Y941454D02*
Y944454D01*
X1181347Y971857D02*
X1184347D01*
X1182847Y970357D02*
Y973357D01*
X1175041Y964884D02*
X1178041D01*
X1176541Y963384D02*
Y966384D01*
X1371198Y925866D02*
X1374198D01*
X1372698Y924366D02*
Y927366D01*
X1366294Y926841D02*
X1369294D01*
X1367794Y925341D02*
Y928341D01*
X1179945Y963908D02*
X1182945D01*
X1181445Y962408D02*
Y965408D01*
X1173342Y957217D02*
X1176341D01*
X1174842Y955717D02*
Y958717D01*
X1367610Y909679D02*
X1370610D01*
X1369110Y908179D02*
Y911179D01*
X1362753Y910868D02*
X1365753D01*
X1364253Y909368D02*
Y912368D01*
X1178198Y956028D02*
X1181198D01*
X1179698Y954528D02*
Y957528D01*
X1171309Y949631D02*
X1174309D01*
X1172809Y948131D02*
Y951131D01*
X1363319Y893665D02*
X1366319D01*
X1364819Y892165D02*
Y895165D01*
X1358519Y895064D02*
X1361519D01*
X1360019Y893564D02*
Y896564D01*
X1176109Y948232D02*
X1179109D01*
X1177609Y946732D02*
Y949732D01*
X1168947Y942141D02*
X1171947D01*
X1170447Y940641D02*
Y943641D01*
X1358333Y877853D02*
X1361333D01*
X1359833Y876353D02*
Y879353D01*
X1353599Y879460D02*
X1356599D01*
X1355099Y877960D02*
Y880960D01*
X1173682Y940534D02*
X1176682D01*
X1175182Y939034D02*
Y942034D01*
X1166261Y934761D02*
X1169261D01*
X1167761Y933261D02*
Y936261D01*
X1352663Y862273D02*
X1355663D01*
X1354163Y860773D02*
Y863773D01*
X1348003Y864086D02*
X1351003D01*
X1349503Y862586D02*
Y865586D01*
X1170921Y932949D02*
X1173921D01*
X1172421Y931449D02*
Y934449D01*
X1163256Y927506D02*
X1166256D01*
X1164756Y926006D02*
Y929006D01*
X1346318Y846956D02*
X1349318D01*
X1347818Y845456D02*
Y848456D01*
X1341742Y848970D02*
X1344742D01*
X1343242Y847470D02*
Y850470D01*
X1167833Y925492D02*
X1170833D01*
X1169333Y923992D02*
Y926992D01*
X1159937Y920388D02*
X1162937D01*
X1161437Y918888D02*
Y921888D01*
X1339312Y831930D02*
X1342312D01*
X1340812Y830430D02*
Y833430D01*
X1334827Y834142D02*
X1337827D01*
X1336327Y832642D02*
Y835642D01*
X1164421Y918177D02*
X1167421D01*
X1165921Y916677D02*
Y919677D01*
X1156311Y913422D02*
X1159311D01*
X1157811Y911922D02*
Y914922D01*
X1331656Y817224D02*
X1334656D01*
X1333156Y815724D02*
Y818724D01*
X1327272Y819629D02*
X1330273D01*
X1328772Y818129D02*
Y821129D01*
X1160694Y911017D02*
X1163694D01*
X1162194Y909517D02*
Y912517D01*
X1152384Y906621D02*
X1155384D01*
X1153884Y905121D02*
Y908121D01*
X1323367Y802866D02*
X1326366D01*
X1324866Y801366D02*
Y804366D01*
X1319092Y805460D02*
X1322092D01*
X1320592Y803960D02*
Y806960D01*
X1156659Y904027D02*
X1159659D01*
X1158159Y902527D02*
Y905527D01*
X1148165Y899997D02*
X1151165D01*
X1149665Y898497D02*
Y901497D01*
X1314458Y788883D02*
X1317458D01*
X1315959Y787383D02*
Y790383D01*
X1310301Y791661D02*
X1313301D01*
X1311801Y790161D02*
Y793161D01*
X1152322Y897219D02*
X1155322D01*
X1153822Y895720D02*
Y898719D01*
X1143660Y893564D02*
X1146660D01*
X1145160Y892064D02*
Y895064D01*
X1304949Y775302D02*
X1307949D01*
X1306449Y773802D02*
Y776802D01*
X1300917Y778259D02*
X1303917D01*
X1302417Y776759D02*
Y779759D01*
X1147692Y890608D02*
X1150692D01*
X1149192Y889108D02*
Y892108D01*
X1138879Y887334D02*
X1141879D01*
X1140379Y885834D02*
Y888834D01*
X1294856Y762149D02*
X1297856D01*
X1296356Y760649D02*
Y763649D01*
X1290957Y765279D02*
X1293957D01*
X1292457Y763779D02*
Y766779D01*
X1142779Y884204D02*
X1145779D01*
X1144279Y882704D02*
Y885704D01*
X1133831Y881318D02*
X1136831D01*
X1135331Y879818D02*
Y882818D01*
X1284199Y749449D02*
X1287199D01*
X1285699Y747949D02*
Y750949D01*
X1280440Y752745D02*
X1283440D01*
X1281940Y751245D02*
Y754245D01*
X1137590Y878021D02*
X1140590D01*
X1139090Y876521D02*
Y879521D01*
X1128526Y875528D02*
X1131526D01*
X1130026Y874028D02*
Y877028D01*
X1272998Y737225D02*
X1275998D01*
X1274498Y735725D02*
Y738725D01*
X1269386Y740683D02*
X1272386D01*
X1270886Y739183D02*
Y742183D01*
X1132137Y872070D02*
X1135137D01*
X1133637Y870570D02*
Y873570D01*
X1122972Y869975D02*
X1125972D01*
X1124472Y868475D02*
Y871475D01*
X1261275Y725502D02*
X1264275D01*
X1262775Y724002D02*
Y727002D01*
X1257817Y729114D02*
X1260817D01*
X1259317Y727614D02*
Y730614D01*
X1126430Y866363D02*
X1129430D01*
X1127930Y864863D02*
Y867863D01*
X1117182Y864669D02*
X1120182D01*
X1118682Y863169D02*
Y866169D01*
X1249051Y714301D02*
X1252051D01*
X1250551Y712801D02*
Y715801D01*
X1245755Y718060D02*
X1248755D01*
X1247255Y716560D02*
Y719560D01*
X1120479Y860910D02*
X1123479D01*
X1121979Y859410D02*
Y862410D01*
X1111166Y859621D02*
X1114166D01*
X1112666Y858121D02*
Y861121D01*
X1236351Y703644D02*
X1239351D01*
X1237851Y702144D02*
Y705144D01*
X1233221Y707543D02*
X1236221D01*
X1234721Y706043D02*
Y709043D01*
X1114296Y855721D02*
X1117296D01*
X1115796Y854221D02*
Y857221D01*
X1104936Y854840D02*
X1107936D01*
X1106436Y853340D02*
Y856340D01*
X1223198Y693551D02*
X1226198D01*
X1224698Y692051D02*
Y695051D01*
X1220241Y697583D02*
X1223241D01*
X1221741Y696083D02*
Y699083D01*
X1107892Y850808D02*
X1110892D01*
X1109392Y849308D02*
Y852308D01*
X1098503Y850335D02*
X1101503D01*
X1100003Y848836D02*
Y851835D01*
X1209617Y684042D02*
X1212617D01*
X1211117Y682542D02*
Y685542D01*
X1206839Y688199D02*
X1209839D01*
X1208339Y686699D02*
Y689699D01*
X1101280Y846178D02*
X1104280D01*
X1102780Y844678D02*
Y847678D01*
X1091879Y846116D02*
X1094879D01*
X1093379Y844616D02*
Y847616D01*
X1195634Y675134D02*
X1198634D01*
X1197134Y673633D02*
Y676634D01*
X1193040Y679408D02*
X1196040D01*
X1194540Y677908D02*
Y680908D01*
X1094473Y841841D02*
X1097473D01*
X1095973Y840341D02*
Y843341D01*
X1085078Y842189D02*
X1088078D01*
X1086578Y840689D02*
Y843689D01*
X1181276Y666844D02*
X1184276D01*
X1182776Y665344D02*
Y668344D01*
X1178871Y671227D02*
X1181871D01*
X1180371Y669727D02*
Y672728D01*
X1087483Y837806D02*
X1090483D01*
X1088983Y836306D02*
Y839306D01*
X1078112Y838563D02*
X1081112D01*
X1079612Y837063D02*
Y840063D01*
X1166570Y659188D02*
X1169570D01*
X1168070Y657688D02*
Y660688D01*
X1164358Y663673D02*
X1167358D01*
X1165858Y662173D02*
Y665173D01*
X1080323Y834079D02*
X1083323D01*
X1081823Y832579D02*
Y835579D01*
X1070994Y835244D02*
X1073994D01*
X1072495Y833744D02*
Y836744D01*
X1151544Y652182D02*
X1154544D01*
X1153044Y650682D02*
Y653682D01*
X1149530Y656758D02*
X1152530D01*
X1151030Y655258D02*
Y658258D01*
X1073008Y830667D02*
X1076008D01*
X1074508Y829167D02*
Y832167D01*
X1063739Y832239D02*
X1066739D01*
X1065239Y830739D02*
Y833739D01*
X1136226Y645837D02*
X1139226D01*
X1137726Y644337D02*
Y647337D01*
X1134414Y650497D02*
X1137414D01*
X1135914Y648997D02*
Y651997D01*
X1065551Y827579D02*
X1068551D01*
X1067051Y826079D02*
Y829079D01*
X1056359Y829553D02*
X1059359D01*
X1057859Y828053D02*
Y831053D01*
X1120647Y640166D02*
X1123647D01*
X1122147Y638666D02*
Y641666D01*
X1119040Y644901D02*
X1122040D01*
X1120540Y643401D02*
Y646401D01*
X1057966Y824818D02*
X1060966D01*
X1059466Y823318D02*
Y826318D01*
X1048869Y827191D02*
X1051869D01*
X1050369Y825691D02*
Y828691D01*
X1104835Y635181D02*
X1107835D01*
X1106335Y633681D02*
Y636681D01*
X1103436Y639981D02*
X1106436D01*
X1104936Y638481D02*
Y641481D01*
X1050268Y822391D02*
X1053268D01*
X1051768Y820891D02*
Y823891D01*
X1041283Y825158D02*
X1044284D01*
X1042784Y823659D02*
Y826658D01*
X1088821Y630890D02*
X1091821D01*
X1090321Y629390D02*
Y632390D01*
X1087632Y635747D02*
X1090632D01*
X1089132Y634247D02*
Y637247D01*
X1042472Y820302D02*
X1045472D01*
X1043972Y818802D02*
Y821802D01*
X1033616Y823459D02*
X1036616D01*
X1035116Y821959D02*
Y824959D01*
X1072634Y627302D02*
X1075634D01*
X1074134Y625802D02*
Y628802D01*
X1071659Y632206D02*
X1074659D01*
X1073159Y630706D02*
Y633706D01*
X1034592Y818555D02*
X1037592D01*
X1036092Y817055D02*
Y820055D01*
X1025882Y822095D02*
X1028882D01*
X1027382Y820595D02*
Y823595D01*
X1056307Y624423D02*
X1059307D01*
X1057807Y622923D02*
Y625923D01*
X1055546Y629365D02*
X1058546D01*
X1057046Y627864D02*
Y630864D01*
X1026643Y817153D02*
X1029643D01*
X1028143Y815653D02*
Y818653D01*
X1018096Y821070D02*
X1021096D01*
X1019596Y819570D02*
Y822570D01*
X1039869Y622259D02*
X1042869D01*
X1041369Y620759D02*
Y623759D01*
X1039325Y627229D02*
X1042325D01*
X1040825Y625729D02*
Y628729D01*
X1018640Y816100D02*
X1021640D01*
X1020140Y814600D02*
Y817600D01*
X1010273Y820385D02*
X1013273D01*
X1011773Y818885D02*
Y821885D01*
X1023353Y620814D02*
X1026353D01*
X1024853Y619314D02*
Y622314D01*
X1023026Y625803D02*
X1026026D01*
X1024526Y624303D02*
Y627303D01*
X1010600Y815396D02*
X1013599D01*
X1012100Y813896D02*
Y816896D01*
X1002427Y820043D02*
X1005427D01*
X1003927Y818543D02*
Y821543D01*
X1006790Y620090D02*
X1009790D01*
X1008290Y618590D02*
Y621590D01*
X1006681Y625089D02*
X1009681D01*
X1008181Y623589D02*
Y626589D01*
X1002536Y815044D02*
X1005536D01*
X1004036Y813544D02*
Y816544D01*
X994573Y820043D02*
X997573D01*
X996073Y818543D02*
Y821543D01*
X990210Y620090D02*
X993210D01*
X991710Y618590D02*
Y621590D01*
X990319Y625089D02*
X993319D01*
X991819Y623589D02*
Y626589D01*
X994464Y815044D02*
X997464D01*
X995964Y813544D02*
Y816544D01*
X986728Y820385D02*
X989727D01*
X988227Y818885D02*
Y821885D01*
X973647Y620814D02*
X976647D01*
X975147Y619314D02*
Y622314D01*
X973974Y625803D02*
X976974D01*
X975474Y624303D02*
Y627303D01*
X986400Y815396D02*
X989400D01*
X987900Y813896D02*
Y816896D01*
X978904Y821070D02*
X981904D01*
X980404Y819570D02*
Y822570D01*
X957131Y622259D02*
X960131D01*
X958631Y620759D02*
Y623759D01*
X957675Y627229D02*
X960675D01*
X959175Y625729D02*
Y628729D01*
X978360Y816100D02*
X981360D01*
X979860Y814600D02*
Y817600D01*
X971118Y822095D02*
X974118D01*
X972618Y820595D02*
Y823595D01*
X940693Y624423D02*
X943693D01*
X942193Y622923D02*
Y625923D01*
X941454Y629365D02*
X944454D01*
X942954Y627864D02*
Y630864D01*
X970357Y817153D02*
X973357D01*
X971857Y815653D02*
Y818653D01*
X963384Y823459D02*
X966384D01*
X964884Y821959D02*
Y824959D01*
X924366Y627302D02*
X927366D01*
X925866Y625802D02*
Y628802D01*
X925341Y632206D02*
X928341D01*
X926841Y630706D02*
Y633706D01*
X962408Y818555D02*
X965408D01*
X963908Y817055D02*
Y820055D01*
X955717Y825158D02*
X958717D01*
X957217Y823659D02*
Y826658D01*
X908179Y630890D02*
X911179D01*
X909679Y629390D02*
Y632390D01*
X909368Y635747D02*
X912368D01*
X910868Y634247D02*
Y637247D01*
X954528Y820302D02*
X957528D01*
X956028Y818802D02*
Y821802D01*
X948131Y827191D02*
X951131D01*
X949631Y825691D02*
Y828691D01*
X892165Y635181D02*
X895165D01*
X893665Y633681D02*
Y636681D01*
X893564Y639981D02*
X896564D01*
X895064Y638481D02*
Y641481D01*
X946732Y822391D02*
X949732D01*
X948232Y820891D02*
Y823891D01*
X940641Y829553D02*
X943641D01*
X942141Y828053D02*
Y831053D01*
X876353Y640167D02*
X879353D01*
X877853Y638667D02*
Y641667D01*
X877960Y644901D02*
X880960D01*
X879460Y643401D02*
Y646401D01*
X939034Y824818D02*
X942034D01*
X940534Y823318D02*
Y826318D01*
X933261Y832239D02*
X936261D01*
X934761Y830739D02*
Y833739D01*
X860773Y645837D02*
X863773D01*
X862273Y644337D02*
Y647337D01*
X862586Y650497D02*
X865586D01*
X864086Y648997D02*
Y651997D01*
X931449Y827579D02*
X934449D01*
X932949Y826079D02*
Y829079D01*
X926006Y835244D02*
X929006D01*
X927506Y833744D02*
Y836744D01*
X845456Y652182D02*
X848456D01*
X846956Y650682D02*
Y653682D01*
X847470Y656758D02*
X850470D01*
X848970Y655258D02*
Y658258D01*
X923992Y830667D02*
X926992D01*
X925492Y829167D02*
Y832167D01*
X918888Y838563D02*
X921888D01*
X920388Y837063D02*
Y840063D01*
X830430Y659188D02*
X833430D01*
X831930Y657688D02*
Y660688D01*
X832642Y663673D02*
X835642D01*
X834142Y662173D02*
Y665173D01*
X916677Y834079D02*
X919677D01*
X918177Y832579D02*
Y835579D01*
X911922Y842189D02*
X914922D01*
X913422Y840689D02*
Y843689D01*
X815724Y666844D02*
X818724D01*
X817224Y665344D02*
Y668344D01*
X818129Y671227D02*
X821129D01*
X819629Y669727D02*
Y672728D01*
X909517Y837806D02*
X912517D01*
X911017Y836306D02*
Y839306D01*
X905121Y846116D02*
X908121D01*
X906621Y844616D02*
Y847616D01*
X801366Y675134D02*
X804366D01*
X802866Y673634D02*
Y676634D01*
X803960Y679408D02*
X806960D01*
X805460Y677908D02*
Y680908D01*
X902527Y841841D02*
X905527D01*
X904027Y840341D02*
Y843341D01*
X898497Y850335D02*
X901497D01*
X899997Y848836D02*
Y851835D01*
X787383Y684042D02*
X790383D01*
X788883Y682542D02*
Y685542D01*
X790161Y688199D02*
X793161D01*
X791661Y686699D02*
Y689699D01*
X895720Y846178D02*
X898719D01*
X897219Y844678D02*
Y847678D01*
X892064Y854840D02*
X895064D01*
X893564Y853340D02*
Y856340D01*
X773802Y693551D02*
X776802D01*
X775302Y692051D02*
Y695051D01*
X776759Y697583D02*
X779759D01*
X778259Y696083D02*
Y699083D01*
X889108Y850808D02*
X892108D01*
X890608Y849308D02*
Y852308D01*
X885834Y859621D02*
X888834D01*
X887334Y858121D02*
Y861121D01*
X760649Y703644D02*
X763649D01*
X762149Y702144D02*
Y705144D01*
X763779Y707543D02*
X766779D01*
X765279Y706043D02*
Y709043D01*
X882704Y855721D02*
X885704D01*
X884204Y854221D02*
Y857221D01*
X879818Y864669D02*
X882818D01*
X881318Y863169D02*
Y866169D01*
X747949Y714301D02*
X750949D01*
X749449Y712801D02*
Y715801D01*
X751245Y718060D02*
X754245D01*
X752745Y716560D02*
Y719560D01*
X876521Y860910D02*
X879521D01*
X878021Y859410D02*
Y862410D01*
X874028Y869975D02*
X877028D01*
X875528Y868475D02*
Y871475D01*
X735725Y725502D02*
X738725D01*
X737225Y724002D02*
Y727002D01*
X739183Y729114D02*
X742183D01*
X740683Y727614D02*
Y730614D01*
X870570Y866363D02*
X873570D01*
X872070Y864863D02*
Y867863D01*
X868475Y875528D02*
X871475D01*
X869975Y874028D02*
Y877028D01*
X724002Y737225D02*
X727002D01*
X725502Y735725D02*
Y738725D01*
X727614Y740683D02*
X730613D01*
X729113Y739183D02*
Y742183D01*
X864863Y872070D02*
X867863D01*
X866363Y870570D02*
Y873570D01*
X863169Y881318D02*
X866169D01*
X864669Y879818D02*
Y882818D01*
X712801Y749449D02*
X715801D01*
X714301Y747949D02*
Y750949D01*
X716560Y752745D02*
X719560D01*
X718060Y751245D02*
Y754245D01*
X859410Y878021D02*
X862410D01*
X860910Y876521D02*
Y879521D01*
X858121Y887334D02*
X861121D01*
X859621Y885834D02*
Y888834D01*
X702144Y762149D02*
X705144D01*
X703644Y760649D02*
Y763649D01*
X706043Y765279D02*
X709043D01*
X707543Y763779D02*
Y766779D01*
X854221Y884204D02*
X857221D01*
X855721Y882704D02*
Y885704D01*
X853340Y893564D02*
X856340D01*
X854840Y892064D02*
Y895064D01*
X692051Y775302D02*
X695051D01*
X693551Y773802D02*
Y776802D01*
X696083Y778259D02*
X699083D01*
X697583Y776759D02*
Y779759D01*
X849308Y890608D02*
X852308D01*
X850808Y889108D02*
Y892108D01*
X848836Y899997D02*
X851835D01*
X850335Y898497D02*
Y901497D01*
X682542Y788883D02*
X685542D01*
X684042Y787383D02*
Y790383D01*
X686699Y791661D02*
X689699D01*
X688199Y790161D02*
Y793161D01*
X844678Y897220D02*
X847678D01*
X846178Y895720D02*
Y898720D01*
X844616Y906621D02*
X847616D01*
X846116Y905121D02*
Y908121D01*
X673633Y802866D02*
X676634D01*
X675134Y801366D02*
Y804366D01*
X677908Y805460D02*
X680908D01*
X679408Y803960D02*
Y806960D01*
X840341Y904027D02*
X843341D01*
X841841Y902527D02*
Y905527D01*
X840689Y913422D02*
X843689D01*
X842189Y911922D02*
Y914922D01*
X665344Y817224D02*
X668344D01*
X666844Y815724D02*
Y818724D01*
X669727Y819629D02*
X672728D01*
X671227Y818129D02*
Y821129D01*
X836306Y911017D02*
X839306D01*
X837806Y909517D02*
Y912517D01*
X837063Y920388D02*
X840063D01*
X838563Y918888D02*
Y921888D01*
X657688Y831930D02*
X660688D01*
X659188Y830430D02*
Y833430D01*
X662173Y834142D02*
X665173D01*
X663673Y832642D02*
Y835642D01*
X832579Y918177D02*
X835579D01*
X834079Y916677D02*
Y919677D01*
X833744Y927506D02*
X836744D01*
X835244Y926006D02*
Y929006D01*
X650682Y846956D02*
X653682D01*
X652182Y845456D02*
Y848456D01*
X655258Y848970D02*
X658258D01*
X656758Y847470D02*
Y850470D01*
X829167Y925492D02*
X832167D01*
X830667Y923992D02*
Y926992D01*
X830739Y934761D02*
X833739D01*
X832239Y933261D02*
Y936261D01*
X644337Y862274D02*
X647337D01*
X645837Y860774D02*
Y863774D01*
X648997Y864086D02*
X651997D01*
X650497Y862586D02*
Y865586D01*
X826079Y932949D02*
X829079D01*
X827579Y931449D02*
Y934449D01*
X828053Y942141D02*
X831053D01*
X829553Y940641D02*
Y943641D01*
X638667Y877853D02*
X641667D01*
X640167Y876353D02*
Y879353D01*
X643401Y879460D02*
X646401D01*
X644901Y877960D02*
Y880960D01*
X823318Y940534D02*
X826318D01*
X824818Y939034D02*
Y942034D01*
X825691Y949631D02*
X828691D01*
X827191Y948131D02*
Y951131D01*
X633681Y893665D02*
X636681D01*
X635181Y892165D02*
Y895165D01*
X638481Y895064D02*
X641481D01*
X639981Y893564D02*
Y896564D01*
X820891Y948232D02*
X823891D01*
X822391Y946732D02*
Y949732D01*
X823659Y957216D02*
X826658D01*
X825158Y955716D02*
Y958717D01*
X629390Y909679D02*
X632390D01*
X630890Y908179D02*
Y911179D01*
X634247Y910868D02*
X637247D01*
X635747Y909368D02*
Y912368D01*
X818802Y956028D02*
X821802D01*
X820302Y954528D02*
Y957528D01*
X821959Y964884D02*
X824959D01*
X823459Y963384D02*
Y966384D01*
X625802Y925866D02*
X628802D01*
X627302Y924366D02*
Y927366D01*
X630705Y926841D02*
X633705D01*
X632206Y925341D02*
Y928341D01*
X817055Y963908D02*
X820055D01*
X818555Y962408D02*
Y965408D01*
X820595Y972618D02*
X823595D01*
X822095Y971118D02*
Y974118D01*
X622923Y942193D02*
X625923D01*
X624423Y940693D02*
Y943693D01*
X627864Y942954D02*
X630864D01*
X629365Y941454D02*
Y944454D01*
X815653Y971857D02*
X818653D01*
X817153Y970357D02*
Y973357D01*
X819570Y980404D02*
X822570D01*
X821070Y978904D02*
Y981904D01*
X620759Y958631D02*
X623759D01*
X622259Y957131D02*
Y960131D01*
X625729Y959175D02*
X628729D01*
X627229Y957675D02*
Y960675D01*
X814600Y979860D02*
X817600D01*
X816100Y978360D02*
Y981360D01*
X818885Y988227D02*
X821885D01*
X820385Y986727D02*
Y989727D01*
X619314Y975147D02*
X622314D01*
X620814Y973647D02*
Y976647D01*
X624303Y975474D02*
X627303D01*
X625803Y973974D02*
Y976974D01*
X813896Y987900D02*
X816896D01*
X815396Y986401D02*
Y989400D01*
X818543Y996073D02*
X821543D01*
X820043Y994573D02*
Y997573D01*
X618591Y991710D02*
X621590D01*
X620090Y990210D02*
Y993210D01*
X623589Y991820D02*
X626589D01*
X625089Y990320D02*
Y993319D01*
X813544Y995964D02*
X816544D01*
X815044Y994464D02*
Y997464D01*
X818543Y1003927D02*
X821543D01*
X820043Y1002427D02*
Y1005427D01*
X618591Y1008290D02*
X621590D01*
X620090Y1006790D02*
Y1009790D01*
X623589Y1008181D02*
X626589D01*
X625089Y1006681D02*
Y1009681D01*
X813544Y1004036D02*
X816544D01*
X815044Y1002536D02*
Y1005536D01*
X818885Y1011773D02*
X821885D01*
X820385Y1010273D02*
Y1013272D01*
X619314Y1024853D02*
X622314D01*
X620814Y1023353D02*
Y1026353D01*
X624303Y1024526D02*
X627303D01*
X625803Y1023026D02*
Y1026026D01*
X813896Y1012100D02*
X816896D01*
X815396Y1010600D02*
Y1013600D01*
X819570Y1019596D02*
X822570D01*
X821070Y1018096D02*
Y1021096D01*
X620759Y1041369D02*
X623759D01*
X622259Y1039869D02*
Y1042869D01*
X625729Y1040825D02*
X628729D01*
X627229Y1039325D02*
Y1042325D01*
X814600Y1020140D02*
X817600D01*
X816100Y1018640D02*
Y1021640D01*
X820595Y1027382D02*
X823595D01*
X822095Y1025882D02*
Y1028882D01*
X622923Y1057807D02*
X625923D01*
X624423Y1056307D02*
Y1059307D01*
X627864Y1057046D02*
X630864D01*
X629365Y1055546D02*
Y1058546D01*
X815653Y1028143D02*
X818653D01*
X817153Y1026643D02*
Y1029643D01*
X821959Y1035116D02*
X824959D01*
X823459Y1033616D02*
Y1036616D01*
X625802Y1074134D02*
X628802D01*
X627302Y1072634D02*
Y1075634D01*
X630706Y1073159D02*
X633706D01*
X632206Y1071659D02*
Y1074659D01*
X817055Y1036092D02*
X820055D01*
X818555Y1034592D02*
Y1037592D01*
X823659Y1042784D02*
X826658D01*
X825158Y1041283D02*
Y1044284D01*
X629390Y1090321D02*
X632390D01*
X630890Y1088821D02*
Y1091821D01*
X634247Y1089132D02*
X637247D01*
X635747Y1087632D02*
Y1090632D01*
X818802Y1043972D02*
X821802D01*
X820302Y1042472D02*
Y1045472D01*
X825691Y1050369D02*
X828691D01*
X827191Y1048869D02*
Y1051869D01*
X633681Y1106335D02*
X636681D01*
X635181Y1104835D02*
Y1107835D01*
X638481Y1104936D02*
X641481D01*
X639981Y1103436D02*
Y1106436D01*
X820891Y1051768D02*
X823891D01*
X822391Y1050268D02*
Y1053268D01*
X828053Y1057859D02*
X831053D01*
X829553Y1056359D02*
Y1059359D01*
X638667Y1122147D02*
X641667D01*
X640167Y1120647D02*
Y1123647D01*
X643401Y1120540D02*
X646401D01*
X644901Y1119040D02*
Y1122040D01*
X823318Y1059466D02*
X826318D01*
X824818Y1057966D02*
Y1060966D01*
X830739Y1065239D02*
X833739D01*
X832239Y1063739D02*
Y1066739D01*
X644337Y1137727D02*
X647337D01*
X645837Y1136227D02*
Y1139227D01*
X648997Y1135914D02*
X651997D01*
X650497Y1134414D02*
Y1137414D01*
X826079Y1067051D02*
X829079D01*
X827579Y1065551D02*
Y1068551D01*
X833744Y1072494D02*
X836744D01*
X835244Y1070994D02*
Y1073994D01*
X650682Y1153044D02*
X653682D01*
X652182Y1151544D02*
Y1154544D01*
X655258Y1151030D02*
X658258D01*
X656758Y1149530D02*
Y1152530D01*
X829167Y1074508D02*
X832167D01*
X830667Y1073008D02*
Y1076008D01*
X837063Y1079612D02*
X840063D01*
X838563Y1078112D02*
Y1081112D01*
X657688Y1168070D02*
X660688D01*
X659188Y1166570D02*
Y1169570D01*
X662173Y1165858D02*
X665173D01*
X663673Y1164358D02*
Y1167358D01*
X832579Y1081823D02*
X835579D01*
X834079Y1080323D02*
Y1083323D01*
X840689Y1086578D02*
X843689D01*
X842189Y1085078D02*
Y1088078D01*
X665344Y1182776D02*
X668344D01*
X666844Y1181276D02*
Y1184276D01*
X669727Y1180371D02*
X672728D01*
X671227Y1178871D02*
Y1181871D01*
X836306Y1088983D02*
X839306D01*
X837806Y1087483D02*
Y1090483D01*
X844616Y1093379D02*
X847616D01*
X846116Y1091879D02*
Y1094879D01*
X673634Y1197134D02*
X676634D01*
X675134Y1195634D02*
Y1198634D01*
X677908Y1194540D02*
X680908D01*
X679408Y1193040D02*
Y1196040D01*
X840341Y1095973D02*
X843341D01*
X841841Y1094473D02*
Y1097473D01*
X848836Y1100003D02*
X851835D01*
X850335Y1098503D02*
Y1101503D01*
X682542Y1211117D02*
X685542D01*
X684042Y1209617D02*
Y1212617D01*
X686699Y1208339D02*
X689699D01*
X688199Y1206839D02*
Y1209839D01*
X844678Y1102781D02*
X847678D01*
X846178Y1101281D02*
Y1104280D01*
X853340Y1106436D02*
X856340D01*
X854840Y1104936D02*
Y1107936D01*
X692051Y1224698D02*
X695051D01*
X693551Y1223198D02*
Y1226198D01*
X696083Y1221741D02*
X699083D01*
X697583Y1220241D02*
Y1223241D01*
X849308Y1109392D02*
X852308D01*
X850808Y1107892D02*
Y1110892D01*
X858121Y1112666D02*
X861121D01*
X859621Y1111166D02*
Y1114166D01*
X702144Y1237851D02*
X705144D01*
X703644Y1236351D02*
Y1239351D01*
X706043Y1234721D02*
X709043D01*
X707543Y1233221D02*
Y1236221D01*
X854221Y1115796D02*
X857221D01*
X855721Y1114296D02*
Y1117296D01*
X863169Y1118682D02*
X866169D01*
X864669Y1117182D02*
Y1120182D01*
X712801Y1250551D02*
X715801D01*
X714301Y1249051D02*
Y1252051D01*
X716560Y1247255D02*
X719560D01*
X718060Y1245755D02*
Y1248755D01*
X859410Y1121979D02*
X862410D01*
X860910Y1120479D02*
Y1123479D01*
X868475Y1124472D02*
X871475D01*
X869975Y1122972D02*
Y1125972D01*
X724002Y1262775D02*
X727002D01*
X725502Y1261275D02*
Y1264275D01*
X727614Y1259317D02*
X730614D01*
X729114Y1257817D02*
Y1260817D01*
X864863Y1127930D02*
X867863D01*
X866363Y1126430D02*
Y1129430D01*
X874028Y1130025D02*
X877028D01*
X875528Y1128525D02*
Y1131525D01*
X735725Y1274498D02*
X738725D01*
X737225Y1272998D02*
Y1275998D01*
X739183Y1270887D02*
X742183D01*
X740683Y1269387D02*
Y1272386D01*
X870570Y1133637D02*
X873570D01*
X872070Y1132137D02*
Y1135137D01*
X879818Y1135331D02*
X882818D01*
X881318Y1133831D02*
Y1136831D01*
X747949Y1285699D02*
X750949D01*
X749449Y1284199D02*
Y1287199D01*
X751245Y1281940D02*
X754245D01*
X752745Y1280440D02*
Y1283440D01*
X876521Y1139090D02*
X879521D01*
X878021Y1137590D02*
Y1140590D01*
X885834Y1140379D02*
X888834D01*
X887334Y1138879D02*
Y1141879D01*
X760649Y1296356D02*
X763649D01*
X762149Y1294856D02*
Y1297856D01*
X763779Y1292457D02*
X766779D01*
X765279Y1290957D02*
Y1293957D01*
X882704Y1144279D02*
X885704D01*
X884204Y1142779D02*
Y1145779D01*
X892064Y1145160D02*
X895064D01*
X893564Y1143660D02*
Y1146660D01*
X773802Y1306449D02*
X776802D01*
X775302Y1304949D02*
Y1307949D01*
X776759Y1302417D02*
X779759D01*
X778259Y1300917D02*
Y1303917D01*
X889108Y1149192D02*
X892108D01*
X890608Y1147692D02*
Y1150692D01*
X898497Y1149665D02*
X901497D01*
X899997Y1148165D02*
Y1151164D01*
X787383Y1315958D02*
X790383D01*
X788883Y1314458D02*
Y1317458D01*
X790161Y1311801D02*
X793161D01*
X791661Y1310301D02*
Y1313301D01*
X895720Y1153822D02*
X898719D01*
X897219Y1152322D02*
Y1155322D01*
X905121Y1153884D02*
X908121D01*
X906621Y1152384D02*
Y1155384D01*
X801366Y1324866D02*
X804366D01*
X802866Y1323367D02*
Y1326366D01*
X803960Y1320592D02*
X806960D01*
X805460Y1319092D02*
Y1322092D01*
X902527Y1158159D02*
X905527D01*
X904027Y1156659D02*
Y1159659D01*
X911922Y1157811D02*
X914922D01*
X913422Y1156311D02*
Y1159311D01*
X815724Y1333156D02*
X818724D01*
X817224Y1331656D02*
Y1334656D01*
X818129Y1328772D02*
X821129D01*
X819629Y1327272D02*
Y1330273D01*
X909517Y1162194D02*
X912517D01*
X911017Y1160694D02*
Y1163694D01*
X918888Y1161437D02*
X921888D01*
X920388Y1159937D02*
Y1162937D01*
X830430Y1340812D02*
X833430D01*
X831930Y1339312D02*
Y1342312D01*
X832642Y1336327D02*
X835642D01*
X834142Y1334827D02*
Y1337827D01*
X916677Y1165921D02*
X919677D01*
X918177Y1164421D02*
Y1167421D01*
X926006Y1164756D02*
X929006D01*
X927506Y1163256D02*
Y1166256D01*
X845456Y1347818D02*
X848456D01*
X846956Y1346318D02*
Y1349318D01*
X847470Y1343242D02*
X850470D01*
X848970Y1341742D02*
Y1344742D01*
X923992Y1169333D02*
X926992D01*
X925492Y1167833D02*
Y1170833D01*
X933261Y1167761D02*
X936261D01*
X934761Y1166261D02*
Y1169261D01*
X860774Y1354163D02*
X863774D01*
X862274Y1352663D02*
Y1355663D01*
X862586Y1349503D02*
X865586D01*
X864086Y1348003D02*
Y1351003D01*
X931449Y1172421D02*
X934449D01*
X932949Y1170921D02*
Y1173922D01*
X940641Y1170447D02*
X943641D01*
X942141Y1168947D02*
Y1171947D01*
X876353Y1359833D02*
X879353D01*
X877853Y1358333D02*
Y1361333D01*
X877960Y1355099D02*
X880960D01*
X879460Y1353599D02*
Y1356599D01*
X939034Y1175182D02*
X942034D01*
X940534Y1173682D02*
Y1176682D01*
X948131Y1172809D02*
X951131D01*
X949631Y1171309D02*
Y1174309D01*
X892165Y1364819D02*
X895165D01*
X893665Y1363319D02*
Y1366319D01*
X893564Y1360019D02*
X896564D01*
X895064Y1358519D02*
Y1361519D01*
X946732Y1177609D02*
X949732D01*
X948232Y1176109D02*
Y1179109D01*
X955717Y1174842D02*
X958717D01*
X957217Y1173342D02*
Y1176342D01*
X908179Y1369110D02*
X911179D01*
X909679Y1367610D02*
Y1370610D01*
X909368Y1364253D02*
X912368D01*
X910868Y1362753D02*
Y1365753D01*
X954528Y1179698D02*
X957528D01*
X956028Y1178198D02*
Y1181198D01*
X963384Y1176541D02*
X966384D01*
X964884Y1175041D02*
Y1178041D01*
X924366Y1372698D02*
X927366D01*
X925866Y1371198D02*
Y1374198D01*
X925341Y1367794D02*
X928341D01*
X926841Y1366295D02*
Y1369294D01*
X962408Y1181445D02*
X965408D01*
X963908Y1179945D02*
Y1182945D01*
X971118Y1177905D02*
X974118D01*
X972618Y1176405D02*
Y1179405D01*
X940693Y1375577D02*
X943693D01*
X942193Y1374077D02*
Y1377077D01*
X941454Y1370636D02*
X944454D01*
X942954Y1369136D02*
Y1372136D01*
X970357Y1182847D02*
X973357D01*
X971857Y1181347D02*
Y1184347D01*
X978904Y1178930D02*
X981904D01*
X980404Y1177430D02*
Y1180430D01*
X957131Y1377741D02*
X960131D01*
X958631Y1376241D02*
Y1379241D01*
X957675Y1372771D02*
X960675D01*
X959175Y1371271D02*
Y1374271D01*
X978360Y1183900D02*
X981360D01*
X979860Y1182400D02*
Y1185400D01*
M02*
