G04*
G04 #@! TF.GenerationSoftware,Altium Limited,Altium Designer,25.8.1 (18)*
G04*
G04 Layer_Color=16711935*
%FSLAX44Y44*%
%MOMM*%
G71*
G04*
G04 #@! TF.SameCoordinates,078DBBB2-0D48-4D9F-B724-92657CB152FA*
G04*
G04*
G04 #@! TF.FilePolarity,Positive*
G04*
G01*
G75*
%ADD21C,0.2540*%
D21*
X1131469Y1460647D02*
G03*
X1116469Y1464667I-15000J-25981D01*
G01*
X1344179Y1333198D02*
G03*
X1333198Y1344179I-25981J-15000D01*
G01*
X1464667Y1116469D02*
G03*
X1460647Y1131469I-30000J0D01*
G01*
Y868531D02*
G03*
X1464667Y883531I-25981J15000D01*
G01*
X1333198Y655821D02*
G03*
X1344179Y666802I-15000J25981D01*
G01*
X1116469Y535333D02*
G03*
X1131469Y539353I0J30000D01*
G01*
X868531D02*
G03*
X883531Y535333I15000J25981D01*
G01*
X655821Y666802D02*
G03*
X666802Y655821I25981J15000D01*
G01*
X535333Y883531D02*
G03*
X539353Y868531I30000J0D01*
G01*
Y1131469D02*
G03*
X535333Y1116469I25981J-15000D01*
G01*
X666802Y1344179D02*
G03*
X655821Y1333198I15000J-25981D01*
G01*
X883531Y1464667D02*
G03*
X868531Y1460647I0J-30000D01*
G01*
X1125000Y1000000D02*
G03*
X1125000Y1000000I-125000J0D01*
G01*
X1131175Y1461202D02*
X1333825Y1344202D01*
X1344202Y1333825D02*
X1461202Y1131175D01*
X1465000Y883000D02*
Y1117000D01*
X1344202Y666175D02*
X1461202Y868825D01*
X1131175Y538798D02*
X1333825Y655798D01*
X883000Y535000D02*
X1117000D01*
X666175Y655798D02*
X868825Y538798D01*
X538798Y868825D02*
X655798Y666175D01*
X535000Y883000D02*
Y1117000D01*
X538798Y1131175D02*
X655798Y1333825D01*
X666175Y1344202D02*
X868825Y1461202D01*
X883000Y1465000D02*
X1117000D01*
M02*
