M48
;Layer_Color=9474304
;FILE_FORMAT=4:4
METRIC,LZ
;TYPE=PLATED
T01F00S00C0.3000
;TYPE=NON_PLATED
T02F00S00C3.1000
%
T01
X01197134Y00675134
X0119454Y00679408
X01211117Y00684042
X01208339Y00688199
X01224698Y00693551
X01221741Y00697583
X01237851Y00703644
X01234721Y00707543
X01250551Y00714301
X01247255Y0071806
X01262775Y00725502
X01259317Y00729114
X01270886Y00740683
X01274498Y00737225
X0128194Y00752745
X01285699Y00749449
X01292457Y00765279
X01296356Y00762149
X01302417Y00778259
X01306449Y00775302
X01311801Y00791661
X01315959Y00788883
X01180371Y00671227
X01182776Y00666844
X01165858Y00663673
X0116807Y00659188
X0115103Y00656758
X01153044Y00652182
X01135914Y00650497
X01137726Y00645837
X0112054Y00644901
X01122147Y00640166
X01104936Y00639981
X01106335Y00635181
X01089132Y00635747
X01090321Y0063089
X01073159Y00632206
X01074134Y00627302
X01057046Y00629365
X01057807Y00624423
X01041369Y00622259
X01040825Y00627229
X01024526Y00625803
X01024853Y00620814
X0100829Y0062009
X01008181Y00625089
X00991819Y00625089
X0099171Y0062009
X00975147Y00620814
X00975474Y00625803
X00959175Y00627229
X00958631Y00622259
X00942193Y00624423
X00942954Y00629365
X00926841Y00632206
X00925866Y00627302
X00909679Y0063089
X00910868Y00635747
X00893665Y00635181
X00895064Y00639981
X00877853Y00640167
X0087946Y00644901
X00862273Y00645837
X00864086Y00650497
X00846956Y00652182
X0084897Y00656758
X0083193Y00659188
X00834142Y00663673
X00817224Y00666844
X00819629Y00671227
X00802866Y00675134
X0080546Y00679408
X00788883Y00684042
X00791661Y00688199
X00775302Y00693551
X00778259Y00697583
X00762149Y00703644
X00765279Y00707543
X00749449Y00714301
X00752745Y0071806
X00737225Y00725502
X00740683Y00729114
X00729113Y00740683
X00725502Y00737225
X0071806Y00752745
X00714301Y00749449
X00707543Y00765279
X00703644Y00762149
X00697583Y00778259
X00693551Y00775302
X00688199Y00791661
X00684042Y00788883
X00679408Y0080546
X00675134Y00802866
X00671227Y00819629
X00666844Y00817224
X00663673Y00834142
X00659188Y0083193
X00656758Y0084897
X00652182Y00846956
X00650497Y00864086
X00645837Y00862274
X00644901Y0087946
X00640167Y00877853
X00639981Y00895064
X00635181Y00893665
X00635747Y00910868
X0063089Y00909679
X00632206Y00926841
X00627302Y00925866
X00629365Y00942954
X00624423Y00942193
X00622259Y00958631
X00627229Y00959175
X00625803Y00975474
X00620814Y00975147
X0062009Y0099171
X00625089Y0099182
X00625089Y01008181
X0062009Y0100829
X00620814Y01024853
X00625803Y01024526
X00627229Y01040825
X00622259Y01041369
X00624423Y01057807
X00629365Y01057046
X00632206Y01073159
X00627302Y01074134
X0063089Y01090321
X00635747Y01089132
X00635181Y01106335
X00639981Y01104936
X00640167Y01122147
X00644901Y0112054
X00645837Y01137727
X00650497Y01135914
X00652182Y01153044
X00656758Y0115103
X00659188Y0116807
X00663673Y01165858
X00666844Y01182776
X00671227Y01180371
X0087207Y01133637
X00875528Y01130025
X00881318Y01135331
X00878021Y0113909
X00887334Y01140379
X00884204Y01144279
X00893564Y0114516
X00890608Y01149192
X00899997Y01149665
X00897219Y01153822
X00906621Y01153884
X00904027Y01158159
X00913422Y01157811
X00911017Y01162194
X00920388Y01161437
X00918177Y01165921
X00927506Y01164756
X00925492Y01169333
X00932949Y01172421
X00934761Y01167761
X00942141Y01170447
X00940534Y01175182
X00948232Y01177609
X00949631Y01172809
X00957217Y01174842
X00956028Y01179698
X00963908Y01181445
X00964884Y01176541
X00972618Y01177905
X00971857Y01182847
X0097986Y011839
X00980404Y0117893
X00988227Y01179615
X009879Y01184604
X00995964Y01184956
X00996073Y01179957
X01003927
X01004036Y01184956
X010121Y01184604
X01011773Y01179615
X01019596Y0117893
X0102014Y011839
X01028143Y01182847
X01027382Y01177905
X01035116Y01176541
X01036092Y01181445
X01043972Y01179698
X01042784Y01174842
X01050369Y01172809
X01051768Y01177609
X01059466Y01175182
X01057859Y01170447
X01065239Y01167761
X01067051Y01172421
X01074508Y01169333
X01072494Y01164756
X01079612Y01161437
X01081823Y01165921
X01088983Y01162194
X01086578Y01157811
X01095973Y01158159
X01093379Y01153884
X01102781Y01153822
X01100003Y01149665
X01109392Y01149192
X01106436Y0114516
X01115796Y01144279
X01112666Y01140379
X01121979Y0113909
X01118682Y01135331
X0112793Y01133637
X01124472Y01130026
X01130025Y01124472
X01133637Y0112793
X01135331Y01118682
X0113909Y01121979
X01140379Y01112666
X01144279Y01115796
X0114516Y01106436
X01149192Y01109392
X01149665Y01100003
X01153822Y0110278
X01153884Y01093379
X01158159Y01095973
X01157811Y01086578
X01162194Y01088983
X01161437Y01079612
X01165921Y01081823
X01164756Y01072495
X01169333Y01074508
X01172421Y01067051
X01167761Y01065239
X01170447Y01057859
X01175182Y01059466
X01177609Y01051768
X01172809Y01050369
X01174842Y01042784
X01179698Y01043972
X01181445Y01036092
X01176541Y01035116
X01177905Y01027382
X01182847Y01028143
X011839Y0102014
X0117893Y01019596
X01179615Y01011773
X01184604Y010121
X01184956Y01004036
X01179957Y01003927
Y00996073
X01184956Y00995964
X01184604Y009879
X01179615Y00988227
X0117893Y00980404
X011839Y0097986
X01182847Y00971857
X01177905Y00972618
X01176541Y00964884
X01181445Y00963908
X01179698Y00956028
X01174842Y00957217
X01172809Y00949631
X01177609Y00948232
X01175182Y00940534
X01170447Y00942141
X01167761Y00934761
X01172421Y00932949
X01169333Y00925492
X01164756Y00927506
X01161437Y00920388
X01165921Y00918177
X01162194Y00911017
X01157811Y00913422
X01158159Y00904027
X01153884Y00906621
X01153822Y00897219
X01149665Y00899997
X01149192Y00890608
X0114516Y00893564
X01144279Y00884204
X01140379Y00887334
X0113909Y00878021
X01135331Y00881318
X01133637Y0087207
X01130026Y00875528
X01124472Y00869975
X0112793Y00866363
X01118682Y00864669
X01121979Y0086091
X01112666Y00859621
X01115796Y00855721
X01106436Y0085484
X01109392Y00850808
X01100003Y00850335
X0110278Y00846178
X01093379Y00846116
X01095973Y00841841
X01086578Y00842189
X01088983Y00837806
X01079612Y00838563
X01081823Y00834079
X01072495Y00835244
X01074508Y00830667
X01067051Y00827579
X01065239Y00832239
X01057859Y00829553
X01059466Y00824818
X01051768Y00822391
X01050369Y00827191
X01042784Y00825158
X01043972Y00820302
X01036092Y00818555
X01035116Y00823459
X01027382Y00822095
X01028143Y00817153
X0102014Y008161
X01019596Y0082107
X01011773Y00820385
X010121Y00815396
X01004036Y00815044
X01003927Y00820043
X00996073
X00995964Y00815044
X009879Y00815396
X00988227Y00820385
X00980404Y0082107
X0097986Y008161
X00971857Y00817153
X00972618Y00822095
X00964884Y00823459
X00963908Y00818555
X00956028Y00820302
X00957217Y00825158
X00949631Y00827191
X00948232Y00822391
X00940534Y00824818
X00942141Y00829553
X00934761Y00832239
X00932949Y00827579
X00925492Y00830667
X00927506Y00835244
X00920388Y00838563
X00918177Y00834079
X00911017Y00837806
X00913422Y00842189
X00904027Y00841841
X00906621Y00846116
X00897219Y00846178
X00899997Y00850335
X00890608Y00850808
X00893564Y0085484
X00884204Y00855721
X00887334Y00859621
X00878021Y0086091
X00881318Y00864669
X0087207Y00866363
X00875528Y00869975
X00869975Y00875528
X00866363Y0087207
X00864669Y00881318
X0086091Y00878021
X00859621Y00887334
X00855721Y00884204
X0085484Y00893564
X00850808Y00890608
X00850335Y00899997
X00846178Y0089722
X00846116Y00906621
X00841841Y00904027
X00842189Y00913422
X00837806Y00911017
X00838563Y00920388
X00834079Y00918177
X00835244Y00927506
X00830667Y00925492
X00827579Y00932949
X00832239Y00934761
X00829553Y00942141
X00824818Y00940534
X00822391Y00948232
X00827191Y00949631
X00825158Y00957216
X00820302Y00956028
X00818555Y00963908
X00823459Y00964884
X00822095Y00972618
X00817153Y00971857
X008161Y0097986
X0082107Y00980404
X00820385Y00988227
X00815396Y009879
X00815044Y00995964
X00820043Y00996073
Y01003927
X00815044Y01004036
X00815396Y010121
X00820385Y01011773
X0082107Y01019596
X008161Y0102014
X00817153Y01028143
X00822095Y01027382
X00823459Y01035116
X00818555Y01036092
X00820302Y01043972
X00825158Y01042784
X00827191Y01050369
X00822391Y01051768
X00824818Y01059466
X00829553Y01057859
X00832239Y01065239
X00827579Y01067051
X00830667Y01074508
X00835244Y01072494
X00838563Y01079612
X00834079Y01081823
X00837806Y01088983
X00842189Y01086578
X00841841Y01095973
X00846116Y01093379
X00846178Y01102781
X00850335Y01100003
X00850808Y01109392
X0085484Y01106436
X00855721Y01115796
X00859621Y01112666
X0086091Y01121979
X00864669Y01118682
X00866363Y0112793
X00869975Y01124472
X01355099Y0112054
X01359834Y01122147
X01360019Y01104936
X01364819Y01106335
X01364253Y01089132
X0136911Y01090321
X01367794Y01073159
X01372698Y01074134
X01370636Y01057046
X01375577Y01057807
X01377741Y01041369
X01372771Y01040825
X01374197Y01024526
X01379186Y01024853
X0137991Y0100829
X01374911Y01008181
X01374911Y00991819
X0137991Y0099171
X01379186Y00975147
X01374197Y00975474
X01372771Y00959175
X01377741Y00958631
X01375577Y00942193
X01370636Y00942954
X01367794Y00926841
X01372698Y00925866
X0136911Y00909679
X01364253Y00910868
X01364819Y00893665
X01360019Y00895064
X01359833Y00877853
X01355099Y0087946
X01354163Y00862273
X01349503Y00864086
X01347818Y00846956
X01343242Y0084897
X01340812Y0083193
X01336327Y00834142
X01333156Y00817224
X01328772Y00819629
X01324866Y00802866
X01320592Y0080546
X01349503Y01135914
X01354163Y01137726
X01347818Y01153044
X01343242Y0115103
X01340812Y0116807
X01336327Y01165858
X01333156Y01182776
X01328772Y01180371
X01324866Y01197134
X01320592Y0119454
X01315959Y01211117
X01311801Y01208339
X01306449Y01224698
X01302417Y01221741
X01296356Y01237851
X01292457Y01234721
X01285699Y01250551
X0128194Y01247255
X01274498Y01262775
X01270887Y01259317
X01266387Y01271041
X01262775Y01274498
X01266233Y0127811
X01269845Y01274653
X01259163Y01277956
X01262621Y01281568
X01259317Y01270886
X01247255Y0128194
X01250551Y01285699
X01234721Y01292457
X01237851Y01296356
X01221741Y01302417
X01224698Y01306449
X01208339Y01311801
X01211117Y01315959
X0119454Y01320592
X01197134Y01324866
X0119933Y0133525
X01195Y0133775
X011975Y0134208
X0119317Y0134458
X0119567Y0134891
X012Y0134641
X0120183Y0133958
X0119067Y0134025
X01182776Y01333156
X01180371Y01328772
X01165858Y01336327
X0116807Y01340812
X0115103Y01343242
X01153044Y01347818
X01135914Y01349503
X01137727Y01354163
X0112054Y01355099
X01122147Y01359833
X01104936Y01360019
X01106335Y01364819
X01095177Y01367922
X01090321Y0136911
X01091509Y01373967
X01096366Y01372778
X01086652Y01375155
X01085464Y01370298
X01089132Y01364253
X01073159Y01367794
X01074134Y01372698
X01057046Y01370636
X01057807Y01375577
X01041369Y01377741
X01040825Y01372771
X01024526Y01374197
X01024853Y01379186
X0100829Y0137991
X01008181Y01374911
X00991819Y01374911
X0099171Y0137991
X00995Y0139
X00995Y01395
X00995Y014
X01Y014
X01Y01395
X01005Y01395
X01005Y0139
X01Y0139
X00975147Y01379186
X00975474Y01374197
X00959175Y01372771
X00958631Y01377741
X00942193Y01375577
X00942954Y01370636
X00926841Y01367794
X00925866Y01372698
X00909679Y0136911
X00910868Y01364253
X00898465Y01366218
X00897066Y01371019
X00892266Y01369619
X00887466Y0136822
X00888865Y0136342
X00893665Y01364819
X00895064Y01360019
X00877853Y01359833
X0087946Y01355099
X00862274Y01354163
X00864086Y01349503
X00846956Y01347818
X0084897Y01343242
X0083193Y01340812
X00834142Y01336327
X00817224Y01333156
X00819629Y01328772
X00802866Y01324866
X0080546Y01320592
X00805Y0133775
X008025Y0134208
X008025Y0134208
X008Y0134641
Y0134641
X0079567Y0134391
X0079817Y0133958
X0080067Y0133525
X0080933Y0134025
X0080683Y0134458
X00788883Y01315958
X00791661Y01311801
X00775302Y01306449
X00778259Y01302417
X00762149Y01296356
X00765279Y01292457
X00749449Y01285699
X00752745Y0128194
X00737225Y01274498
X00740683Y01270887
X00729114Y01259317
X00725502Y01262775
X0071806Y01247255
X00714301Y01250551
X00707543Y01234721
X00703644Y01237851
X00697583Y01221741
X00693551Y01224698
X00688199Y01208339
X00684042Y01211117
X00679408Y0119454
X00675134Y01197134
T02
X01318198Y00681802
X01116469Y00565333
X00883531
X00681802Y00681802
X00565333Y00883531
Y01116469
X01434667
Y00883531
X01318198Y01318198
X01116469Y01434667
X00883531
X00681802Y01318198
M30
